{"glyphs":{"0":{"ha":814,"x_min":62,"x_max":803,"o":"m 62 292 q 184 807 62 602 q 530 1011 307 1011 q 803 716 803 1011 q 685 183 803 379 q 340 -14 568 -14 q 135 67 208 -14 q 62 292 62 149 m 245 316 q 351 142 245 142 q 550 304 481 142 q 619 704 619 467 q 507 856 619 856 q 316 683 387 856 q 245 316 245 509 z "},"1":{"ha":814,"x_min":222,"x_max":660,"o":"m 475 0 l 292 0 l 420 694 l 222 597 l 249 777 q 578 998 490 884 l 660 998 l 475 0 z "},"2":{"ha":814,"x_min":29,"x_max":758,"o":"m 350 162 l 705 162 l 675 0 l 29 0 l 29 57 l 424 520 q 534 655 517 629 q 563 712 551 681 q 575 770 575 743 q 440 861 575 861 q 286 759 357 861 l 161 842 q 456 1011 239 1011 q 676 950 595 1011 q 758 778 758 890 q 718 635 758 710 q 568 427 678 561 l 350 162 z "},"3":{"ha":814,"x_min":35,"x_max":741,"o":"m 578 530 q 689 336 689 469 q 277 -14 689 -14 q 35 88 130 -14 l 123 241 q 299 142 201 142 q 449 194 391 142 q 507 332 507 245 q 313 454 507 454 l 341 604 q 553 755 553 604 q 432 856 553 856 q 294 801 363 856 l 206 911 q 463 1011 304 1011 q 664 947 587 1011 q 741 773 741 883 q 696 633 741 700 q 578 530 651 567 z "},"4":{"ha":814,"x_min":12,"x_max":778,"o":"m 668 404 l 768 404 l 742 258 l 642 258 l 594 0 l 410 0 l 458 258 l 12 258 l 32 366 l 692 998 l 778 998 l 668 404 m 277 404 l 484 404 l 529 645 l 277 404 z "},"5":{"ha":814,"x_min":66,"x_max":789,"o":"m 760 842 l 395 842 l 364 675 q 466 692 410 692 q 649 624 572 692 q 726 451 726 555 q 296 -14 726 -14 q 66 72 156 -14 l 143 229 q 223 167 174 193 q 315 142 272 142 q 483 222 420 142 q 546 420 546 302 q 505 515 546 480 q 399 551 464 551 q 238 473 309 551 l 162 509 l 247 998 l 789 998 l 760 842 z "},"6":{"ha":814,"x_min":79,"x_max":743,"o":"m 630 1014 l 711 909 q 540 798 636 880 q 373 623 444 715 q 477 639 420 639 q 671 572 600 639 q 743 389 743 506 q 635 102 743 220 q 368 -17 528 -17 q 79 276 79 -17 q 255 742 79 518 q 630 1014 431 966 m 258 257 q 378 138 258 138 q 509 206 458 138 q 559 362 559 273 q 530 451 559 418 q 448 484 500 484 q 308 421 358 484 q 258 257 258 359 z "},"7":{"ha":814,"x_min":101,"x_max":891,"o":"m 318 0 l 101 0 q 627 829 241 271 l 168 829 l 199 998 l 891 998 l 891 917 q 318 0 536 439 z "},"8":{"ha":814,"x_min":52,"x_max":772,"o":"m 608 534 q 722 319 722 448 q 340 -14 722 -14 q 132 51 212 -14 q 52 229 52 116 q 109 422 52 337 q 264 555 165 508 q 179 740 179 629 q 278 935 179 859 q 510 1011 377 1011 q 697 952 621 1011 q 772 795 772 893 q 727 647 772 718 q 608 534 681 575 m 480 616 q 591 775 591 707 q 561 833 591 810 q 490 856 530 856 q 364 741 364 856 q 480 616 364 667 m 423 465 q 286 385 340 444 q 232 252 232 326 q 269 172 232 203 q 360 142 306 142 q 490 188 442 142 q 537 315 537 234 q 423 465 537 406 z "},"9":{"ha":814,"x_min":102,"x_max":766,"o":"m 214 -20 l 133 85 q 317 204 214 115 q 471 370 420 293 q 367 355 426 355 q 177 430 253 355 q 102 618 102 505 q 203 904 102 796 q 477 1011 305 1011 q 689 929 613 1011 q 766 705 766 848 q 602 259 766 473 q 214 -20 438 46 m 285 632 q 396 511 285 511 q 536 572 487 511 q 585 737 585 633 q 467 856 585 856 q 334 792 382 856 q 285 632 285 729 z "}," ":{"ha":418,"x_min":0,"x_max":0,"o":""},"!":{"ha":510,"x_min":111,"x_max":496,"o":"m 300 288 l 210 288 l 217 477 q 226 614 220 551 q 241 726 233 677 l 294 1011 l 496 1011 l 457 787 q 387 551 448 735 l 300 288 m 111 96 q 144 173 111 142 q 224 205 178 205 q 303 173 270 205 q 337 96 337 142 q 304 18 337 50 q 224 -14 271 -14 q 144 18 177 -14 q 111 96 111 50 z "},"\"":{"ha":543,"x_min":111,"x_max":600,"o":"m 524 736 l 389 736 l 424 995 l 600 995 l 524 736 m 246 736 l 111 736 l 146 995 l 322 995 l 246 736 z "},"#":{"ha":814,"x_min":44,"x_max":796,"o":"m 796 617 l 650 617 l 593 400 l 698 400 l 698 277 l 561 277 l 479 -14 l 347 -14 l 427 277 l 271 277 l 191 -14 l 59 -14 l 139 277 l 44 277 l 44 400 l 172 400 l 229 617 l 122 617 l 122 740 l 261 740 l 334 1008 l 465 1008 l 394 740 l 549 740 l 623 1008 l 753 1008 l 683 740 l 796 740 l 796 617 m 522 617 l 361 617 l 304 400 l 463 400 l 522 617 z "},"$":{"ha":814,"x_min":100,"x_max":749,"o":"m 695 800 q 535 859 622 859 q 372 734 372 859 q 458 614 372 680 q 608 496 566 533 q 678 400 650 459 q 706 271 706 342 q 631 74 706 149 q 421 -17 555 0 l 401 -123 l 248 -123 l 267 -14 q 100 37 176 1 l 157 213 q 368 144 248 144 q 523 264 523 144 q 502 330 523 297 q 442 394 481 363 q 276 523 403 425 q 189 716 189 608 q 256 910 189 832 q 439 1008 322 987 l 465 1143 l 618 1143 l 594 1012 q 749 979 698 1004 l 695 800 z "},"%":{"ha":1017,"x_min":69,"x_max":1017,"o":"m 135 696 q 209 920 135 829 q 402 1011 283 1011 q 572 829 572 1011 q 499 611 572 702 q 310 521 426 521 q 135 696 135 521 m 270 718 q 323 632 270 632 q 409 688 379 632 q 439 824 439 745 q 381 900 439 900 q 300 845 330 900 q 270 718 270 789 m 210 -14 l 69 -14 l 876 1011 l 1017 1011 l 210 -14 m 522 163 q 596 386 522 296 q 790 477 671 477 q 959 294 959 477 q 886 77 959 168 q 697 -14 813 -14 q 522 163 522 -14 m 657 184 q 711 98 657 98 q 797 154 766 98 q 827 290 827 210 q 768 366 827 366 q 687 310 717 366 q 657 184 657 254 z "},"&":{"ha":981,"x_min":79,"x_max":951,"o":"m 926 469 l 757 469 q 721 296 730 348 q 713 200 713 244 q 771 134 713 134 q 891 187 818 134 l 891 20 q 720 -14 823 -14 q 589 29 635 -14 q 360 -14 482 -14 q 157 52 234 -14 q 79 233 79 117 q 235 563 79 427 q 177 709 177 637 q 274 931 177 851 q 532 1011 372 1011 q 724 969 654 1011 l 680 819 q 536 876 618 876 q 395 832 446 876 q 343 707 343 789 q 387 612 343 652 l 615 612 l 637 730 l 811 755 l 783 610 l 951 610 l 926 469 m 347 469 q 257 260 257 375 q 413 134 257 134 q 538 159 490 134 q 545 226 538 189 l 589 469 l 347 469 z "},"'":{"ha":418,"x_min":186,"x_max":398,"o":"m 322 736 l 186 736 l 222 995 l 398 995 l 322 736 z "},"(":{"ha":510,"x_min":94,"x_max":547,"o":"m 336 -309 q 94 199 94 -130 q 222 681 94 444 q 547 1021 349 918 l 547 920 q 281 75 281 639 q 336 -188 281 -81 l 336 -309 z "},")":{"ha":510,"x_min":-7,"x_max":458,"o":"m -7 -309 l -7 -187 q 194 156 117 -94 q 271 634 271 405 q 211 918 271 804 l 211 1013 q 395 827 331 962 q 458 510 458 693 q 331 42 458 266 q -7 -309 203 -182 z "},"*":{"ha":600,"x_min":100,"x_max":633,"o":"m 530 747 l 440 740 l 533 687 l 591 612 l 460 514 l 404 597 l 368 684 l 334 606 l 258 514 l 142 618 l 222 696 l 297 735 l 205 743 l 100 785 l 166 924 l 273 879 l 321 827 l 285 932 l 285 1024 l 445 1024 l 445 935 l 414 825 l 481 886 l 577 928 l 633 791 l 530 747 z "},"+":{"ha":814,"x_min":111,"x_max":720,"o":"m 484 363 l 484 122 l 347 122 l 347 363 l 111 363 l 111 499 l 347 499 l 347 732 l 484 732 l 484 499 l 720 499 l 720 363 l 484 363 z "},",":{"ha":510,"x_min":102,"x_max":373,"o":"m 155 -281 l 102 -212 q 210 -34 210 -133 q 171 35 210 4 q 132 100 132 65 q 168 173 132 144 q 253 201 203 201 q 337 162 301 201 q 373 72 373 123 q 155 -281 373 -133 z "},"-":{"ha":510,"x_min":60,"x_max":447,"o":"m 60 323 l 88 482 l 447 482 l 418 323 l 60 323 z "},".":{"ha":510,"x_min":138,"x_max":354,"o":"m 138 94 q 170 171 138 139 q 246 202 201 202 q 322 171 291 202 q 354 94 354 139 q 322 18 354 50 q 246 -14 291 -14 q 170 18 201 -14 q 138 94 138 50 z "},"/":{"ha":551,"x_min":-7,"x_max":529,"o":"m 153 0 l -7 0 l 370 998 l 529 998 l 153 0 z "},":":{"ha":510,"x_min":111,"x_max":412,"o":"m 111 94 q 143 171 111 139 q 219 202 174 202 q 295 171 264 202 q 327 94 327 139 q 295 18 327 50 q 219 -14 264 -14 q 143 18 174 -14 q 111 94 111 50 m 197 618 q 228 695 197 663 q 304 726 260 726 q 381 695 349 726 q 412 618 412 663 q 381 542 412 574 q 304 511 349 511 q 228 542 260 511 q 197 618 197 574 z "},";":{"ha":510,"x_min":102,"x_max":412,"o":"m 155 -281 l 102 -212 q 210 -34 210 -133 q 171 35 210 4 q 132 100 132 65 q 170 175 132 146 q 253 201 205 201 q 338 161 302 201 q 373 72 373 121 q 155 -281 373 -133 m 197 618 q 228 695 197 663 q 304 726 260 726 q 381 695 349 726 q 412 618 412 663 q 381 542 412 574 q 304 511 349 511 q 228 542 260 511 q 197 618 197 574 z "},"<":{"ha":814,"x_min":130,"x_max":672,"o":"m 130 378 l 130 487 l 672 747 l 672 592 l 314 432 l 672 270 l 672 115 l 130 378 z "},"=":{"ha":814,"x_min":121,"x_max":730,"o":"m 121 505 l 121 642 l 730 642 l 730 505 l 121 505 m 121 220 l 121 357 l 730 357 l 730 220 l 121 220 z "},">":{"ha":814,"x_min":180,"x_max":722,"o":"m 180 115 l 180 270 l 537 432 l 180 592 l 180 747 l 722 487 l 722 378 l 180 115 z "},"?":{"ha":551,"x_min":38,"x_max":542,"o":"m 205 281 l 106 281 q 101 319 106 292 q 96 363 96 347 q 169 534 96 452 l 297 654 q 358 730 338 693 q 378 804 378 768 q 283 878 378 878 q 144 829 208 878 l 87 944 q 321 1011 163 1011 q 481 957 421 1011 q 542 809 542 903 q 516 690 542 749 q 444 591 490 632 l 327 490 q 235 396 258 431 q 205 304 205 351 l 205 281 m 38 96 q 72 173 38 142 q 151 205 105 205 q 231 173 197 205 q 264 96 264 142 q 231 18 264 50 q 151 -14 198 -14 q 71 18 104 -14 q 38 96 38 50 z "},"@":{"ha":1070,"x_min":41,"x_max":1058,"o":"m 614 209 q 463 148 551 148 q 330 193 380 148 q 280 320 280 239 q 373 554 280 453 q 597 654 465 654 q 787 603 665 654 q 734 389 740 433 q 728 315 728 345 q 763 267 728 267 q 877 343 835 267 q 919 521 919 420 q 838 716 919 643 q 630 790 758 790 q 305 651 431 790 q 179 304 179 512 q 264 82 179 167 q 488 -3 350 -3 q 630 20 559 -3 q 739 83 701 44 l 818 -14 q 660 -95 758 -64 q 473 -125 562 -125 q 161 -11 282 -125 q 41 290 41 104 q 211 735 41 557 q 645 912 382 912 q 945 814 832 912 q 1058 543 1058 715 q 972 272 1058 389 q 752 155 887 155 q 614 209 664 155 m 593 551 q 477 479 524 551 q 429 328 429 408 q 485 263 429 263 q 565 298 533 263 q 609 388 597 334 q 637 534 621 442 q 593 551 618 551 z "},"A":{"ha":852,"x_min":-64,"x_max":806,"o":"m 623 0 l 591 202 l 236 202 l 119 0 l -64 0 l 539 1007 l 602 1007 l 806 0 l 623 0 m 515 705 l 311 334 l 572 334 l 515 705 z "},"B":{"ha":819,"x_min":37,"x_max":791,"o":"m 652 555 q 737 469 703 532 q 771 335 771 406 q 650 78 771 163 q 259 -8 530 -8 q 37 0 170 -8 l 218 992 q 421 1008 332 1008 q 791 764 791 1008 q 752 642 791 699 q 652 555 712 585 m 372 854 l 329 612 q 402 610 369 610 q 557 651 499 610 q 614 769 614 692 q 457 859 614 859 q 372 854 425 859 m 306 484 l 242 144 q 302 141 273 141 q 515 188 437 141 q 592 321 592 234 q 374 487 592 487 q 306 484 340 487 z "},"C":{"ha":851,"x_min":77,"x_max":840,"o":"m 790 802 q 618 857 713 857 q 362 712 466 857 q 259 389 259 566 q 315 206 259 275 q 472 138 372 138 q 717 222 628 138 l 713 67 q 436 -17 617 -17 q 176 89 275 -17 q 77 365 77 195 q 229 825 77 639 q 627 1010 381 1010 q 840 971 747 1010 l 790 802 z "},"D":{"ha":878,"x_min":29,"x_max":871,"o":"m 269 0 l 29 0 l 210 991 q 396 1009 309 1009 q 747 905 623 1009 q 871 605 871 802 q 707 164 871 329 q 269 0 543 0 m 357 848 l 237 158 q 291 155 267 155 q 580 283 473 155 q 687 612 687 412 q 613 789 687 722 q 423 855 539 855 q 357 848 391 855 z "},"E":{"ha":824,"x_min":28,"x_max":851,"o":"m 822 839 l 364 839 l 323 610 l 651 610 l 623 463 l 295 463 l 239 155 l 690 155 l 661 0 l 28 0 l 212 994 l 851 994 l 822 839 z "},"F":{"ha":813,"x_min":28,"x_max":869,"o":"m 841 839 l 363 839 l 321 610 l 671 610 l 643 463 l 294 463 l 209 0 l 28 0 l 212 994 l 869 994 l 841 839 z "},"G":{"ha":939,"x_min":57,"x_max":899,"o":"m 817 90 q 441 -17 663 -17 q 164 93 271 -17 q 57 370 57 202 q 219 838 57 665 q 662 1010 382 1010 q 888 943 814 1010 l 835 795 q 636 856 735 856 q 349 725 457 856 q 240 396 240 593 q 307 206 240 274 q 491 138 374 138 q 661 191 588 138 l 696 388 l 559 388 l 586 536 l 899 536 l 817 90 z "},"H":{"ha":942,"x_min":36,"x_max":972,"o":"m 788 0 l 610 0 l 694 463 l 300 463 l 215 0 l 36 0 l 218 994 l 397 994 l 327 610 l 722 610 l 792 994 l 972 994 l 788 0 z "},"I":{"ha":387,"x_min":46,"x_max":406,"o":"m 223 0 l 46 0 l 229 994 l 406 994 l 223 0 z "},"J":{"ha":692,"x_min":-6,"x_max":705,"o":"m -2 228 l 153 228 q 226 141 152 141 q 321 160 283 141 q 377 217 359 179 q 417 373 396 256 l 530 994 l 705 994 l 591 372 q 459 63 549 139 q 205 -14 370 -14 q 52 38 109 -14 q -6 178 -6 89 q -2 228 -6 198 z "},"K":{"ha":903,"x_min":47,"x_max":945,"o":"m 553 557 l 800 0 l 601 0 l 415 425 l 274 269 l 224 0 l 47 0 l 230 994 l 406 994 l 324 542 l 736 994 l 945 994 l 553 557 z "},"L":{"ha":734,"x_min":34,"x_max":689,"o":"m 661 0 l 34 0 l 216 994 l 394 994 l 240 155 l 689 155 l 661 0 z "},"M":{"ha":1092,"x_min":-11,"x_max":1016,"o":"m 841 0 l 829 538 l 528 -14 l 466 -14 l 368 543 l 159 0 l -11 0 l 358 994 l 457 994 l 557 363 l 886 994 l 987 994 l 1016 0 l 841 0 z "},"N":{"ha":917,"x_min":35,"x_max":940,"o":"m 755 -14 l 686 -14 l 320 629 l 210 0 l 35 0 l 218 994 l 299 994 l 658 378 l 766 994 l 940 994 l 755 -14 z "},"O":{"ha":975,"x_min":67,"x_max":960,"o":"m 67 370 q 212 823 67 635 q 589 1011 357 1011 q 863 917 767 1011 q 960 643 960 822 q 812 166 960 349 q 407 -17 664 -17 q 158 89 250 -17 q 67 370 67 195 m 250 388 q 296 205 250 273 q 429 138 341 138 q 684 283 590 138 q 777 629 777 428 q 576 857 777 857 q 343 708 435 857 q 250 388 250 559 z "},"P":{"ha":810,"x_min":33,"x_max":831,"o":"m 281 365 l 214 0 l 33 0 l 220 992 q 437 1007 362 1007 q 831 711 831 1007 q 711 449 831 544 q 401 353 591 353 q 281 365 340 353 m 368 843 l 309 515 q 397 506 343 506 q 580 555 512 506 q 648 698 648 605 q 470 854 648 854 q 368 843 422 854 z "},"Q":{"ha":1069,"x_min":79,"x_max":1131,"o":"m 530 -12 q 419 -24 479 -24 q 167 79 256 -24 q 79 366 79 182 q 223 822 79 632 q 600 1011 368 1011 q 874 915 778 1011 q 971 641 971 819 q 891 268 971 431 q 663 36 811 105 q 762 -54 692 -22 q 911 -86 831 -86 q 1066 -37 994 -86 l 1131 -143 q 876 -252 1044 -252 q 666 -187 761 -252 q 530 -12 572 -121 m 262 384 q 308 199 262 267 q 441 132 353 132 q 695 277 602 132 q 789 627 789 423 q 589 856 789 856 q 355 706 448 856 q 262 384 262 555 z "},"R":{"ha":866,"x_min":35,"x_max":823,"o":"m 573 440 l 795 0 l 596 0 l 406 411 q 293 416 360 412 l 216 0 l 35 0 l 216 994 q 476 1004 414 1004 q 730 942 637 1004 q 823 762 823 880 q 755 555 823 643 q 573 440 687 467 m 370 841 l 319 563 q 391 559 359 559 q 647 722 647 559 q 598 819 647 790 q 435 848 549 848 q 370 841 425 848 z "},"S":{"ha":696,"x_min":29,"x_max":692,"o":"m 637 798 q 477 855 559 855 q 314 732 314 855 q 401 607 314 680 l 503 520 q 569 461 551 479 q 608 409 587 442 q 638 342 628 376 q 648 273 648 308 q 546 60 648 136 q 281 -17 444 -17 q 29 41 148 -17 l 86 215 q 297 146 177 146 q 417 177 370 146 q 465 265 465 208 q 378 389 465 321 l 272 474 q 206 531 223 513 q 170 580 189 549 q 141 645 151 612 q 132 713 132 678 q 222 930 132 850 q 460 1010 313 1010 q 585 999 509 1010 q 692 974 661 988 l 637 798 z "},"T":{"ha":951,"x_min":136,"x_max":972,"o":"m 943 839 l 630 839 l 477 0 l 298 0 l 452 839 l 136 839 l 164 994 l 972 994 l 943 839 z "},"U":{"ha":919,"x_min":83,"x_max":952,"o":"m 825 306 q 683 68 797 153 q 401 -17 569 -17 q 172 51 260 -17 q 83 237 83 118 q 91 313 83 273 l 216 994 l 397 994 l 271 317 q 267 278 267 298 q 309 174 267 211 q 421 138 350 138 q 572 187 512 138 q 649 326 633 237 l 773 994 l 952 994 l 825 306 z "},"V":{"ha":949,"x_min":161,"x_max":1015,"o":"m 457 -14 l 361 -14 l 161 994 l 350 994 l 469 334 l 817 994 l 1015 994 l 457 -14 z "},"W":{"ha":1286,"x_min":150,"x_max":1369,"o":"m 863 -14 l 791 -14 l 684 593 l 361 -14 l 290 -14 l 150 994 l 330 994 l 405 391 l 718 994 l 795 994 l 887 395 l 1177 994 l 1369 994 l 863 -14 z "},"X":{"ha":912,"x_min":-16,"x_max":977,"o":"m 575 503 l 809 0 l 614 0 l 457 351 l 190 0 l -16 0 l 383 524 l 194 994 l 376 994 l 504 663 l 772 994 l 977 994 l 575 503 z "},"Y":{"ha":949,"x_min":168,"x_max":1010,"o":"m 575 439 l 494 0 l 319 0 l 401 445 l 168 994 l 351 994 l 511 605 l 809 994 l 1010 994 l 575 439 z "},"Z":{"ha":849,"x_min":59,"x_max":846,"o":"m 327 155 l 732 155 l 703 0 l 59 0 l 59 56 l 597 839 l 189 839 l 217 994 l 846 994 l 846 937 l 327 155 z "},"[":{"ha":674,"x_min":47,"x_max":655,"o":"m 626 867 l 448 867 l 267 -127 l 445 -127 l 416 -285 l 47 -285 l 286 1024 l 655 1024 l 626 867 z "},"\\":{"ha":663,"x_min":116,"x_max":629,"o":"m 481 0 l 116 998 l 262 998 l 629 0 l 481 0 z "},"]":{"ha":674,"x_min":5,"x_max":614,"o":"m 374 -285 l 5 -285 l 35 -127 l 213 -127 l 394 867 l 216 867 l 245 1024 l 614 1024 l 374 -285 z "},"^":{"ha":814,"x_min":178,"x_max":735,"o":"m 602 615 l 456 858 l 309 612 l 178 612 l 421 998 l 494 998 l 735 615 l 602 615 z "},"_":{"ha":814,"x_min":-5,"x_max":819,"o":"m -5 -227 l -5 -85 l 819 -85 l 819 -227 l -5 -227 z "},"`":{"ha":814,"x_min":328,"x_max":542,"o":"m 432 871 l 328 1097 l 518 1097 l 542 871 l 432 871 z "},"a":{"ha":823,"x_min":48,"x_max":754,"o":"m 670 260 q 665 205 665 235 q 688 0 665 56 l 583 0 q 512 73 535 0 q 296 -14 425 -14 q 113 53 178 -14 q 48 238 48 119 q 173 592 48 445 q 489 740 298 740 q 754 706 673 740 l 670 260 m 474 602 q 292 493 360 602 q 224 242 224 384 q 340 125 224 125 q 468 215 413 125 q 565 588 522 305 q 474 602 517 602 z "},"b":{"ha":824,"x_min":14,"x_max":784,"o":"m 351 -14 q 193 55 243 -14 l 138 0 l 14 0 q 103 298 79 166 l 232 1024 l 397 1024 l 340 699 q 494 740 404 740 q 709 649 631 740 q 784 424 784 563 q 658 115 784 243 q 351 -14 532 -14 m 429 597 q 311 538 360 597 l 245 180 q 347 127 271 127 q 537 212 466 127 q 604 414 604 293 q 429 597 604 597 z "},"c":{"ha":684,"x_min":51,"x_max":663,"o":"m 629 547 q 485 599 557 599 q 297 512 368 599 q 227 294 227 425 q 267 178 227 226 q 370 130 307 130 q 583 207 460 130 l 563 30 q 349 -14 459 -14 q 131 63 212 -14 q 51 273 51 139 q 168 608 51 475 q 475 740 286 740 q 663 695 584 740 l 629 547 z "},"d":{"ha":824,"x_min":43,"x_max":842,"o":"m 657 0 l 488 0 l 501 68 q 315 -14 445 -14 q 115 61 187 -14 q 43 265 43 136 q 159 607 43 473 q 468 740 275 740 q 550 726 505 740 q 616 694 595 711 l 678 1024 l 842 1024 l 657 0 m 479 597 q 293 511 362 597 q 223 292 223 425 q 360 126 223 126 q 552 362 508 126 l 585 536 q 479 597 552 597 z "},"e":{"ha":766,"x_min":56,"x_max":749,"o":"m 233 315 q 231 285 231 298 q 276 168 231 209 q 401 127 321 127 q 500 151 444 127 q 587 203 555 174 l 568 25 q 357 -14 481 -14 q 140 71 223 -14 q 56 304 56 156 q 177 615 56 491 q 492 740 297 740 q 677 691 606 740 q 749 553 749 643 q 643 360 749 430 q 381 290 536 290 q 233 315 305 290 m 265 444 q 361 431 309 431 q 517 459 453 431 q 581 540 581 487 q 452 599 581 599 q 348 554 401 599 q 265 444 295 510 z "},"f":{"ha":570,"x_min":-42,"x_max":664,"o":"m 630 862 q 536 886 575 886 q 401 726 438 886 l 568 726 l 551 590 l 380 590 l 272 -46 q 176 -217 254 -150 q -6 -285 98 -284 l -42 -172 q 45 -124 6 -161 q 92 -39 83 -87 l 205 590 l 103 590 l 125 726 l 226 726 q 544 1024 296 1024 q 664 995 614 1024 l 630 862 z "},"g":{"ha":743,"x_min":0,"x_max":745,"o":"m 675 600 q 690 519 690 566 q 644 336 690 413 q 493 210 598 258 q 378 145 388 162 q 450 154 424 154 q 579 107 526 154 q 633 -11 633 61 q 540 -214 633 -142 q 272 -285 448 -285 q 128 -259 206 -285 q 0 -195 50 -233 l 74 -67 q 275 -136 171 -136 q 464 -35 464 -136 q 445 1 464 -13 q 386 23 425 16 l 256 46 q 184 130 184 68 q 243 203 184 166 q 124 282 170 224 q 77 411 77 340 q 174 649 77 557 q 423 740 271 740 q 581 700 517 740 l 645 769 l 745 670 l 675 600 m 250 426 q 274 337 250 372 q 341 302 298 302 q 465 362 416 302 q 513 506 513 421 q 414 602 513 602 q 294 552 338 602 q 250 426 250 503 z "},"h":{"ha":781,"x_min":28,"x_max":740,"o":"m 732 444 l 649 0 l 475 0 l 560 451 q 564 495 564 473 q 463 597 564 597 q 298 519 371 597 l 201 0 l 28 0 l 213 1024 l 382 1024 l 326 682 q 517 740 416 740 q 681 682 621 740 q 740 519 740 623 q 732 444 740 484 z "},"i":{"ha":454,"x_min":97,"x_max":440,"o":"m 219 960 q 251 1035 219 1005 q 330 1065 283 1065 q 408 1035 375 1065 q 440 960 440 1005 q 408 884 440 915 q 330 854 375 854 q 252 884 284 854 q 219 960 219 914 m 269 0 l 97 0 l 207 590 l 114 590 l 142 726 l 405 726 l 269 0 z "},"j":{"ha":538,"x_min":-98,"x_max":522,"o":"m 301 958 q 333 1035 301 1004 q 412 1065 366 1065 q 490 1035 458 1065 q 522 958 522 1004 q 490 882 522 913 q 412 852 457 852 q 334 882 366 852 q 301 958 301 913 m 347 10 q 218 -213 319 -140 q -98 -285 116 -285 l -91 -135 q 56 -122 4 -135 q 138 -75 107 -109 q 179 14 169 -41 l 282 590 l 184 590 l 216 726 l 480 726 l 347 10 z "},"k":{"ha":749,"x_min":41,"x_max":718,"o":"m 517 0 l 288 299 l 259 275 l 211 0 l 41 0 l 218 1024 l 385 1024 l 298 485 l 426 596 q 600 770 557 710 l 718 667 q 418 393 688 631 l 718 0 l 517 0 z "},"l":{"ha":444,"x_min":71,"x_max":408,"o":"m 323 57 q 202 -7 283 -7 q 106 33 141 -7 q 71 137 71 73 q 103 375 71 220 l 239 1024 l 408 1024 l 268 348 q 238 142 238 203 q 262 80 238 102 q 323 57 287 57 z "},"m":{"ha":1153,"x_min":19,"x_max":1126,"o":"m 1119 476 l 1030 0 l 857 0 l 943 458 q 947 505 947 480 q 847 599 947 599 q 770 574 812 599 q 709 522 729 550 l 612 0 l 438 0 l 534 512 q 536 528 536 519 q 428 599 536 599 q 354 575 395 599 q 289 519 313 551 l 192 0 l 19 0 l 117 525 q 121 582 121 543 q 102 713 121 649 l 268 742 q 283 676 277 707 q 488 740 365 740 q 691 662 631 740 q 908 740 777 740 q 1126 542 1126 740 q 1119 476 1126 513 z "},"n":{"ha":781,"x_min":18,"x_max":734,"o":"m 642 0 l 467 0 l 546 423 q 555 509 555 474 q 449 599 555 599 q 286 522 358 599 l 189 0 l 18 0 l 121 545 q 123 584 123 559 q 104 713 123 644 l 270 743 l 286 662 q 510 740 375 740 q 734 530 734 740 q 724 442 734 493 l 642 0 z "},"o":{"ha":791,"x_min":49,"x_max":765,"o":"m 49 272 q 169 604 49 469 q 473 740 289 740 q 689 667 613 740 q 765 460 765 594 q 646 123 765 259 q 340 -14 528 -14 q 125 60 202 -14 q 49 272 49 134 m 225 280 q 359 125 225 125 q 526 223 465 125 q 588 455 588 321 q 454 602 588 602 q 288 505 351 602 q 225 280 225 408 z "},"p":{"ha":831,"x_min":-17,"x_max":785,"o":"m 207 20 l 153 -285 l -17 -285 l 130 502 q 138 589 138 545 q 125 709 138 649 l 291 739 q 307 670 300 713 q 494 740 401 740 q 785 458 785 740 q 665 119 785 251 q 350 -14 546 -14 q 207 20 272 -14 m 233 164 q 332 130 267 130 q 536 211 465 130 q 607 441 607 292 q 564 552 607 510 q 447 593 522 593 q 369 571 414 593 q 301 523 323 549 l 233 164 z "},"q":{"ha":831,"x_min":33,"x_max":808,"o":"m 601 -285 l 431 -285 l 489 37 q 315 -14 416 -14 q 109 60 184 -14 q 33 264 33 133 q 157 604 33 467 q 475 740 280 740 q 570 721 517 740 q 648 677 623 703 q 684 711 663 700 q 725 725 705 723 q 808 727 745 727 q 745 497 770 633 l 601 -285 m 513 166 l 585 557 q 477 597 545 597 q 285 510 358 597 q 212 294 212 424 q 256 173 212 216 q 378 130 300 130 q 513 166 458 130 z "},"r":{"ha":621,"x_min":47,"x_max":640,"o":"m 589 554 q 483 599 529 599 q 362 542 417 599 q 294 410 308 484 l 217 0 l 47 0 l 182 726 l 353 726 l 341 663 q 541 740 431 740 q 640 727 568 740 l 589 554 z "},"s":{"ha":637,"x_min":7,"x_max":615,"o":"m 536 528 q 387 599 455 599 q 314 579 345 599 q 283 528 283 560 q 357 450 283 488 q 470 391 431 413 q 534 331 509 369 q 559 245 559 294 q 470 56 559 125 q 240 -14 380 -14 q 7 54 121 -14 l 96 208 q 262 127 181 127 q 348 153 314 127 q 381 223 381 179 q 317 293 381 260 q 205 354 254 326 q 131 421 156 381 q 105 509 105 460 q 190 677 105 614 q 397 740 274 740 q 615 683 481 740 l 536 528 z "},"t":{"ha":608,"x_min":112,"x_max":600,"o":"m 570 590 l 370 590 l 297 268 q 288 203 288 229 q 372 129 288 129 q 494 164 410 129 l 494 12 q 295 -14 421 -14 q 162 38 212 -14 q 112 172 112 90 q 118 226 112 199 l 200 590 l 116 590 l 145 726 l 229 726 l 258 875 l 452 945 l 401 726 l 600 726 l 570 590 z "},"u":{"ha":774,"x_min":42,"x_max":765,"o":"m 629 -1 l 460 -1 l 470 52 q 242 -14 379 -14 q 95 40 149 -14 q 42 189 42 94 q 50 258 42 218 l 137 726 l 309 726 l 223 265 q 218 216 218 236 q 317 127 218 127 q 452 180 397 127 q 520 307 507 233 l 595 726 l 765 726 l 629 -1 z "},"v":{"ha":767,"x_min":63,"x_max":814,"o":"m 347 -14 l 286 -14 l 63 726 l 240 726 l 362 286 l 618 726 l 814 726 l 347 -14 z "},"w":{"ha":1074,"x_min":56,"x_max":1120,"o":"m 722 -14 l 661 -14 l 534 406 l 262 -14 l 199 -14 l 56 726 l 229 726 l 301 326 l 550 726 l 611 726 l 731 321 l 941 726 l 1120 726 l 722 -14 z "},"x":{"ha":800,"x_min":-5,"x_max":819,"o":"m 512 365 l 723 0 l 516 0 l 397 226 l 203 0 l -5 0 l 311 379 l 118 726 l 316 726 l 431 506 l 606 726 l 819 726 l 512 365 z "},"y":{"ha":783,"x_min":28,"x_max":803,"o":"m 420 -73 q 28 -285 319 -283 l 28 -121 q 275 3 220 -121 l 310 84 q 184 279 217 111 l 98 726 l 277 726 q 378 228 356 249 l 611 726 l 803 726 l 420 -73 z "},"z":{"ha":740,"x_min":19,"x_max":720,"o":"m 303 147 l 648 147 l 620 0 l 19 0 l 19 58 l 444 579 l 87 579 l 115 726 l 720 726 l 720 666 l 303 147 z "},"{":{"ha":674,"x_min":87,"x_max":713,"o":"m 689 886 l 587 888 q 468 852 498 888 q 437 743 437 817 q 443 679 437 721 q 448 615 448 637 q 284 385 448 479 q 382 238 382 328 q 336 91 382 188 q 290 -58 290 -7 q 440 -148 290 -148 l 472 -148 l 500 -147 l 476 -285 l 361 -285 q 176 -236 250 -285 q 102 -99 102 -186 q 156 76 102 -38 q 210 248 210 189 q 87 334 210 326 l 104 431 q 274 609 274 444 q 268 687 274 635 q 262 765 262 739 q 355 950 262 881 q 585 1019 448 1019 l 713 1019 l 689 886 z "},"|":{"ha":814,"x_min":342,"x_max":482,"o":"m 342 -285 l 342 1024 l 482 1024 l 482 -285 l 342 -285 z "},"}":{"ha":674,"x_min":-24,"x_max":609,"o":"m 591 334 q 422 152 422 323 q 427 73 422 125 q 431 -6 431 20 q 339 -211 431 -136 q 99 -285 248 -285 l -24 -285 l 1 -147 q 155 -133 102 -147 q 234 -75 209 -118 q 260 37 260 -33 q 256 103 260 59 q 252 169 252 147 q 414 389 252 313 q 318 545 318 461 q 362 684 318 593 q 406 823 406 774 q 337 886 406 886 l 190 886 l 214 1019 l 334 1019 q 515 970 442 1019 q 589 838 589 922 q 538 682 589 783 q 487 526 487 580 q 609 431 487 440 l 591 334 z "},"~":{"ha":814,"x_min":122,"x_max":679,"o":"m 221 325 l 122 325 q 175 456 136 406 q 271 506 214 506 q 336 499 304 506 q 470 461 369 492 q 519 454 498 454 q 578 506 560 454 l 679 506 q 616 365 653 406 q 522 325 580 325 q 457 332 490 325 q 359 358 424 338 q 281 377 294 377 q 221 325 246 377 z "},"Ä":{"ha":852,"x_min":-64,"x_max":840,"o":"m 623 0 l 591 202 l 236 202 l 119 0 l -64 0 l 539 1007 l 602 1007 l 806 0 l 623 0 m 515 705 l 311 334 l 572 334 l 515 705 m 640 1201 q 671 1256 640 1236 q 740 1277 701 1277 q 810 1256 779 1277 q 840 1201 840 1234 q 810 1145 840 1166 q 740 1124 780 1124 q 670 1145 701 1124 q 640 1201 640 1166 m 319 1201 q 350 1256 319 1234 q 420 1277 380 1277 q 489 1256 458 1277 q 519 1201 519 1236 q 489 1146 519 1167 q 420 1124 458 1124 q 350 1145 380 1124 q 319 1201 319 1166 z "},"Å":{"ha":852,"x_min":-64,"x_max":806,"o":"m 623 0 l 591 202 l 236 202 l 119 0 l -64 0 l 539 1007 l 602 1007 l 806 0 l 623 0 m 515 705 l 311 334 l 572 334 l 515 705 m 574 1020 q 456 1061 507 1020 q 406 1162 406 1101 q 456 1264 406 1223 q 574 1304 507 1304 q 691 1264 642 1304 q 741 1162 741 1224 q 691 1060 741 1101 q 574 1020 641 1020 m 576 1222 q 515 1204 541 1222 q 490 1160 490 1187 q 515 1116 490 1133 q 576 1098 541 1098 q 636 1116 610 1098 q 662 1160 662 1133 q 636 1204 662 1187 q 576 1222 610 1222 z "},"Ç":{"ha":851,"x_min":77,"x_max":840,"o":"m 790 802 q 618 857 713 857 q 362 712 466 857 q 259 389 259 566 q 315 206 259 275 q 472 138 372 138 q 717 222 628 138 l 713 67 q 436 -17 617 -17 q 176 89 275 -17 q 77 365 77 195 q 229 825 77 639 q 627 1010 381 1010 q 840 971 747 1010 l 790 802 m 229 -305 l 229 -222 q 256 -225 241 -225 q 329 -208 295 -225 q 372 -152 372 -187 q 352 -108 372 -128 q 309 -87 332 -88 l 351 -29 q 507 -155 507 -39 q 433 -275 507 -233 q 288 -309 372 -309 q 229 -305 278 -309 z "},"É":{"ha":824,"x_min":28,"x_max":851,"o":"m 822 839 l 364 839 l 323 610 l 651 610 l 623 463 l 295 463 l 239 155 l 690 155 l 661 0 l 28 0 l 212 994 l 851 994 l 822 839 m 572 1075 l 425 1075 l 564 1301 l 757 1301 l 572 1075 z "},"Ñ":{"ha":917,"x_min":35,"x_max":940,"o":"m 755 -14 l 686 -14 l 320 629 l 210 0 l 35 0 l 218 994 l 299 994 l 658 378 l 766 994 l 940 994 l 755 -14 m 435 1122 l 326 1122 q 387 1244 342 1194 q 491 1294 433 1294 q 593 1265 524 1294 q 677 1236 662 1236 q 720 1253 700 1236 q 743 1294 739 1271 l 852 1294 q 791 1179 840 1235 q 690 1122 743 1122 q 592 1154 668 1122 q 491 1185 516 1185 q 435 1122 453 1185 z "},"Ö":{"ha":975,"x_min":67,"x_max":960,"o":"m 67 370 q 212 823 67 635 q 589 1011 357 1011 q 863 917 767 1011 q 960 643 960 822 q 812 166 960 349 q 407 -17 664 -17 q 158 89 250 -17 q 67 370 67 195 m 250 388 q 296 205 250 273 q 429 138 341 138 q 684 283 590 138 q 777 629 777 428 q 576 857 777 857 q 343 708 435 857 q 250 388 250 559 m 670 1201 q 701 1256 670 1236 q 770 1277 731 1277 q 840 1256 809 1277 q 870 1201 870 1234 q 840 1145 870 1166 q 770 1124 810 1124 q 700 1145 730 1124 q 670 1201 670 1166 m 349 1201 q 380 1256 349 1234 q 450 1277 410 1277 q 519 1256 488 1277 q 549 1201 549 1236 q 519 1146 549 1167 q 450 1124 488 1124 q 379 1145 410 1124 q 349 1201 349 1166 z "},"Ü":{"ha":919,"x_min":83,"x_max":952,"o":"m 825 306 q 683 68 797 153 q 401 -17 569 -17 q 172 51 260 -17 q 83 237 83 118 q 91 313 83 273 l 216 994 l 397 994 l 271 317 q 267 278 267 298 q 309 174 267 211 q 421 138 350 138 q 572 187 512 138 q 649 326 633 237 l 773 994 l 952 994 l 825 306 m 671 1201 q 701 1256 671 1236 q 770 1277 732 1277 q 840 1256 810 1277 q 871 1201 871 1234 q 841 1145 871 1166 q 770 1124 810 1124 q 701 1145 731 1124 q 671 1201 671 1166 m 350 1201 q 380 1256 350 1234 q 450 1277 411 1277 q 519 1256 489 1277 q 550 1201 550 1236 q 519 1146 550 1167 q 450 1124 489 1124 q 380 1145 410 1124 q 350 1201 350 1166 z "},"á":{"ha":823,"x_min":48,"x_max":754,"o":"m 670 260 q 665 205 665 235 q 688 0 665 56 l 583 0 q 512 73 535 0 q 296 -14 425 -14 q 113 53 178 -14 q 48 238 48 119 q 173 592 48 445 q 489 740 298 740 q 754 706 673 740 l 670 260 m 474 602 q 292 493 360 602 q 224 242 224 384 q 340 125 224 125 q 468 215 413 125 q 565 588 522 305 q 474 602 517 602 m 526 871 l 379 871 l 518 1097 l 711 1097 l 526 871 z "},"à":{"ha":823,"x_min":48,"x_max":754,"o":"m 670 260 q 665 205 665 235 q 688 0 665 56 l 583 0 q 512 73 535 0 q 296 -14 425 -14 q 113 53 178 -14 q 48 238 48 119 q 173 592 48 445 q 489 740 298 740 q 754 706 673 740 l 670 260 m 474 602 q 292 493 360 602 q 224 242 224 384 q 340 125 224 125 q 468 215 413 125 q 565 588 522 305 q 474 602 517 602 m 449 871 l 345 1097 l 535 1097 l 559 871 l 449 871 z "},"â":{"ha":823,"x_min":48,"x_max":786,"o":"m 670 260 q 665 205 665 235 q 688 0 665 56 l 583 0 q 512 73 535 0 q 296 -14 425 -14 q 113 53 178 -14 q 48 238 48 119 q 173 592 48 445 q 489 740 298 740 q 754 706 673 740 l 670 260 m 474 602 q 292 493 360 602 q 224 242 224 384 q 340 125 224 125 q 468 215 413 125 q 565 588 522 305 q 474 602 517 602 m 595 871 l 515 968 l 386 869 l 202 869 l 495 1112 l 589 1112 l 786 871 l 595 871 z "},"ä":{"ha":823,"x_min":48,"x_max":763,"o":"m 670 260 q 665 205 665 235 q 688 0 665 56 l 583 0 q 512 73 535 0 q 296 -14 425 -14 q 113 53 178 -14 q 48 238 48 119 q 173 592 48 445 q 489 740 298 740 q 754 706 673 740 l 670 260 m 474 602 q 292 493 360 602 q 224 242 224 384 q 340 125 224 125 q 468 215 413 125 q 565 588 522 305 q 474 602 517 602 m 563 950 q 593 1005 563 985 q 663 1026 624 1026 q 732 1005 702 1026 q 763 950 763 983 q 733 895 763 916 q 663 873 703 873 q 593 895 623 873 q 563 950 563 916 m 242 950 q 273 1005 242 983 q 342 1026 303 1026 q 412 1005 381 1026 q 442 950 442 985 q 412 895 442 916 q 342 873 381 873 q 272 895 302 873 q 242 950 242 916 z "},"ã":{"ha":823,"x_min":48,"x_max":754,"o":"m 670 260 q 665 205 665 235 q 688 0 665 56 l 583 0 q 512 73 535 0 q 296 -14 425 -14 q 113 53 178 -14 q 48 238 48 119 q 173 592 48 445 q 489 740 298 740 q 754 706 673 740 l 670 260 m 474 602 q 292 493 360 602 q 224 242 224 384 q 340 125 224 125 q 468 215 413 125 q 565 588 522 305 q 474 602 517 602 m 328 871 l 220 871 q 281 993 235 943 q 385 1043 326 1043 q 487 1014 418 1043 q 571 985 555 985 q 613 1002 593 985 q 636 1043 633 1020 l 746 1043 q 685 928 733 984 q 583 871 637 871 q 486 903 562 871 q 385 935 410 935 q 328 871 347 935 z "},"å":{"ha":823,"x_min":48,"x_max":754,"o":"m 670 260 q 665 205 665 235 q 688 0 665 56 l 583 0 q 512 73 535 0 q 296 -14 425 -14 q 113 53 178 -14 q 48 238 48 119 q 173 592 48 445 q 489 740 298 740 q 754 706 673 740 l 670 260 m 474 602 q 292 493 360 602 q 224 242 224 384 q 340 125 224 125 q 468 215 413 125 q 565 588 522 305 q 474 602 517 602 m 523 871 q 406 912 456 871 q 355 1014 355 953 q 406 1115 355 1075 q 523 1156 456 1156 q 640 1116 591 1156 q 690 1014 690 1076 q 640 912 690 952 q 523 871 590 871 m 525 1074 q 465 1056 490 1074 q 439 1011 439 1038 q 465 967 439 985 q 525 949 490 949 q 585 967 559 949 q 611 1011 611 985 q 585 1056 611 1038 q 525 1074 559 1074 z "},"ç":{"ha":684,"x_min":51,"x_max":663,"o":"m 629 547 q 485 599 557 599 q 297 512 368 599 q 227 294 227 425 q 267 178 227 226 q 370 130 307 130 q 583 207 460 130 l 563 30 q 349 -14 459 -14 q 131 63 212 -14 q 51 273 51 139 q 168 608 51 475 q 475 740 286 740 q 663 695 584 740 l 629 547 m 165 -305 l 165 -222 q 191 -225 177 -225 q 264 -208 231 -225 q 307 -152 307 -187 q 288 -108 307 -128 q 244 -87 268 -88 l 286 -29 q 442 -155 442 -39 q 368 -275 442 -233 q 224 -309 308 -309 q 165 -305 214 -309 z "},"é":{"ha":766,"x_min":56,"x_max":749,"o":"m 233 315 q 231 285 231 298 q 276 168 231 209 q 401 127 321 127 q 500 151 444 127 q 587 203 555 174 l 568 25 q 357 -14 481 -14 q 140 71 223 -14 q 56 304 56 156 q 177 615 56 491 q 492 740 297 740 q 677 691 606 740 q 749 553 749 643 q 643 360 749 430 q 381 290 536 290 q 233 315 305 290 m 265 444 q 361 431 309 431 q 517 459 453 431 q 581 540 581 487 q 452 599 581 599 q 348 554 401 599 q 265 444 295 510 m 512 871 l 366 871 l 505 1097 l 697 1097 l 512 871 z "},"è":{"ha":766,"x_min":56,"x_max":749,"o":"m 233 315 q 231 285 231 298 q 276 168 231 209 q 401 127 321 127 q 500 151 444 127 q 587 203 555 174 l 568 25 q 357 -14 481 -14 q 140 71 223 -14 q 56 304 56 156 q 177 615 56 491 q 492 740 297 740 q 677 691 606 740 q 749 553 749 643 q 643 360 749 430 q 381 290 536 290 q 233 315 305 290 m 265 444 q 361 431 309 431 q 517 459 453 431 q 581 540 581 487 q 452 599 581 599 q 348 554 401 599 q 265 444 295 510 m 459 871 l 355 1097 l 545 1097 l 569 871 l 459 871 z "},"ê":{"ha":766,"x_min":56,"x_max":796,"o":"m 233 315 q 231 285 231 298 q 276 168 231 209 q 401 127 321 127 q 500 151 444 127 q 587 203 555 174 l 568 25 q 357 -14 481 -14 q 140 71 223 -14 q 56 304 56 156 q 177 615 56 491 q 492 740 297 740 q 677 691 606 740 q 749 553 749 643 q 643 360 749 430 q 381 290 536 290 q 233 315 305 290 m 265 444 q 361 431 309 431 q 517 459 453 431 q 581 540 581 487 q 452 599 581 599 q 348 554 401 599 q 265 444 295 510 m 606 871 l 526 968 l 396 869 l 212 869 l 505 1112 l 600 1112 l 796 871 l 606 871 z "},"ë":{"ha":766,"x_min":56,"x_max":749,"o":"m 233 315 q 231 285 231 298 q 276 168 231 209 q 401 127 321 127 q 500 151 444 127 q 587 203 555 174 l 568 25 q 357 -14 481 -14 q 140 71 223 -14 q 56 304 56 156 q 177 615 56 491 q 492 740 297 740 q 677 691 606 740 q 749 553 749 643 q 643 360 749 430 q 381 290 536 290 q 233 315 305 290 m 265 444 q 361 431 309 431 q 517 459 453 431 q 581 540 581 487 q 452 599 581 599 q 348 554 401 599 q 265 444 295 510 m 536 950 q 566 1005 536 985 q 635 1026 597 1026 q 705 1005 675 1026 q 736 950 736 983 q 706 895 736 916 q 635 873 675 873 q 566 895 596 873 q 536 950 536 916 m 215 950 q 245 1005 215 983 q 315 1026 276 1026 q 385 1005 354 1026 q 415 950 415 985 q 385 895 415 916 q 315 873 354 873 q 245 895 275 873 q 215 950 215 916 z "},"í":{"ha":454,"x_min":97,"x_max":541,"o":"m 269 0 l 97 0 l 207 590 l 114 590 l 142 726 l 405 726 l 269 0 m 355 871 l 209 871 l 348 1097 l 541 1097 l 355 871 z "},"ì":{"ha":454,"x_min":97,"x_max":405,"o":"m 269 0 l 97 0 l 207 590 l 114 590 l 142 726 l 405 726 l 269 0 m 243 871 l 139 1097 l 329 1097 l 353 871 l 243 871 z "},"î":{"ha":454,"x_min":16,"x_max":600,"o":"m 269 0 l 97 0 l 207 590 l 114 590 l 142 726 l 405 726 l 269 0 m 409 871 l 329 968 l 199 869 l 16 869 l 309 1112 l 403 1112 l 600 871 l 409 871 z "},"ï":{"ha":454,"x_min":49,"x_max":570,"o":"m 269 0 l 97 0 l 207 590 l 114 590 l 142 726 l 405 726 l 269 0 m 370 950 q 400 1005 370 985 q 469 1026 431 1026 q 539 1005 509 1026 q 570 950 570 983 q 539 895 570 916 q 469 873 509 873 q 400 895 430 873 q 370 950 370 916 m 49 950 q 79 1005 49 983 q 149 1026 110 1026 q 218 1005 188 1026 q 249 950 249 985 q 218 895 249 916 q 149 873 188 873 q 79 895 109 873 q 49 950 49 916 z "},"ñ":{"ha":781,"x_min":18,"x_max":734,"o":"m 642 0 l 467 0 l 546 423 q 555 509 555 474 q 449 599 555 599 q 286 522 358 599 l 189 0 l 18 0 l 121 545 q 123 584 123 559 q 104 713 123 644 l 270 743 l 286 662 q 510 740 375 740 q 734 530 734 740 q 724 442 734 493 l 642 0 m 300 871 l 192 871 q 253 993 208 943 q 357 1043 298 1043 q 459 1014 390 1043 q 543 985 528 985 q 585 1002 566 985 q 608 1043 605 1020 l 718 1043 q 657 928 705 984 q 555 871 609 871 q 458 903 534 871 q 357 935 382 935 q 300 871 319 935 z "},"ó":{"ha":791,"x_min":49,"x_max":765,"o":"m 49 272 q 169 604 49 469 q 473 740 289 740 q 689 667 613 740 q 765 460 765 594 q 646 123 765 259 q 340 -14 528 -14 q 125 60 202 -14 q 49 272 49 134 m 225 280 q 359 125 225 125 q 526 223 465 125 q 588 455 588 321 q 454 602 588 602 q 288 505 351 602 q 225 280 225 408 m 492 871 l 345 871 l 484 1097 l 677 1097 l 492 871 z "},"ò":{"ha":791,"x_min":49,"x_max":765,"o":"m 49 272 q 169 604 49 469 q 473 740 289 740 q 689 667 613 740 q 765 460 765 594 q 646 123 765 259 q 340 -14 528 -14 q 125 60 202 -14 q 49 272 49 134 m 225 280 q 359 125 225 125 q 526 223 465 125 q 588 455 588 321 q 454 602 588 602 q 288 505 351 602 q 225 280 225 408 m 432 871 l 328 1097 l 518 1097 l 542 871 l 432 871 z "},"ô":{"ha":791,"x_min":49,"x_max":765,"o":"m 49 272 q 169 604 49 469 q 473 740 289 740 q 689 667 613 740 q 765 460 765 594 q 646 123 765 259 q 340 -14 528 -14 q 125 60 202 -14 q 49 272 49 134 m 225 280 q 359 125 225 125 q 526 223 465 125 q 588 455 588 321 q 454 602 588 602 q 288 505 351 602 q 225 280 225 408 m 572 871 l 492 968 l 362 869 l 178 869 l 471 1112 l 566 1112 l 762 871 l 572 871 z "},"ö":{"ha":791,"x_min":49,"x_max":765,"o":"m 49 272 q 169 604 49 469 q 473 740 289 740 q 689 667 613 740 q 765 460 765 594 q 646 123 765 259 q 340 -14 528 -14 q 125 60 202 -14 q 49 272 49 134 m 225 280 q 359 125 225 125 q 526 223 465 125 q 588 455 588 321 q 454 602 588 602 q 288 505 351 602 q 225 280 225 408 m 536 950 q 566 1005 536 985 q 635 1026 597 1026 q 705 1005 675 1026 q 736 950 736 983 q 706 895 736 916 q 635 873 675 873 q 566 895 596 873 q 536 950 536 916 m 215 950 q 245 1005 215 983 q 315 1026 276 1026 q 385 1005 354 1026 q 415 950 415 985 q 385 895 415 916 q 315 873 354 873 q 245 895 275 873 q 215 950 215 916 z "},"õ":{"ha":791,"x_min":49,"x_max":765,"o":"m 49 272 q 169 604 49 469 q 473 740 289 740 q 689 667 613 740 q 765 460 765 594 q 646 123 765 259 q 340 -14 528 -14 q 125 60 202 -14 q 49 272 49 134 m 225 280 q 359 125 225 125 q 526 223 465 125 q 588 455 588 321 q 454 602 588 602 q 288 505 351 602 q 225 280 225 408 m 318 871 l 210 871 q 271 993 225 943 q 374 1043 316 1043 q 476 1014 408 1043 q 561 985 545 985 q 603 1002 583 985 q 626 1043 623 1020 l 736 1043 q 675 928 723 984 q 573 871 627 871 q 475 903 551 871 q 374 935 399 935 q 318 871 336 935 z "},"ú":{"ha":774,"x_min":42,"x_max":765,"o":"m 629 -1 l 460 -1 l 470 52 q 242 -14 379 -14 q 95 40 149 -14 q 42 189 42 94 q 50 258 42 218 l 137 726 l 309 726 l 223 265 q 218 216 218 236 q 317 127 218 127 q 452 180 397 127 q 520 307 507 233 l 595 726 l 765 726 l 629 -1 m 498 871 l 352 871 l 491 1097 l 684 1097 l 498 871 z "},"ù":{"ha":774,"x_min":42,"x_max":765,"o":"m 629 -1 l 460 -1 l 470 52 q 242 -14 379 -14 q 95 40 149 -14 q 42 189 42 94 q 50 258 42 218 l 137 726 l 309 726 l 223 265 q 218 216 218 236 q 317 127 218 127 q 452 180 397 127 q 520 307 507 233 l 595 726 l 765 726 l 629 -1 m 415 871 l 311 1097 l 501 1097 l 525 871 l 415 871 z "},"û":{"ha":774,"x_min":42,"x_max":765,"o":"m 629 -1 l 460 -1 l 470 52 q 242 -14 379 -14 q 95 40 149 -14 q 42 189 42 94 q 50 258 42 218 l 137 726 l 309 726 l 223 265 q 218 216 218 236 q 317 127 218 127 q 452 180 397 127 q 520 307 507 233 l 595 726 l 765 726 l 629 -1 m 572 871 l 492 968 l 362 869 l 178 869 l 471 1112 l 566 1112 l 762 871 l 572 871 z "},"ü":{"ha":774,"x_min":42,"x_max":765,"o":"m 629 -1 l 460 -1 l 470 52 q 242 -14 379 -14 q 95 40 149 -14 q 42 189 42 94 q 50 258 42 218 l 137 726 l 309 726 l 223 265 q 218 216 218 236 q 317 127 218 127 q 452 180 397 127 q 520 307 507 233 l 595 726 l 765 726 l 629 -1 m 509 950 q 539 1005 509 985 q 608 1026 570 1026 q 678 1005 648 1026 q 709 950 709 983 q 679 895 709 916 q 608 873 648 873 q 539 895 569 873 q 509 950 509 916 m 188 950 q 218 1005 188 983 q 288 1026 249 1026 q 357 1005 327 1026 q 388 950 388 985 q 357 895 388 916 q 288 873 327 873 q 218 895 248 873 q 188 950 188 916 z "},"†":{"ha":637,"x_min":55,"x_max":695,"o":"m 435 602 l 300 -159 l 216 -240 l 158 -159 l 292 602 l 55 602 l 78 734 l 315 734 l 351 939 l 494 939 l 458 734 l 695 734 l 672 602 l 435 602 z "},"°":{"ha":814,"x_min":215,"x_max":549,"o":"m 215 869 q 264 971 215 931 q 382 1011 314 1011 q 500 971 450 1011 q 549 869 549 931 q 499 767 549 808 q 382 727 450 727 q 264 767 313 727 q 215 869 215 808 m 312 869 q 333 826 312 844 q 382 809 354 809 q 431 826 410 809 q 453 869 453 843 q 431 913 453 896 q 382 930 410 930 q 333 912 354 930 q 312 869 312 895 z "},"¢":{"ha":814,"x_min":130,"x_max":688,"o":"m 688 661 l 655 522 q 551 568 601 562 l 427 158 q 616 229 507 161 l 597 64 q 387 24 502 24 l 349 -103 l 241 -103 l 287 43 q 130 283 130 99 q 230 575 130 456 q 492 702 329 693 l 530 825 l 629 825 l 589 696 q 688 661 642 686 m 447 557 q 335 461 375 532 q 294 301 294 391 q 334 195 294 237 l 447 557 z "},"£":{"ha":814,"x_min":-7,"x_max":787,"o":"m 695 806 q 574 848 632 848 q 410 590 410 848 l 558 590 l 532 448 l 410 448 q 384 273 409 370 q 326 133 359 177 q 477 105 387 105 q 650 208 582 105 l 760 92 q 645 -16 726 26 q 475 -57 564 -57 q 327 -38 425 -57 q 179 -19 229 -19 q 35 -31 127 -19 l -7 104 q 50 126 19 113 q 123 160 113 152 q 148 185 134 168 q 173 225 161 202 q 198 284 185 248 q 219 363 210 320 q 227 448 227 407 l 102 448 l 127 590 l 227 590 q 610 1003 229 1003 q 787 945 713 1003 l 695 806 z "},"§":{"ha":814,"x_min":69,"x_max":720,"o":"m 639 788 q 490 856 568 856 q 371 782 371 856 q 420 726 371 747 q 579 671 540 689 q 645 617 619 652 q 671 534 671 581 q 601 376 671 446 q 653 262 653 328 q 555 61 653 138 q 316 -16 457 -16 q 69 56 162 -16 l 152 206 q 336 138 221 138 q 467 227 467 138 q 344 316 467 288 q 208 379 262 335 q 153 480 153 422 q 229 629 153 568 q 186 740 186 671 q 277 938 186 865 q 515 1010 368 1010 q 720 934 635 1010 l 639 788 m 358 581 q 323 526 323 558 q 347 479 323 501 q 484 433 371 456 q 496 492 496 464 q 488 525 496 510 q 466 549 480 539 q 439 561 451 558 l 358 581 z "},"•":{"ha":728,"x_min":172,"x_max":564,"o":"m 368 585 q 507 529 450 585 q 564 389 564 472 q 507 250 564 307 q 368 193 450 193 q 228 250 285 193 q 172 389 172 307 q 228 529 172 472 q 368 585 285 585 z "},"¶":{"ha":814,"x_min":115,"x_max":798,"o":"m 581 -170 l 442 -170 l 635 884 l 543 884 l 349 -170 l 197 -170 l 304 414 q 115 626 115 428 q 194 897 115 783 q 405 1010 274 1010 l 798 1010 l 581 -170 z "},"ß":{"ha":802,"x_min":-103,"x_max":757,"o":"m 299 2 l 356 144 q 406 136 391 136 q 531 193 486 136 q 576 342 576 251 q 563 403 576 375 q 531 448 549 431 q 453 519 512 466 q 410 607 410 561 q 446 672 410 640 l 505 722 q 538 767 527 742 q 549 819 549 791 q 471 871 549 871 q 389 831 422 871 q 335 676 356 791 l 206 -35 q 106 -217 185 -149 q -90 -285 26 -284 l -103 -169 q 39 15 10 -146 l 170 741 q 275 945 192 866 q 473 1024 357 1024 q 650 981 585 1024 q 715 854 715 937 q 696 765 715 812 q 589 625 677 719 q 757 374 757 528 q 663 98 757 209 q 418 -14 570 -14 q 299 2 342 -14 z "},"®":{"ha":990,"x_min":51,"x_max":1006,"o":"m 51 448 q 191 786 51 646 q 529 926 331 926 q 867 786 727 926 q 1006 448 1006 646 q 867 110 1006 250 q 529 -30 727 -30 q 191 110 331 -30 q 51 448 51 250 m 166 448 q 273 192 166 298 q 529 85 379 85 q 785 192 679 85 q 891 448 891 298 q 785 704 891 598 q 529 810 679 810 q 272 704 378 810 q 166 448 166 598 m 637 181 l 509 400 l 464 400 l 464 181 l 354 181 l 354 727 l 503 727 q 705 568 705 727 q 614 421 705 469 l 760 181 l 637 181 m 503 628 l 464 628 l 464 494 q 550 498 528 494 q 584 516 573 501 q 595 563 595 532 q 503 628 595 628 z "},"©":{"ha":990,"x_min":51,"x_max":1006,"o":"m 51 448 q 191 786 51 646 q 529 926 331 926 q 867 786 727 926 q 1006 448 1006 646 q 867 110 1006 250 q 529 -30 727 -30 q 191 110 331 -30 q 51 448 51 250 m 166 448 q 273 192 166 298 q 529 85 379 85 q 785 192 679 85 q 891 448 891 298 q 785 704 891 598 q 529 810 679 810 q 272 704 378 810 q 166 448 166 598 m 686 695 l 648 599 q 535 633 602 633 q 441 582 477 633 q 406 446 406 530 q 443 318 406 366 q 536 270 480 270 q 646 332 598 270 l 709 247 q 529 170 631 170 q 359 248 421 170 q 296 450 296 325 q 362 651 296 570 q 534 732 429 732 q 686 695 623 732 z "},"™":{"ha":895,"x_min":82,"x_max":939,"o":"m 338 903 l 338 500 l 230 500 l 230 903 l 82 903 l 82 998 l 574 998 l 674 690 l 772 998 l 856 998 l 939 501 l 833 501 l 789 748 l 709 498 l 640 498 l 556 751 l 515 501 l 409 501 l 475 903 l 338 903 z "},"´":{"ha":814,"x_min":335,"x_max":667,"o":"m 481 871 l 335 871 l 474 1097 l 667 1097 l 481 871 z "},"¨":{"ha":814,"x_min":232,"x_max":753,"o":"m 553 950 q 583 1005 553 985 q 652 1026 614 1026 q 722 1005 692 1026 q 753 950 753 983 q 723 895 753 916 q 652 873 692 873 q 583 895 613 873 q 553 950 553 916 m 232 950 q 262 1005 232 983 q 332 1026 293 1026 q 401 1005 371 1026 q 432 950 432 985 q 401 895 432 916 q 332 873 371 873 q 262 895 292 873 q 232 950 232 916 z "},"≠":{"ha":814,"x_min":118,"x_max":727,"o":"m 118 220 l 118 357 l 302 357 l 412 505 l 118 505 l 118 642 l 514 642 l 593 747 l 721 747 l 642 642 l 727 642 l 727 505 l 541 505 l 430 357 l 727 357 l 727 220 l 328 220 l 246 111 l 119 111 l 200 220 l 118 220 z "},"Æ":{"ha":1333,"x_min":-23,"x_max":1360,"o":"m 1331 839 l 873 839 l 831 610 l 1160 610 l 1132 463 l 804 463 l 748 155 l 1198 155 l 1169 0 l 537 0 l 574 202 l 309 202 l 185 0 l -23 0 l 634 994 l 1360 994 l 1331 839 m 376 334 l 599 334 l 694 843 l 376 334 z "},"Ø":{"ha":975,"x_min":33,"x_max":996,"o":"m 996 1011 l 895 880 q 960 643 960 789 q 812 166 960 349 q 407 -17 664 -17 q 237 24 311 -17 l 201 -24 l 33 -24 l 138 115 q 67 370 67 217 q 212 823 67 635 q 589 1011 357 1011 q 789 969 707 1011 l 822 1011 l 996 1011 m 686 833 q 576 857 642 857 q 343 708 435 857 q 250 388 250 559 q 263 279 250 328 l 686 833 m 342 160 q 429 138 378 138 q 684 283 590 138 q 777 629 777 428 q 768 715 777 677 l 342 160 z "},"∞":{"ha":814,"x_min":47,"x_max":761,"o":"m 404 359 q 235 273 327 273 q 100 323 153 273 q 47 455 47 373 q 103 582 47 529 q 233 635 159 635 q 403 558 330 635 q 576 635 475 635 q 708 585 655 635 q 761 455 761 534 q 707 322 761 372 q 567 273 653 273 q 404 359 479 273 m 471 456 q 574 383 530 383 q 648 455 648 383 q 625 507 648 486 q 567 527 602 527 q 518 504 547 527 q 471 456 488 481 m 338 456 q 270 519 287 511 q 242 527 254 527 q 161 455 161 527 q 235 383 161 383 q 338 456 279 383 z "},"±":{"ha":814,"x_min":111,"x_max":720,"o":"m 484 363 l 484 136 l 720 136 l 720 0 l 111 0 l 111 136 l 347 136 l 347 363 l 111 363 l 111 499 l 347 499 l 347 732 l 484 732 l 484 499 l 720 499 l 720 363 l 484 363 z "},"≤":{"ha":814,"x_min":111,"x_max":720,"o":"m 130 425 l 130 534 l 672 794 l 672 640 l 314 479 l 672 317 l 672 163 l 130 425 m 720 136 l 720 0 l 111 0 l 111 136 l 720 136 z "},"≥":{"ha":814,"x_min":111,"x_max":720,"o":"m 701 425 l 159 163 l 159 317 l 517 479 l 159 640 l 159 794 l 701 534 l 701 425 m 720 0 l 111 0 l 111 136 l 720 136 l 720 0 z "},"¥":{"ha":814,"x_min":97,"x_max":941,"o":"m 505 439 l 494 385 l 667 385 l 642 262 l 472 262 l 424 0 l 249 0 l 297 262 l 121 262 l 146 385 l 320 385 l 331 445 l 97 994 l 281 994 l 441 605 l 739 994 l 941 994 l 505 439 z "},"μ":{"ha":774,"x_min":-50,"x_max":765,"o":"m 628 0 l 458 0 l 470 54 q 242 -12 379 -12 q 172 -3 207 -12 l 121 -285 l -50 -285 l 137 726 l 309 726 l 223 266 q 218 217 218 237 q 317 129 218 129 q 452 181 397 129 q 520 307 507 234 l 595 726 l 765 726 l 628 0 z "},"∂":{"ha":800,"x_min":51,"x_max":769,"o":"m 505 724 q 377 845 475 789 q 203 901 279 901 l 269 1045 q 621 875 473 1045 q 769 490 769 705 q 644 133 769 280 q 324 -14 518 -14 q 122 52 193 -14 q 51 241 51 118 q 182 574 51 433 q 505 724 314 714 m 568 600 q 326 507 427 600 q 224 276 224 413 q 259 174 224 212 q 357 136 294 136 q 535 236 470 136 q 600 477 600 335 q 568 600 600 558 z "},"∑":{"ha":729,"x_min":-46,"x_max":784,"o":"m -46 -117 l -21 25 l 330 498 l 127 863 l 150 994 l 784 994 l 756 836 l 346 836 l 541 500 l 193 40 l 642 40 l 614 -117 l -46 -117 z "},"∏":{"ha":884,"x_min":33,"x_max":961,"o":"m 845 836 l 677 -115 l 500 -115 l 669 836 l 377 836 l 209 -115 l 33 -115 l 201 836 l 113 836 l 140 994 l 961 994 l 933 836 l 845 836 z "},"π":{"ha":836,"x_min":90,"x_max":866,"o":"m 772 123 l 750 -14 q 489 163 489 -14 q 523 376 489 199 l 563 585 l 375 585 l 272 0 l 100 0 l 203 585 l 90 585 l 115 726 l 866 726 l 842 585 l 734 585 l 698 389 q 670 212 670 239 q 772 123 670 123 z "},"∫":{"ha":728,"x_min":-15,"x_max":723,"o":"m -15 -201 l 53 -105 q 168 -170 105 -170 q 245 -119 216 -170 q 275 -6 275 -69 l 275 722 q 350 934 275 844 q 533 1024 425 1024 q 723 955 642 1024 l 639 859 q 526 909 599 909 q 452 871 480 909 q 423 701 423 834 l 423 16 q 360 -198 423 -112 q 189 -285 297 -285 q -15 -201 68 -285 z "},"ª":{"ha":594,"x_min":124,"x_max":566,"o":"m 548 494 l 497 494 q 417 542 439 494 q 288 484 368 484 q 167 532 210 484 q 124 661 124 579 q 203 906 124 801 q 404 1011 281 1011 q 566 987 519 1011 l 515 676 q 512 637 512 655 q 548 494 512 585 m 395 911 q 278 835 322 911 q 234 664 234 760 q 315 585 234 585 q 358 602 338 585 q 396 659 378 618 q 419 727 414 699 l 448 902 q 395 911 422 911 z "},"º":{"ha":602,"x_min":157,"x_max":604,"o":"m 157 684 q 233 913 157 814 q 427 1011 310 1011 q 558 960 512 1011 q 604 815 604 908 q 531 581 604 678 q 340 484 458 484 q 205 538 254 484 q 157 684 157 591 m 267 690 q 351 585 267 585 q 455 655 416 585 q 494 811 494 725 q 416 911 494 911 q 309 841 351 911 q 267 690 267 771 z "},"Ω":{"ha":929,"x_min":-29,"x_max":933,"o":"m 691 131 l 854 131 l 832 1 l 459 0 l 480 123 q 694 355 632 239 q 755 627 755 472 q 704 806 755 752 q 541 861 653 861 q 326 736 420 861 q 231 447 231 612 q 268 260 231 353 q 366 124 304 167 l 344 0 l -29 1 l -6 131 l 147 130 q 50 404 50 243 q 192 837 50 662 q 569 1011 334 1011 q 831 910 730 1011 q 933 644 933 809 q 691 131 933 317 z "},"æ":{"ha":1241,"x_min":45,"x_max":1227,"o":"m 692 699 l 676 625 q 966 740 787 740 q 1141 699 1073 740 q 1227 551 1227 650 q 1101 347 1227 418 q 856 288 999 288 q 711 311 779 288 q 709 286 709 298 q 748 170 709 206 q 876 133 787 133 q 981 159 922 133 q 1067 214 1037 184 l 1046 26 q 832 -14 959 -14 q 683 12 736 -14 q 591 100 629 37 q 603 0 590 85 l 540 0 q 471 102 494 0 q 282 -14 398 -14 q 106 60 170 -14 q 45 239 45 129 q 170 587 45 439 q 489 740 300 740 q 692 699 595 740 m 1052 532 q 954 593 1052 593 q 833 552 892 593 q 745 445 775 511 q 836 433 785 433 q 1052 532 1052 433 m 561 568 q 494 596 538 596 q 302 494 379 596 q 229 261 229 396 q 310 130 229 130 q 501 330 408 130 q 542 467 528 403 l 561 568 z "},"ø":{"ha":791,"x_min":-1,"x_max":804,"o":"m 804 740 l 715 637 q 765 460 765 568 q 646 123 765 259 q 340 -14 528 -14 q 179 22 245 -14 l 140 -24 l -1 -24 l 99 92 q 49 272 49 162 q 169 604 49 469 q 473 740 289 740 q 634 706 568 740 l 664 740 l 804 740 m 529 585 q 454 602 499 602 q 288 505 351 602 q 225 280 225 408 q 228 239 225 258 l 529 585 m 284 142 q 359 125 314 125 q 526 223 465 125 q 588 455 588 321 q 586 490 588 473 l 284 142 z "},"¿":{"ha":510,"x_min":-50,"x_max":454,"o":"m 340 522 q 261 553 294 522 q 227 631 227 585 q 260 708 227 677 q 340 740 294 740 q 420 708 387 740 q 454 631 454 677 q 420 553 454 585 q 340 522 387 522 m 405 -218 q 170 -285 328 -285 q 10 -231 70 -285 q -50 -83 -50 -176 q 37 125 -50 33 l 191 258 q 264 342 241 302 q 286 422 286 382 l 286 445 l 385 445 q 391 407 386 435 q 396 363 396 379 q 323 192 396 274 l 211 86 q 148 18 165 43 q 122 -31 130 -7 q 113 -77 113 -54 q 209 -151 113 -151 q 347 -103 284 -151 l 405 -218 z "},"¡":{"ha":510,"x_min":35,"x_max":420,"o":"m 307 522 q 227 553 260 522 q 193 631 193 585 q 227 708 193 677 q 307 740 260 740 q 387 708 353 740 q 420 631 420 677 q 386 553 420 585 q 307 522 353 522 m 320 439 l 313 250 q 304 112 311 176 q 289 0 298 49 l 236 -285 l 35 -285 l 73 -61 q 143 175 82 -9 l 231 439 l 320 439 z "},"¬":{"ha":814,"x_min":111,"x_max":720,"o":"m 720 655 l 720 278 l 584 278 l 584 519 l 111 519 l 111 655 l 720 655 z "},"√":{"ha":814,"x_min":-6,"x_max":823,"o":"m 536 879 l 275 0 l 154 0 l -6 197 l 93 277 l 182 164 l 429 998 l 823 998 l 823 879 l 536 879 z "},"ƒ":{"ha":814,"x_min":121,"x_max":827,"o":"m 793 862 q 699 886 738 886 q 564 726 601 886 l 731 726 l 714 590 l 543 590 l 435 -46 q 339 -217 417 -150 q 157 -285 261 -284 l 121 -172 q 208 -124 169 -161 q 255 -39 246 -87 l 368 590 l 266 590 l 288 726 l 389 726 q 707 1024 458 1024 q 827 995 777 1024 l 793 862 z "},"≈":{"ha":814,"x_min":116,"x_max":673,"o":"m 215 420 l 116 420 q 169 551 130 501 q 265 601 208 601 q 330 594 298 601 q 464 556 363 587 q 513 549 492 549 q 572 601 554 549 l 673 601 q 609 458 646 496 q 516 420 572 420 q 451 427 484 420 q 353 453 418 433 q 275 472 288 472 q 215 420 240 472 m 215 155 l 116 155 q 169 287 130 237 q 265 336 208 336 q 330 330 298 336 q 464 292 363 323 q 513 284 492 284 q 572 336 554 284 l 673 336 q 609 194 646 232 q 516 155 572 155 q 451 162 484 155 q 353 188 418 169 q 275 208 288 208 q 215 155 240 208 z "},"Δ":{"ha":812,"x_min":-22,"x_max":817,"o":"m -22 0 l -3 104 l 517 994 l 643 994 l 817 104 l 799 0 l -22 0 m 528 730 l 202 150 l 636 150 l 528 730 z "},"«":{"ha":728,"x_min":67,"x_max":655,"o":"m 67 352 l 67 417 l 349 610 l 349 477 l 220 382 l 349 298 l 349 164 l 67 352 m 374 352 l 374 417 l 655 610 l 655 477 l 527 382 l 655 298 l 655 164 l 374 352 z "},"»":{"ha":728,"x_min":128,"x_max":682,"o":"m 128 164 l 128 298 l 256 382 l 128 477 l 128 610 l 410 417 l 410 352 l 128 164 m 401 164 l 401 298 l 529 382 l 401 477 l 401 610 l 682 417 l 682 352 l 401 164 z "},"…":{"ha":1020,"x_min":68,"x_max":952,"o":"m 271 89 q 241 17 271 47 q 170 -14 212 -14 q 98 17 127 -14 q 68 89 68 47 q 98 161 68 131 q 170 191 127 191 q 241 161 212 191 q 271 89 271 131 m 612 89 q 582 17 612 47 q 510 -14 552 -14 q 438 17 468 -14 q 408 89 408 47 q 438 161 408 131 q 510 191 468 191 q 582 161 552 191 q 612 89 612 131 m 952 89 q 922 17 952 47 q 850 -14 892 -14 q 779 17 808 -14 q 749 89 749 47 q 779 161 749 131 q 850 191 808 191 q 922 161 892 191 q 952 89 952 131 z "}," ":{"ha":418,"x_min":0,"x_max":0,"o":""},"À":{"ha":852,"x_min":-64,"x_max":806,"o":"m 623 0 l 591 202 l 236 202 l 119 0 l -64 0 l 539 1007 l 602 1007 l 806 0 l 623 0 m 515 705 l 311 334 l 572 334 l 515 705 m 499 1075 l 395 1301 l 585 1301 l 609 1075 l 499 1075 z "},"Ã":{"ha":852,"x_min":-64,"x_max":817,"o":"m 623 0 l 591 202 l 236 202 l 119 0 l -64 0 l 539 1007 l 602 1007 l 806 0 l 623 0 m 515 705 l 311 334 l 572 334 l 515 705 m 399 1122 l 290 1122 q 351 1244 306 1194 q 455 1294 397 1294 q 557 1265 488 1294 q 642 1236 626 1236 q 684 1253 664 1236 q 707 1294 703 1271 l 817 1294 q 755 1179 804 1235 q 654 1122 707 1122 q 556 1154 632 1122 q 455 1185 480 1185 q 399 1122 417 1185 z "},"Õ":{"ha":975,"x_min":67,"x_max":960,"o":"m 67 370 q 212 823 67 635 q 589 1011 357 1011 q 863 917 767 1011 q 960 643 960 822 q 812 166 960 349 q 407 -17 664 -17 q 158 89 250 -17 q 67 370 67 195 m 250 388 q 296 205 250 273 q 429 138 341 138 q 684 283 590 138 q 777 629 777 428 q 576 857 777 857 q 343 708 435 857 q 250 388 250 559 m 415 1122 l 307 1122 q 368 1244 322 1194 q 471 1294 413 1294 q 573 1265 505 1294 q 658 1236 642 1236 q 700 1253 680 1236 q 723 1294 720 1271 l 833 1294 q 772 1179 820 1235 q 670 1122 724 1122 q 572 1154 648 1122 q 471 1185 496 1185 q 415 1122 433 1185 z "},"Œ":{"ha":1470,"x_min":67,"x_max":1497,"o":"m 1468 839 l 1010 839 l 968 610 l 1297 610 l 1269 463 l 943 463 l 885 155 l 1335 155 l 1306 0 l 674 0 l 684 55 q 407 -17 559 -17 q 158 89 249 -17 q 67 370 67 195 q 212 823 67 635 q 589 1011 356 1011 q 846 932 747 1011 l 857 994 l 1497 994 l 1468 839 m 250 388 q 296 204 250 271 q 429 138 342 138 q 684 283 590 138 q 777 629 777 428 q 576 857 777 857 q 343 709 435 857 q 250 388 250 560 z "},"œ":{"ha":1289,"x_min":49,"x_max":1271,"o":"m 755 315 q 753 285 753 298 q 794 165 753 202 q 924 127 834 127 q 1020 150 966 127 q 1109 203 1074 172 l 1090 25 q 880 -14 1003 -14 q 624 100 696 -14 q 340 -14 506 -14 q 125 60 202 -14 q 49 272 49 134 q 169 604 49 468 q 473 740 288 740 q 718 633 641 740 q 1014 740 838 740 q 1201 691 1131 740 q 1271 553 1271 642 q 1164 360 1271 430 q 903 290 1058 290 q 755 315 829 290 m 225 280 q 359 125 225 125 q 526 223 464 125 q 588 455 588 322 q 454 602 588 602 q 288 505 351 602 q 225 280 225 408 m 787 444 q 883 431 831 431 q 1039 459 976 431 q 1103 540 1103 487 q 974 599 1103 599 q 869 548 926 599 q 787 444 812 498 z "},"–":{"ha":510,"x_min":43,"x_max":437,"o":"m 43 340 l 43 477 l 437 477 l 437 340 l 43 340 z "},"—":{"ha":1020,"x_min":43,"x_max":971,"o":"m 43 340 l 43 477 l 971 477 l 971 340 l 43 340 z "},"“":{"ha":814,"x_min":190,"x_max":772,"o":"m 772 949 q 707 899 722 913 q 670 829 673 865 q 698 768 668 806 q 725 697 728 731 q 607 587 715 587 q 502 699 502 587 q 503 718 502 708 q 722 1024 519 905 l 772 949 m 460 949 q 395 899 410 913 q 358 829 361 865 q 386 768 356 806 q 413 697 416 731 q 295 587 404 587 q 190 699 190 587 q 191 718 190 708 q 410 1024 208 905 l 460 949 z "},"”":{"ha":814,"x_min":190,"x_max":772,"o":"m 770 894 q 551 587 754 707 l 502 663 q 566 713 551 699 q 604 783 600 746 q 576 843 606 806 q 549 914 546 880 q 667 1024 558 1024 q 772 913 772 1024 q 770 894 772 903 m 458 894 q 239 587 442 707 l 190 663 q 254 713 239 699 q 292 783 288 746 q 264 843 294 806 q 237 914 234 880 q 355 1024 246 1024 q 460 913 460 1024 q 458 894 460 903 z "},"‘":{"ha":510,"x_min":190,"x_max":460,"o":"m 460 949 q 395 899 410 913 q 358 829 361 865 q 386 768 356 806 q 413 697 416 731 q 295 587 404 587 q 190 699 190 587 q 191 718 190 708 q 410 1024 208 905 l 460 949 z "},"’":{"ha":510,"x_min":190,"x_max":460,"o":"m 458 894 q 239 587 442 707 l 190 663 q 254 713 239 699 q 292 783 288 746 q 264 843 294 806 q 237 914 234 880 q 355 1024 246 1024 q 460 913 460 1024 q 458 894 460 903 z "},"÷":{"ha":814,"x_min":111,"x_max":720,"o":"m 517 692 q 488 620 517 650 q 416 589 458 589 q 344 620 374 589 q 314 692 314 650 q 344 764 314 734 q 416 793 374 793 q 488 764 458 793 q 517 692 517 734 m 720 499 l 720 363 l 111 363 l 111 499 l 720 499 m 517 156 q 488 84 517 114 q 416 54 458 54 q 344 84 374 54 q 314 156 314 114 q 344 228 314 198 q 416 258 374 258 q 488 228 458 258 q 517 156 517 198 z "},"◊":{"ha":833,"x_min":-3,"x_max":834,"o":"m 416 12 l -3 431 l 416 849 l 834 431 l 416 12 m 416 681 l 165 431 l 416 180 l 665 431 l 416 681 z "},"ÿ":{"ha":783,"x_min":28,"x_max":803,"o":"m 420 -73 q 28 -285 319 -283 l 28 -121 q 275 3 220 -121 l 310 84 q 184 279 217 111 l 98 726 l 277 726 q 378 228 356 249 l 611 726 l 803 726 l 420 -73 m 553 950 q 583 1005 553 985 q 652 1026 614 1026 q 722 1005 692 1026 q 753 950 753 983 q 723 895 753 916 q 652 873 692 873 q 583 895 613 873 q 553 950 553 916 m 232 950 q 262 1005 232 983 q 332 1026 293 1026 q 401 1005 371 1026 q 432 950 432 985 q 401 895 432 916 q 332 873 371 873 q 262 895 292 873 q 232 950 232 916 z "},"Ÿ":{"ha":949,"x_min":168,"x_max":1010,"o":"m 575 439 l 494 0 l 319 0 l 401 445 l 168 994 l 351 994 l 511 605 l 809 994 l 1010 994 l 575 439 m 654 1201 q 685 1256 654 1236 q 754 1277 715 1277 q 824 1256 793 1277 q 854 1201 854 1234 q 824 1145 854 1166 q 754 1124 794 1124 q 685 1145 715 1124 q 654 1201 654 1166 m 334 1201 q 364 1256 334 1234 q 434 1277 395 1277 q 503 1256 473 1277 q 534 1201 534 1236 q 503 1146 534 1167 q 434 1124 473 1124 q 364 1145 394 1124 q 334 1201 334 1166 z "},"⁄":{"ha":814,"x_min":46,"x_max":772,"o":"m 174 -24 l 46 -24 l 646 1011 l 772 1011 l 174 -24 z "},"€":{"ha":814,"x_min":26,"x_max":801,"o":"m 26 352 l 26 454 l 105 454 q 122 562 111 509 l 26 562 l 26 665 l 153 665 q 323 912 212 821 q 606 1010 444 1010 q 801 971 715 1010 l 742 814 q 598 857 680 857 q 334 665 433 857 l 683 665 l 649 562 l 294 562 q 272 454 278 509 l 608 454 l 568 352 l 269 352 q 324 200 278 257 q 463 138 375 138 q 685 222 604 138 l 685 54 q 431 -17 611 -17 q 191 88 282 -17 q 100 352 104 190 l 26 352 z "},"‹":{"ha":510,"x_min":96,"x_max":377,"o":"m 96 352 l 96 417 l 377 610 l 377 477 l 249 382 l 377 298 l 377 164 l 96 352 z "},"›":{"ha":510,"x_min":123,"x_max":404,"o":"m 123 164 l 123 298 l 251 382 l 123 477 l 123 610 l 404 417 l 404 352 l 123 164 z "},"ﬁ":{"ha":929,"x_min":-42,"x_max":915,"o":"m 694 960 q 726 1035 694 1005 q 804 1065 758 1065 q 882 1035 850 1065 q 915 960 915 1005 q 882 884 915 915 q 804 854 850 854 q 726 884 759 854 q 694 960 694 914 m 744 0 l 572 0 l 682 590 l 380 590 l 272 -46 q 176 -217 254 -149 q -6 -285 98 -284 l -42 -172 q 45 -124 6 -161 q 92 -39 83 -87 l 205 590 l 103 590 l 125 726 l 226 726 q 544 1024 296 1024 q 664 995 614 1024 l 630 862 q 536 886 575 886 q 401 726 438 886 l 880 726 l 744 0 z "},"ﬂ":{"ha":895,"x_min":-42,"x_max":909,"o":"m 825 57 q 704 -7 785 -7 q 608 33 643 -7 q 572 137 572 73 q 605 375 572 220 l 699 829 q 536 886 631 886 q 401 726 438 886 l 568 726 l 551 590 l 380 590 l 272 -46 q 176 -217 254 -149 q -6 -285 98 -284 l -42 -172 q 45 -124 6 -161 q 92 -39 83 -87 l 205 590 l 103 590 l 125 726 l 226 726 q 544 1024 296 1024 q 650 1007 594 1024 q 729 970 707 990 l 730 970 l 741 1024 l 909 1024 l 770 348 q 740 142 740 203 q 764 80 740 102 q 825 57 789 57 z "},"‡":{"ha":637,"x_min":-24,"x_max":696,"o":"m 355 150 l 300 -159 l 213 -245 l 159 -159 l 213 150 l -24 150 l -1 281 l 236 281 l 292 602 l 55 602 l 79 734 l 316 734 l 352 939 l 494 939 l 458 734 l 696 734 l 672 602 l 435 602 l 378 281 l 616 281 l 593 150 l 355 150 z "},"∙":{"ha":510,"x_min":164,"x_max":368,"o":"m 266 564 q 338 534 309 564 q 368 462 368 505 q 338 389 368 419 q 266 359 309 359 q 194 390 224 359 q 164 462 164 420 q 194 534 164 504 q 266 564 224 564 z "},"‚":{"ha":510,"x_min":61,"x_max":331,"o":"m 330 58 q 111 -249 313 -130 l 61 -174 q 125 -123 111 -138 q 163 -54 159 -90 q 135 7 165 -31 q 108 78 105 44 q 226 188 117 188 q 331 77 331 188 q 330 58 331 67 z "},"„":{"ha":814,"x_min":75,"x_max":657,"o":"m 656 58 q 437 -249 640 -130 l 387 -174 q 452 -123 437 -138 q 489 -54 486 -90 q 461 7 491 -31 q 434 78 431 44 q 552 188 444 188 q 657 77 657 188 q 656 58 657 67 m 344 58 q 125 -249 328 -130 l 75 -174 q 140 -123 125 -138 q 177 -54 174 -90 q 149 7 179 -31 q 122 78 119 44 q 240 188 132 188 q 345 77 345 188 q 344 58 345 67 z "},"‰":{"ha":1448,"x_min":30,"x_max":1401,"o":"m 96 696 q 170 920 96 828 q 363 1011 244 1011 q 532 829 532 1011 q 459 611 532 701 q 271 521 387 521 q 96 696 96 521 m 231 718 q 284 632 231 632 q 370 688 340 632 q 400 824 400 745 q 342 900 400 900 q 261 845 291 900 q 231 718 231 789 m 171 -14 l 30 -14 l 837 1011 l 977 1011 l 171 -14 m 483 163 q 557 386 483 295 q 751 477 631 477 q 920 294 920 477 q 847 76 920 166 q 658 -14 774 -14 q 483 163 483 -14 m 618 184 q 671 98 618 98 q 757 153 727 98 q 787 290 787 208 q 729 366 787 366 q 648 311 678 366 q 618 184 618 256 m 964 163 q 1039 386 964 295 q 1232 477 1113 477 q 1401 294 1401 477 q 1328 76 1401 166 q 1139 -14 1255 -14 q 964 163 964 -14 m 1099 184 q 1153 98 1099 98 q 1239 153 1208 98 q 1269 290 1269 208 q 1211 366 1269 366 q 1129 311 1160 366 q 1099 184 1099 256 z "},"Â":{"ha":852,"x_min":-64,"x_max":829,"o":"m 623 0 l 591 202 l 236 202 l 119 0 l -64 0 l 539 1007 l 602 1007 l 806 0 l 623 0 m 515 705 l 311 334 l 572 334 l 515 705 m 639 1063 l 559 1160 l 429 1061 l 245 1061 l 538 1304 l 633 1304 l 829 1063 l 639 1063 z "},"Ê":{"ha":824,"x_min":28,"x_max":851,"o":"m 822 839 l 364 839 l 323 610 l 651 610 l 623 463 l 295 463 l 239 155 l 690 155 l 661 0 l 28 0 l 212 994 l 851 994 l 822 839 m 648 1063 l 568 1160 l 439 1061 l 255 1061 l 548 1304 l 642 1304 l 839 1063 l 648 1063 z "},"Á":{"ha":852,"x_min":-64,"x_max":806,"o":"m 623 0 l 591 202 l 236 202 l 119 0 l -64 0 l 539 1007 l 602 1007 l 806 0 l 623 0 m 515 705 l 311 334 l 572 334 l 515 705 m 583 1075 l 436 1075 l 575 1301 l 768 1301 l 583 1075 z "},"Ë":{"ha":824,"x_min":28,"x_max":851,"o":"m 822 839 l 364 839 l 323 610 l 651 610 l 623 463 l 295 463 l 239 155 l 690 155 l 661 0 l 28 0 l 212 994 l 851 994 l 822 839 m 602 1201 q 633 1256 602 1236 q 702 1277 663 1277 q 772 1256 741 1277 q 802 1201 802 1234 q 772 1145 802 1166 q 702 1124 742 1124 q 632 1145 663 1124 q 602 1201 602 1166 m 281 1201 q 312 1256 281 1234 q 382 1277 342 1277 q 451 1256 420 1277 q 481 1201 481 1236 q 451 1146 481 1167 q 382 1124 420 1124 q 312 1145 342 1124 q 281 1201 281 1166 z "},"È":{"ha":824,"x_min":28,"x_max":851,"o":"m 822 839 l 364 839 l 323 610 l 651 610 l 623 463 l 295 463 l 239 155 l 690 155 l 661 0 l 28 0 l 212 994 l 851 994 l 822 839 m 475 1075 l 371 1301 l 561 1301 l 585 1075 l 475 1075 z "},"Í":{"ha":387,"x_min":46,"x_max":538,"o":"m 223 0 l 46 0 l 229 994 l 406 994 l 223 0 m 353 1075 l 206 1075 l 345 1301 l 538 1301 l 353 1075 z "},"Î":{"ha":387,"x_min":29,"x_max":613,"o":"m 223 0 l 46 0 l 229 994 l 406 994 l 223 0 m 422 1063 l 342 1160 l 213 1061 l 29 1061 l 322 1304 l 416 1304 l 613 1063 l 422 1063 z "},"Ï":{"ha":387,"x_min":46,"x_max":604,"o":"m 223 0 l 46 0 l 229 994 l 406 994 l 223 0 m 404 1201 q 434 1256 404 1236 q 503 1277 465 1277 q 573 1256 543 1277 q 604 1201 604 1234 q 573 1145 604 1166 q 503 1124 543 1124 q 434 1145 464 1124 q 404 1201 404 1166 m 83 1201 q 113 1256 83 1234 q 183 1277 144 1277 q 252 1256 222 1277 q 283 1201 283 1236 q 252 1146 283 1167 q 183 1124 222 1124 q 113 1145 143 1124 q 83 1201 83 1166 z "},"Ì":{"ha":387,"x_min":46,"x_max":406,"o":"m 223 0 l 46 0 l 229 994 l 406 994 l 223 0 m 271 1075 l 167 1301 l 357 1301 l 380 1075 l 271 1075 z "},"Ó":{"ha":975,"x_min":67,"x_max":960,"o":"m 67 370 q 212 823 67 635 q 589 1011 357 1011 q 863 917 767 1011 q 960 643 960 822 q 812 166 960 349 q 407 -17 664 -17 q 158 89 250 -17 q 67 370 67 195 m 250 388 q 296 205 250 273 q 429 138 341 138 q 684 283 590 138 q 777 629 777 428 q 576 857 777 857 q 343 708 435 857 q 250 388 250 559 m 634 1075 l 488 1075 l 627 1301 l 819 1301 l 634 1075 z "},"Ô":{"ha":975,"x_min":67,"x_max":960,"o":"m 67 370 q 212 823 67 635 q 589 1011 357 1011 q 863 917 767 1011 q 960 643 960 822 q 812 166 960 349 q 407 -17 664 -17 q 158 89 250 -17 q 67 370 67 195 m 250 388 q 296 205 250 273 q 429 138 341 138 q 684 283 590 138 q 777 629 777 428 q 576 857 777 857 q 343 708 435 857 q 250 388 250 559 m 696 1063 l 616 1160 l 486 1061 l 302 1061 l 595 1304 l 690 1304 l 886 1063 l 696 1063 z "},"Ò":{"ha":975,"x_min":67,"x_max":960,"o":"m 67 370 q 212 823 67 635 q 589 1011 357 1011 q 863 917 767 1011 q 960 643 960 822 q 812 166 960 349 q 407 -17 664 -17 q 158 89 250 -17 q 67 370 67 195 m 250 388 q 296 205 250 273 q 429 138 341 138 q 684 283 590 138 q 777 629 777 428 q 576 857 777 857 q 343 708 435 857 q 250 388 250 559 m 549 1075 l 446 1301 l 635 1301 l 659 1075 l 549 1075 z "},"Ú":{"ha":919,"x_min":83,"x_max":952,"o":"m 825 306 q 683 68 797 153 q 401 -17 569 -17 q 172 51 260 -17 q 83 237 83 118 q 91 313 83 273 l 216 994 l 397 994 l 271 317 q 267 278 267 298 q 309 174 267 211 q 421 138 350 138 q 572 187 512 138 q 649 326 633 237 l 773 994 l 952 994 l 825 306 m 647 1075 l 500 1075 l 640 1301 l 832 1301 l 647 1075 z "},"Û":{"ha":919,"x_min":83,"x_max":952,"o":"m 825 306 q 683 68 797 153 q 401 -17 569 -17 q 172 51 260 -17 q 83 237 83 118 q 91 313 83 273 l 216 994 l 397 994 l 271 317 q 267 278 267 298 q 309 174 267 211 q 421 138 350 138 q 572 187 512 138 q 649 326 633 237 l 773 994 l 952 994 l 825 306 m 703 1063 l 623 1160 l 494 1061 l 310 1061 l 603 1304 l 697 1304 l 894 1063 l 703 1063 z "},"Ù":{"ha":919,"x_min":83,"x_max":952,"o":"m 825 306 q 683 68 797 153 q 401 -17 569 -17 q 172 51 260 -17 q 83 237 83 118 q 91 313 83 273 l 216 994 l 397 994 l 271 317 q 267 278 267 298 q 309 174 267 211 q 421 138 350 138 q 572 187 512 138 q 649 326 633 237 l 773 994 l 952 994 l 825 306 m 543 1075 l 439 1301 l 629 1301 l 653 1075 l 543 1075 z "},"ı":{"ha":454,"x_min":97,"x_max":405,"o":"m 269 0 l 97 0 l 207 590 l 114 590 l 142 726 l 405 726 l 269 0 z "},"ˆ":{"ha":814,"x_min":178,"x_max":762,"o":"m 572 871 l 492 968 l 362 869 l 178 869 l 471 1112 l 566 1112 l 762 871 l 572 871 z "},"˜":{"ha":814,"x_min":264,"x_max":790,"o":"m 372 871 l 264 871 q 325 993 279 943 q 429 1043 370 1043 q 531 1014 462 1043 q 615 985 600 985 q 657 1002 637 985 q 680 1043 677 1020 l 790 1043 q 729 928 777 984 q 627 871 681 871 q 530 903 606 871 q 429 935 454 935 q 372 871 391 935 z "},"ˉ":{"ha":814,"x_min":232,"x_max":806,"o":"m 781 871 l 232 871 l 258 967 l 806 967 l 781 871 z "},"˘":{"ha":814,"x_min":295,"x_max":802,"o":"m 304 1092 l 449 1092 q 438 1042 438 1055 q 526 996 438 996 q 656 1092 636 996 l 802 1092 q 507 871 754 871 q 295 1031 295 871 q 304 1092 295 1053 z "},"˙":{"ha":814,"x_min":439,"x_max":646,"o":"m 439 951 q 471 1009 439 987 q 543 1031 502 1031 q 614 1009 582 1031 q 646 951 646 987 q 615 894 646 916 q 543 871 583 871 q 471 893 503 871 q 439 951 439 916 z "},"˚":{"ha":814,"x_min":355,"x_max":690,"o":"m 523 871 q 406 912 456 871 q 355 1014 355 953 q 406 1115 355 1075 q 523 1156 456 1156 q 640 1116 591 1156 q 690 1014 690 1076 q 640 912 690 952 q 523 871 590 871 m 525 1074 q 465 1056 490 1074 q 439 1011 439 1038 q 465 967 439 985 q 525 949 490 949 q 585 967 559 949 q 611 1011 611 985 q 585 1056 611 1038 q 525 1074 559 1074 z "},"¸":{"ha":814,"x_min":229,"x_max":507,"o":"m 229 -305 l 229 -222 q 256 -225 241 -225 q 329 -208 295 -225 q 372 -152 372 -187 q 352 -108 372 -128 q 309 -87 332 -88 l 351 -29 q 507 -155 507 -39 q 433 -275 507 -233 q 288 -309 372 -309 q 229 -305 278 -309 z "},"˝":{"ha":814,"x_min":267,"x_max":832,"o":"m 664 871 l 518 871 l 638 1063 l 832 1063 l 664 871 m 413 871 l 267 871 l 387 1063 l 581 1063 l 413 871 z "},"˛":{"ha":814,"x_min":227,"x_max":547,"o":"m 427 115 l 474 0 q 412 -39 435 -11 q 388 -98 388 -68 q 435 -128 388 -128 q 547 -87 493 -128 l 547 -226 q 409 -253 458 -253 q 279 -214 331 -253 q 227 -111 227 -176 q 427 115 227 26 z "},"ˇ":{"ha":814,"x_min":249,"x_max":833,"o":"m 534 871 l 439 871 l 249 1114 l 422 1114 l 510 1015 l 631 1112 l 833 1112 l 534 871 z "},"Ł":{"ha":734,"x_min":7,"x_max":689,"o":"m 448 602 l 311 543 l 240 155 l 689 155 l 661 0 l 34 0 l 118 459 l 7 412 l 7 526 l 141 583 l 216 994 l 394 994 l 334 667 l 448 718 l 448 602 z "},"ł":{"ha":444,"x_min":22,"x_max":452,"o":"m 323 57 q 202 -7 283 -7 q 106 33 141 -7 q 71 137 71 73 q 103 375 71 220 l 123 469 l 22 420 l 22 553 l 153 614 l 239 1024 l 408 1024 l 341 701 l 452 752 l 452 627 l 312 559 l 268 348 q 238 142 238 205 q 262 80 238 102 q 323 57 287 57 z "},"Š":{"ha":696,"x_min":29,"x_max":792,"o":"m 637 798 q 477 855 559 855 q 314 732 314 855 q 401 607 314 680 l 503 520 q 569 461 551 479 q 608 409 587 442 q 638 342 628 376 q 648 273 648 308 q 546 60 648 136 q 281 -17 444 -17 q 29 41 148 -17 l 86 215 q 297 146 177 146 q 417 177 370 146 q 465 265 465 208 q 378 389 465 321 l 272 474 q 206 531 223 513 q 170 580 189 549 q 141 645 151 612 q 132 713 132 678 q 222 930 132 850 q 460 1010 313 1010 q 585 999 509 1010 q 692 974 661 988 l 637 798 m 494 1061 l 399 1061 l 208 1304 l 381 1304 l 469 1205 l 590 1302 l 792 1302 l 494 1061 z "},"š":{"ha":637,"x_min":7,"x_max":713,"o":"m 536 528 q 387 599 455 599 q 314 579 345 599 q 283 528 283 560 q 357 450 283 488 q 470 391 431 413 q 534 331 509 369 q 559 245 559 294 q 470 56 559 125 q 240 -14 380 -14 q 7 54 121 -14 l 96 208 q 262 127 181 127 q 348 153 314 127 q 381 223 381 179 q 317 293 381 260 q 205 354 254 326 q 131 421 156 381 q 105 509 105 460 q 190 677 105 614 q 397 740 274 740 q 615 683 481 740 l 536 528 m 414 871 l 319 871 l 129 1114 l 302 1114 l 390 1015 l 511 1112 l 713 1112 l 414 871 z "},"Ž":{"ha":849,"x_min":59,"x_max":869,"o":"m 327 155 l 732 155 l 703 0 l 59 0 l 59 56 l 597 839 l 189 839 l 217 994 l 846 994 l 846 937 l 327 155 m 571 1061 l 476 1061 l 286 1304 l 458 1304 l 547 1205 l 667 1302 l 869 1302 l 571 1061 z "},"ž":{"ha":740,"x_min":19,"x_max":755,"o":"m 303 147 l 648 147 l 620 0 l 19 0 l 19 58 l 444 579 l 87 579 l 115 726 l 720 726 l 720 666 l 303 147 m 456 871 l 361 871 l 171 1114 l 344 1114 l 432 1015 l 553 1112 l 755 1112 l 456 871 z "},"¦":{"ha":814,"x_min":342,"x_max":481,"o":"m 342 456 l 342 1024 l 481 1024 l 481 456 l 342 456 m 342 -285 l 342 283 l 481 283 l 481 -285 l 342 -285 z "},"Ð":{"ha":909,"x_min":24,"x_max":871,"o":"m 24 456 l 51 607 l 140 607 l 210 991 q 396 1009 309 1009 q 747 905 623 1009 q 871 605 871 802 q 707 164 871 329 q 269 0 543 0 l 29 0 l 113 456 l 24 456 m 315 607 l 500 607 l 473 456 l 289 456 l 237 158 q 291 155 267 155 q 580 283 473 155 q 687 612 687 412 q 613 789 687 722 q 423 855 539 855 q 357 848 391 855 l 315 607 z "},"ð":{"ha":791,"x_min":49,"x_max":764,"o":"m 547 732 q 492 833 512 813 l 370 777 l 336 846 l 451 900 q 351 1020 420 939 l 536 1053 q 603 970 566 1018 l 721 1027 l 761 953 l 646 899 q 732 684 700 812 q 764 434 764 555 q 644 116 764 245 q 340 -14 523 -14 q 125 60 202 -14 q 49 271 49 134 q 169 603 49 467 q 473 738 288 738 q 547 732 509 738 m 225 279 q 359 124 225 124 q 526 222 464 124 q 588 454 588 321 q 454 600 588 600 q 288 504 351 600 q 225 279 225 408 z "},"Ý":{"ha":949,"x_min":168,"x_max":1010,"o":"m 575 439 l 494 0 l 319 0 l 401 445 l 168 994 l 351 994 l 511 605 l 809 994 l 1010 994 l 575 439 m 624 1075 l 477 1075 l 616 1301 l 809 1301 l 624 1075 z "},"Þ":{"ha":780,"x_min":33,"x_max":800,"o":"m 245 202 l 209 0 l 33 0 l 215 994 l 391 994 l 369 873 q 450 879 412 879 q 706 804 612 879 q 800 589 800 728 q 690 294 800 399 q 376 189 579 189 q 245 202 314 189 m 340 718 l 274 353 q 379 339 328 339 q 555 400 492 339 q 618 572 618 461 q 576 691 618 652 q 437 729 535 729 q 340 718 393 729 z "},"þ":{"ha":831,"x_min":-17,"x_max":785,"o":"m 207 20 l 153 -285 l -17 -285 l 206 1025 l 382 1025 l 317 673 q 494 740 406 740 q 785 458 785 740 q 665 119 785 251 q 350 -14 546 -14 q 207 20 272 -14 m 297 523 l 233 164 q 332 130 267 130 q 536 211 465 130 q 607 441 607 292 q 564 552 607 510 q 447 593 522 593 q 366 571 413 593 q 297 523 319 549 z "},"−":{"ha":814,"x_min":111,"x_max":720,"o":"m 720 499 l 720 363 l 111 363 l 111 499 l 720 499 z "},"¹":{"ha":665,"x_min":316,"x_max":566,"o":"m 466 383 l 353 383 l 421 799 l 316 741 l 332 867 q 511 1002 463 932 l 566 1002 l 466 383 z "},"²":{"ha":646,"x_min":193,"x_max":594,"o":"m 385 496 l 568 496 l 549 384 l 193 384 l 193 427 l 398 687 q 479 836 479 789 q 454 885 479 867 q 394 903 429 903 q 317 842 355 903 l 237 899 q 306 980 257 949 q 409 1011 354 1011 q 542 965 490 1011 q 594 840 594 919 q 561 731 594 798 q 385 496 527 665 z "},"³":{"ha":644,"x_min":166,"x_max":581,"o":"m 500 705 q 553 594 553 667 q 315 374 553 374 q 166 443 222 374 l 220 549 q 327 482 266 482 q 439 585 439 482 q 315 656 439 656 l 332 753 q 427 779 390 753 q 464 848 464 805 q 443 889 464 874 q 392 903 421 903 q 311 866 352 903 l 256 944 q 408 1011 315 1011 q 529 967 476 1011 q 581 860 581 923 q 500 705 581 760 z "},"½":{"ha":1218,"x_min":144,"x_max":1107,"o":"m 294 383 l 182 383 l 250 799 l 144 741 l 161 867 q 339 1002 291 932 l 394 1002 l 294 383 m 342 -24 l 214 -24 l 814 1011 l 940 1011 l 342 -24 m 898 112 l 1081 112 l 1063 0 l 706 0 l 706 43 l 911 303 q 992 452 992 406 q 967 501 992 484 q 907 519 943 519 q 831 458 869 519 l 751 515 q 819 596 770 565 q 922 627 867 627 q 1056 581 1004 627 q 1107 456 1107 535 q 1074 347 1107 414 q 898 112 1040 281 z "},"¼":{"ha":1218,"x_min":156,"x_max":1117,"o":"m 306 383 l 193 383 l 261 799 l 156 741 l 172 867 q 351 1002 302 932 l 406 1002 l 306 383 m 360 -24 l 233 -24 l 832 1011 l 958 1011 l 360 -24 m 1101 157 l 1036 157 l 1010 0 l 898 0 l 923 157 l 662 157 l 674 231 l 1054 619 l 1110 619 l 1051 258 l 1117 258 l 1101 157 m 814 258 l 940 258 l 965 404 l 814 258 z "},"¾":{"ha":1218,"x_min":90,"x_max":1118,"o":"m 423 705 q 477 594 477 667 q 239 374 477 374 q 90 443 145 374 l 144 549 q 250 482 189 482 q 363 585 363 482 q 238 656 363 656 l 256 753 q 350 779 313 753 q 387 848 387 805 q 366 889 387 874 q 315 903 345 903 q 235 866 275 903 l 180 944 q 332 1011 238 1011 q 452 967 399 1011 q 505 860 505 923 q 423 705 505 760 m 403 -24 l 275 -24 l 875 1011 l 1001 1011 l 403 -24 m 1102 157 l 1036 157 l 1011 0 l 899 0 l 924 157 l 663 157 l 675 231 l 1055 619 l 1111 619 l 1052 258 l 1118 258 l 1102 157 m 815 258 l 941 258 l 966 404 l 815 258 z "},"µ":{"ha":774,"x_min":-50,"x_max":765,"o":"m 628 0 l 458 0 l 470 54 q 242 -12 379 -12 q 172 -3 207 -12 l 121 -285 l -50 -285 l 137 726 l 309 726 l 223 266 q 218 217 218 237 q 317 129 218 129 q 452 181 397 129 q 520 307 507 234 l 595 726 l 765 726 l 628 0 z "},"Ω":{"ha":929,"x_min":-29,"x_max":933,"o":"m 691 131 l 854 131 l 832 1 l 459 0 l 480 123 q 694 355 632 239 q 755 627 755 472 q 704 806 755 752 q 541 861 653 861 q 326 736 420 861 q 231 447 231 612 q 268 260 231 353 q 366 124 304 167 l 344 0 l -29 1 l -6 131 l 147 130 q 50 404 50 243 q 192 837 50 662 q 569 1011 334 1011 q 831 910 730 1011 q 933 644 933 809 q 691 131 933 317 z "},"∆":{"ha":812,"x_min":-57,"x_max":782,"o":"m -57 0 l -39 104 l 481 994 l 608 994 l 782 104 l 764 0 l -57 0 m 493 730 l 167 150 l 601 150 l 493 730 z "},"ý":{"ha":783,"x_min":28,"x_max":803,"o":"m 420 -73 q 28 -285 319 -283 l 28 -121 q 275 3 220 -121 l 310 84 q 184 279 217 111 l 98 726 l 277 726 q 378 228 356 249 l 611 726 l 803 726 l 420 -73 m 481 871 l 335 871 l 474 1097 l 667 1097 l 481 871 z "},"×":{"ha":814,"x_min":104,"x_max":730,"o":"m 515 427 l 728 213 l 631 117 l 418 330 l 203 115 l 106 211 l 321 426 l 104 644 l 200 740 l 418 522 l 633 737 l 730 642 l 515 427 z "},"­":{"ha":510,"x_min":60,"x_max":447,"o":"m 60 323 l 88 482 l 447 482 l 418 323 l 60 323 z "},"₣":{"ha":1225,"x_min":28,"x_max":1244,"o":"m 841 839 l 363 839 l 321 610 l 671 610 l 643 463 l 294 463 l 209 0 l 28 0 l 212 994 l 869 994 l 841 839 m 1194 554 q 1087 599 1133 599 q 967 542 1021 599 q 898 410 912 484 l 821 0 l 651 0 l 787 726 l 957 726 l 945 663 q 1145 740 1036 740 q 1244 727 1173 740 l 1194 554 z "},"Ğ":{"ha":939,"x_min":57,"x_max":899,"o":"m 817 90 q 441 -17 663 -17 q 164 93 271 -17 q 57 370 57 202 q 219 838 57 665 q 662 1010 382 1010 q 888 943 814 1010 l 835 795 q 636 856 735 856 q 349 725 457 856 q 240 396 240 593 q 307 206 240 274 q 491 138 374 138 q 661 191 588 138 l 696 388 l 559 388 l 586 536 l 899 536 l 817 90 m 394 1295 l 539 1295 q 528 1246 528 1258 q 616 1200 528 1200 q 747 1295 726 1200 l 892 1295 q 597 1075 844 1075 q 385 1235 385 1075 q 394 1295 385 1257 z "},"ğ":{"ha":743,"x_min":0,"x_max":745,"o":"m 675 600 q 690 519 690 566 q 644 336 690 413 q 493 210 598 258 q 378 145 388 162 q 450 154 424 154 q 579 107 526 154 q 633 -11 633 61 q 540 -214 633 -142 q 272 -285 448 -285 q 128 -259 206 -285 q 0 -195 50 -233 l 74 -67 q 275 -136 171 -136 q 464 -35 464 -136 q 445 1 464 -13 q 386 23 425 16 l 256 46 q 184 130 184 68 q 243 203 184 166 q 124 282 170 224 q 77 411 77 340 q 174 649 77 557 q 423 740 271 740 q 581 700 517 740 l 645 769 l 745 670 l 675 600 m 250 426 q 274 337 250 372 q 341 302 298 302 q 465 362 416 302 q 513 506 513 421 q 414 602 513 602 q 294 552 338 602 q 250 426 250 503 m 245 1092 l 391 1092 q 380 1042 380 1055 q 468 996 380 996 q 598 1092 578 996 l 743 1092 q 449 871 696 871 q 237 1031 237 871 q 245 1092 237 1053 z "},"İ":{"ha":387,"x_min":46,"x_max":443,"o":"m 223 0 l 46 0 l 229 994 l 406 994 l 223 0 m 236 1202 q 267 1260 236 1238 q 339 1282 298 1282 q 411 1260 378 1282 q 443 1202 443 1238 q 411 1145 443 1167 q 339 1122 380 1122 q 268 1144 299 1122 q 236 1202 236 1166 z "},"Ş":{"ha":696,"x_min":29,"x_max":692,"o":"m 637 798 q 477 855 559 855 q 314 732 314 855 q 401 607 314 680 l 503 520 q 569 461 551 479 q 608 409 587 442 q 638 342 628 376 q 648 273 648 308 q 546 60 648 136 q 281 -17 444 -17 q 29 41 148 -17 l 86 215 q 297 146 177 146 q 417 177 370 146 q 465 265 465 208 q 378 389 465 321 l 272 474 q 206 531 223 513 q 170 580 189 549 q 141 645 151 612 q 132 713 132 678 q 222 930 132 850 q 460 1010 313 1010 q 585 999 509 1010 q 692 974 661 988 l 637 798 m 127 -305 l 127 -222 q 154 -225 140 -225 q 227 -208 193 -225 q 270 -152 270 -187 q 250 -108 270 -128 q 207 -87 231 -88 l 249 -29 q 405 -155 405 -39 q 331 -275 405 -233 q 186 -309 271 -309 q 127 -305 176 -309 z "},"ş":{"ha":637,"x_min":7,"x_max":615,"o":"m 536 528 q 387 599 455 599 q 314 579 345 599 q 283 528 283 560 q 357 450 283 488 q 470 391 431 413 q 534 331 509 369 q 559 245 559 294 q 470 56 559 125 q 240 -14 380 -14 q 7 54 121 -14 l 96 208 q 262 127 181 127 q 348 153 314 127 q 381 223 381 179 q 317 293 381 260 q 205 354 254 326 q 131 421 156 381 q 105 509 105 460 q 190 677 105 614 q 397 740 274 740 q 615 683 481 740 l 536 528 m 75 -305 l 75 -222 q 102 -225 87 -225 q 175 -208 141 -225 q 218 -152 218 -187 q 198 -108 218 -128 q 155 -87 178 -88 l 197 -29 q 353 -155 353 -39 q 279 -275 353 -233 q 134 -309 218 -309 q 75 -305 124 -309 z "},"Ć":{"ha":851,"x_min":77,"x_max":840,"o":"m 790 802 q 618 857 713 857 q 362 712 466 857 q 259 389 259 566 q 315 206 259 275 q 472 138 372 138 q 717 222 628 138 l 713 67 q 436 -17 617 -17 q 176 89 275 -17 q 77 365 77 195 q 229 825 77 639 q 627 1010 381 1010 q 840 971 747 1010 l 790 802 m 653 1075 l 507 1075 l 646 1301 l 838 1301 l 653 1075 z "},"ć":{"ha":684,"x_min":51,"x_max":667,"o":"m 629 547 q 485 599 557 599 q 297 512 368 599 q 227 294 227 425 q 267 178 227 226 q 370 130 307 130 q 583 207 460 130 l 563 30 q 349 -14 459 -14 q 131 63 212 -14 q 51 273 51 139 q 168 608 51 475 q 475 740 286 740 q 663 695 584 740 l 629 547 m 481 871 l 335 871 l 474 1097 l 667 1097 l 481 871 z "},"Č":{"ha":851,"x_min":77,"x_max":943,"o":"m 790 802 q 618 857 713 857 q 362 712 466 857 q 259 389 259 566 q 315 206 259 275 q 472 138 372 138 q 717 222 628 138 l 713 67 q 436 -17 617 -17 q 176 89 275 -17 q 77 365 77 195 q 229 825 77 639 q 627 1010 381 1010 q 840 971 747 1010 l 790 802 m 645 1061 l 550 1061 l 359 1304 l 532 1304 l 621 1205 l 741 1302 l 943 1302 l 645 1061 z "},"č":{"ha":684,"x_min":51,"x_max":802,"o":"m 629 547 q 485 599 557 599 q 297 512 368 599 q 227 294 227 425 q 267 178 227 226 q 370 130 307 130 q 583 207 460 130 l 563 30 q 349 -14 459 -14 q 131 63 212 -14 q 51 273 51 139 q 168 608 51 475 q 475 740 286 740 q 663 695 584 740 l 629 547 m 504 871 l 409 871 l 218 1114 l 391 1114 l 479 1015 l 600 1112 l 802 1112 l 504 871 z "},"đ":{"ha":824,"x_min":43,"x_max":921,"o":"m 901 812 l 804 812 l 657 0 l 488 0 l 501 68 q 315 -14 445 -14 q 115 61 187 -14 q 43 265 43 136 q 159 607 43 473 q 468 740 275 740 q 550 726 505 740 q 616 694 595 711 l 638 812 l 454 812 l 475 914 l 657 914 l 678 1024 l 842 1024 l 823 914 l 921 914 l 901 812 m 479 597 q 293 511 362 597 q 223 292 223 425 q 360 126 223 126 q 552 362 508 126 l 585 536 q 479 597 552 597 z "},"¯":{"ha":814,"x_min":-5,"x_max":819,"o":"m -5 994 l -5 1136 l 819 1136 l 819 994 l -5 994 z "},"·":{"ha":510,"x_min":149,"x_max":365,"o":"m 149 467 q 181 544 149 512 q 257 575 212 575 q 333 544 302 575 q 365 467 365 512 q 333 391 365 422 q 257 359 302 359 q 181 391 212 359 q 149 467 149 422 z "},"Ă":{"ha":852,"x_min":-64,"x_max":876,"o":"m 623 0 l 591 202 l 236 202 l 119 0 l -64 0 l 539 1007 l 602 1007 l 806 0 l 623 0 m 515 705 l 311 334 l 572 334 l 515 705 m 378 1295 l 523 1295 q 512 1246 512 1258 q 600 1200 512 1200 q 730 1295 710 1200 l 876 1295 q 581 1075 828 1075 q 369 1235 369 1075 q 378 1295 369 1257 z "},"ă":{"ha":823,"x_min":48,"x_max":802,"o":"m 670 260 q 665 205 665 235 q 688 0 665 56 l 583 0 q 512 73 535 0 q 296 -14 425 -14 q 113 53 178 -14 q 48 238 48 119 q 173 592 48 445 q 489 740 298 740 q 754 706 673 740 l 670 260 m 474 602 q 292 493 360 602 q 224 242 224 384 q 340 125 224 125 q 468 215 413 125 q 565 588 522 305 q 474 602 517 602 m 304 1092 l 449 1092 q 438 1042 438 1055 q 526 996 438 996 q 656 1092 636 996 l 802 1092 q 507 871 754 871 q 295 1031 295 871 q 304 1092 295 1053 z "},"Ą":{"ha":852,"x_min":-64,"x_max":806,"o":"m 606 106 l 591 202 l 236 202 l 119 0 l -64 0 l 539 1007 l 602 1007 l 806 0 l 671 0 q 638 -14 662 0 q 600 -51 614 -28 q 585 -98 585 -74 q 631 -128 585 -128 q 744 -87 690 -128 l 744 -226 q 606 -253 654 -253 q 476 -214 528 -253 q 424 -111 424 -176 q 606 106 424 20 m 515 705 l 311 334 l 572 334 l 515 705 z "},"ą":{"ha":823,"x_min":48,"x_max":758,"o":"m 528 38 q 512 73 518 54 q 296 -14 425 -14 q 113 53 178 -14 q 48 238 48 119 q 173 592 48 445 q 489 740 298 740 q 754 706 673 740 l 670 260 q 665 205 665 235 q 688 0 665 56 l 684 0 q 652 -14 675 0 q 613 -51 628 -28 q 598 -98 598 -74 q 645 -128 598 -128 q 758 -87 703 -128 l 758 -226 q 619 -253 668 -253 q 489 -214 541 -253 q 437 -111 437 -176 q 528 38 437 -22 m 474 602 q 292 493 360 602 q 224 242 224 384 q 340 125 224 125 q 468 215 413 125 q 565 588 522 305 q 474 602 517 602 z "},"Ď":{"ha":878,"x_min":29,"x_max":871,"o":"m 269 0 l 29 0 l 210 991 q 396 1009 309 1009 q 747 905 623 1009 q 871 605 871 802 q 707 164 871 329 q 269 0 543 0 m 357 848 l 237 158 q 291 155 267 155 q 580 283 473 155 q 687 612 687 412 q 613 789 687 722 q 423 855 539 855 q 357 848 391 855 m 522 1061 l 427 1061 l 237 1304 l 410 1304 l 498 1205 l 618 1302 l 821 1302 l 522 1061 z "},"ď":{"ha":981,"x_min":43,"x_max":1086,"o":"m 657 0 l 488 0 l 501 68 q 315 -14 445 -14 q 115 61 187 -14 q 43 265 43 136 q 159 607 43 473 q 468 740 275 740 q 550 726 505 740 q 616 694 595 711 l 678 1024 l 842 1024 l 657 0 m 479 597 q 293 511 362 597 q 223 292 223 425 q 360 126 223 126 q 552 362 508 126 l 585 536 q 479 597 552 597 m 947 711 l 905 768 q 960 818 949 802 q 970 852 970 834 q 946 893 970 869 q 923 944 923 916 q 1002 1024 923 1024 q 1086 930 1086 1024 q 947 711 1086 797 z "},"Đ":{"ha":909,"x_min":24,"x_max":871,"o":"m 24 456 l 51 607 l 140 607 l 210 991 q 396 1009 309 1009 q 747 905 623 1009 q 871 605 871 802 q 707 164 871 329 q 269 0 543 0 l 29 0 l 113 456 l 24 456 m 315 607 l 500 607 l 473 456 l 289 456 l 237 158 q 291 155 267 155 q 580 283 473 155 q 687 612 687 412 q 613 789 687 722 q 423 855 539 855 q 357 848 391 855 l 315 607 z "},"Ę":{"ha":824,"x_min":28,"x_max":851,"o":"m 394 0 l 28 0 l 212 994 l 851 994 l 822 839 l 364 839 l 323 610 l 651 610 l 623 463 l 295 463 l 239 155 l 690 155 l 661 0 l 603 0 q 570 -14 594 0 q 532 -51 547 -28 q 517 -98 517 -74 q 564 -128 517 -128 q 676 -87 622 -128 l 676 -226 q 538 -253 587 -253 q 408 -214 460 -253 q 356 -111 356 -176 q 394 0 356 -50 z "},"ę":{"ha":766,"x_min":56,"x_max":749,"o":"m 264 -1 q 111 106 166 26 q 56 304 56 185 q 177 615 56 491 q 492 740 297 740 q 677 691 606 740 q 749 553 749 643 q 643 360 749 430 q 381 290 536 290 q 233 315 305 290 q 231 285 231 298 q 276 168 231 209 q 401 127 321 127 q 500 151 444 127 q 587 203 555 174 l 568 25 q 460 -5 526 6 q 388 -98 388 -34 q 435 -128 388 -128 q 547 -87 493 -128 l 547 -226 q 409 -253 458 -253 q 279 -214 331 -253 q 227 -111 227 -176 q 264 -1 227 -51 m 265 444 q 361 431 309 431 q 517 459 453 431 q 581 540 581 487 q 452 599 581 599 q 348 554 401 599 q 265 444 295 510 z "},"Ě":{"ha":824,"x_min":28,"x_max":869,"o":"m 822 839 l 364 839 l 323 610 l 651 610 l 623 463 l 295 463 l 239 155 l 690 155 l 661 0 l 28 0 l 212 994 l 851 994 l 822 839 m 570 1061 l 475 1061 l 285 1304 l 458 1304 l 546 1205 l 667 1302 l 869 1302 l 570 1061 z "},"ě":{"ha":766,"x_min":56,"x_max":867,"o":"m 233 315 q 231 285 231 298 q 276 168 231 209 q 401 127 321 127 q 500 151 444 127 q 587 203 555 174 l 568 25 q 357 -14 481 -14 q 140 71 223 -14 q 56 304 56 156 q 177 615 56 491 q 492 740 297 740 q 677 691 606 740 q 749 553 749 643 q 643 360 749 430 q 381 290 536 290 q 233 315 305 290 m 265 444 q 361 431 309 431 q 517 459 453 431 q 581 540 581 487 q 452 599 581 599 q 348 554 401 599 q 265 444 295 510 m 568 871 l 473 871 l 283 1114 l 456 1114 l 544 1015 l 665 1112 l 867 1112 l 568 871 z "},"Ĺ":{"ha":734,"x_min":34,"x_max":689,"o":"m 661 0 l 34 0 l 216 994 l 394 994 l 240 155 l 689 155 l 661 0 m 429 1075 l 282 1075 l 421 1301 l 614 1301 l 429 1075 z "},"ĺ":{"ha":444,"x_min":71,"x_max":642,"o":"m 323 57 q 202 -7 283 -7 q 106 33 141 -7 q 71 137 71 73 q 103 375 71 220 l 239 1024 l 408 1024 l 268 348 q 238 142 238 203 q 262 80 238 102 q 323 57 287 57 m 456 1075 l 310 1075 l 449 1301 l 642 1301 l 456 1075 z "},"Ľ":{"ha":734,"x_min":34,"x_max":718,"o":"m 661 0 l 34 0 l 216 994 l 394 994 l 240 155 l 689 155 l 661 0 m 579 711 l 536 768 q 591 818 581 802 q 602 852 602 834 q 578 893 602 869 q 555 944 555 916 q 634 1024 555 1024 q 718 930 718 1024 q 579 711 718 797 z "},"ľ":{"ha":563,"x_min":71,"x_max":657,"o":"m 323 57 q 202 -7 283 -7 q 106 33 141 -7 q 71 137 71 73 q 103 375 71 220 l 239 1024 l 408 1024 l 268 348 q 238 142 238 203 q 262 80 238 102 q 323 57 287 57 m 519 711 l 476 768 q 531 818 521 802 q 541 852 541 834 q 518 893 541 869 q 494 944 494 916 q 574 1024 494 1024 q 657 930 657 1024 q 519 711 657 797 z "},"Ŀ":{"ha":734,"x_min":34,"x_max":689,"o":"m 661 0 l 34 0 l 216 994 l 394 994 l 240 155 l 689 155 l 661 0 m 586 652 q 658 622 629 652 q 688 550 688 593 q 658 477 688 507 q 586 448 629 448 q 514 478 544 448 q 484 550 484 508 q 514 622 484 592 q 586 652 544 652 z "},"ŀ":{"ha":621,"x_min":66,"x_max":634,"o":"m 319 57 q 197 -7 279 -7 q 101 33 136 -7 q 66 137 66 73 q 98 375 66 220 l 235 1024 l 403 1024 l 263 348 q 233 142 233 203 q 258 80 233 102 q 319 57 282 57 m 532 652 q 605 622 575 652 q 634 550 634 593 q 605 477 634 507 q 532 448 575 448 q 460 478 490 448 q 431 550 431 508 q 460 622 431 592 q 532 652 490 652 z "},"Ń":{"ha":917,"x_min":35,"x_max":940,"o":"m 755 -14 l 686 -14 l 320 629 l 210 0 l 35 0 l 218 994 l 299 994 l 658 378 l 766 994 l 940 994 l 755 -14 m 625 1075 l 479 1075 l 618 1301 l 810 1301 l 625 1075 z "},"ń":{"ha":781,"x_min":18,"x_max":734,"o":"m 642 0 l 467 0 l 546 423 q 555 509 555 474 q 449 599 555 599 q 286 522 358 599 l 189 0 l 18 0 l 121 545 q 123 584 123 559 q 104 713 123 644 l 270 743 l 286 662 q 510 740 375 740 q 734 530 734 740 q 724 442 734 493 l 642 0 m 525 871 l 378 871 l 517 1097 l 710 1097 l 525 871 z "},"Ň":{"ha":917,"x_min":35,"x_max":940,"o":"m 755 -14 l 686 -14 l 320 629 l 210 0 l 35 0 l 218 994 l 299 994 l 658 378 l 766 994 l 940 994 l 755 -14 m 612 1061 l 517 1061 l 326 1304 l 499 1304 l 587 1205 l 708 1302 l 910 1302 l 612 1061 z "},"ň":{"ha":781,"x_min":18,"x_max":806,"o":"m 642 0 l 467 0 l 546 423 q 555 509 555 474 q 449 599 555 599 q 286 522 358 599 l 189 0 l 18 0 l 121 545 q 123 584 123 559 q 104 713 123 644 l 270 743 l 286 662 q 510 740 375 740 q 734 530 734 740 q 724 442 734 493 l 642 0 m 507 871 l 412 871 l 222 1114 l 395 1114 l 483 1015 l 604 1112 l 806 1112 l 507 871 z "},"Ő":{"ha":975,"x_min":67,"x_max":977,"o":"m 67 370 q 212 823 67 635 q 589 1011 357 1011 q 863 917 767 1011 q 960 643 960 822 q 812 166 960 349 q 407 -17 664 -17 q 158 89 250 -17 q 67 370 67 195 m 250 388 q 296 205 250 273 q 429 138 341 138 q 684 283 590 138 q 777 629 777 428 q 576 857 777 857 q 343 708 435 857 q 250 388 250 559 m 808 1075 l 663 1075 l 783 1267 l 977 1267 l 808 1075 m 557 1075 l 412 1075 l 532 1267 l 726 1267 l 557 1075 z "},"ő":{"ha":791,"x_min":49,"x_max":832,"o":"m 49 272 q 169 604 49 469 q 473 740 289 740 q 689 667 613 740 q 765 460 765 594 q 646 123 765 259 q 340 -14 528 -14 q 125 60 202 -14 q 49 272 49 134 m 225 280 q 359 125 225 125 q 526 223 465 125 q 588 455 588 321 q 454 602 588 602 q 288 505 351 602 q 225 280 225 408 m 664 871 l 518 871 l 638 1063 l 832 1063 l 664 871 m 413 871 l 267 871 l 387 1063 l 581 1063 l 413 871 z "},"Ŕ":{"ha":866,"x_min":35,"x_max":823,"o":"m 573 440 l 795 0 l 596 0 l 406 411 q 293 416 360 412 l 216 0 l 35 0 l 216 994 q 476 1004 414 1004 q 730 942 637 1004 q 823 762 823 880 q 755 555 823 643 q 573 440 687 467 m 370 841 l 319 563 q 391 559 359 559 q 647 722 647 559 q 598 819 647 790 q 435 848 549 848 q 370 841 425 848 m 517 1075 l 370 1075 l 509 1301 l 702 1301 l 517 1075 z "},"ŕ":{"ha":621,"x_min":47,"x_max":649,"o":"m 589 554 q 483 599 529 599 q 362 542 417 599 q 294 410 308 484 l 217 0 l 47 0 l 182 726 l 353 726 l 341 663 q 541 740 431 740 q 640 727 568 740 l 589 554 m 464 871 l 317 871 l 456 1097 l 649 1097 l 464 871 z "},"Ř":{"ha":866,"x_min":35,"x_max":854,"o":"m 573 440 l 795 0 l 596 0 l 406 411 q 293 416 360 412 l 216 0 l 35 0 l 216 994 q 476 1004 414 1004 q 730 942 637 1004 q 823 762 823 880 q 755 555 823 643 q 573 440 687 467 m 370 841 l 319 563 q 391 559 359 559 q 647 722 647 559 q 598 819 647 790 q 435 848 549 848 q 370 841 425 848 m 556 1063 l 461 1063 l 271 1306 l 444 1306 l 532 1207 l 652 1304 l 854 1304 l 556 1063 z "},"ř":{"ha":621,"x_min":47,"x_max":768,"o":"m 589 554 q 483 599 529 599 q 362 542 417 599 q 294 410 308 484 l 217 0 l 47 0 l 182 726 l 353 726 l 341 663 q 541 740 431 740 q 640 727 568 740 l 589 554 m 469 871 l 374 871 l 184 1114 l 357 1114 l 445 1015 l 566 1112 l 768 1112 l 469 871 z "},"Ś":{"ha":696,"x_min":29,"x_max":707,"o":"m 637 798 q 477 855 559 855 q 314 732 314 855 q 401 607 314 680 l 503 520 q 569 461 551 479 q 608 409 587 442 q 638 342 628 376 q 648 273 648 308 q 546 60 648 136 q 281 -17 444 -17 q 29 41 148 -17 l 86 215 q 297 146 177 146 q 417 177 370 146 q 465 265 465 208 q 378 389 465 321 l 272 474 q 206 531 223 513 q 170 580 189 549 q 141 645 151 612 q 132 713 132 678 q 222 930 132 850 q 460 1010 313 1010 q 585 999 509 1010 q 692 974 661 988 l 637 798 m 522 1075 l 376 1075 l 515 1301 l 707 1301 l 522 1075 z "},"ś":{"ha":637,"x_min":7,"x_max":628,"o":"m 536 528 q 387 599 455 599 q 314 579 345 599 q 283 528 283 560 q 357 450 283 488 q 470 391 431 413 q 534 331 509 369 q 559 245 559 294 q 470 56 559 125 q 240 -14 380 -14 q 7 54 121 -14 l 96 208 q 262 127 181 127 q 348 153 314 127 q 381 223 381 179 q 317 293 381 260 q 205 354 254 326 q 131 421 156 381 q 105 509 105 460 q 190 677 105 614 q 397 740 274 740 q 615 683 481 740 l 536 528 m 443 871 l 296 871 l 435 1097 l 628 1097 l 443 871 z "},"Ț":{"ha":951,"x_min":136,"x_max":972,"o":"m 943 839 l 630 839 l 477 0 l 298 0 l 452 839 l 136 839 l 164 994 l 972 994 l 943 839 m 298 -374 l 255 -317 q 310 -267 300 -283 q 320 -233 320 -251 q 297 -192 320 -216 q 273 -141 273 -169 q 353 -61 273 -61 q 436 -155 436 -61 q 298 -374 436 -288 z "},"ț":{"ha":608,"x_min":112,"x_max":600,"o":"m 570 590 l 370 590 l 297 268 q 288 203 288 229 q 372 129 288 129 q 494 164 410 129 l 494 12 q 295 -14 421 -14 q 162 38 212 -14 q 112 172 112 90 q 118 226 112 199 l 200 590 l 116 590 l 145 726 l 229 726 l 258 875 l 452 945 l 401 726 l 600 726 l 570 590 m 198 -374 l 155 -317 q 210 -267 200 -283 q 220 -233 220 -251 q 197 -192 220 -216 q 174 -141 174 -169 q 253 -61 174 -61 q 336 -155 336 -61 q 198 -374 336 -288 z "},"Ť":{"ha":951,"x_min":136,"x_max":972,"o":"m 943 839 l 630 839 l 477 0 l 298 0 l 452 839 l 136 839 l 164 994 l 972 994 l 943 839 m 582 1063 l 487 1063 l 296 1306 l 469 1306 l 557 1207 l 678 1304 l 880 1304 l 582 1063 z "},"ť":{"ha":840,"x_min":112,"x_max":884,"o":"m 570 590 l 370 590 l 297 268 q 288 203 288 229 q 372 129 288 129 q 494 164 410 129 l 494 12 q 295 -14 421 -14 q 162 38 212 -14 q 112 172 112 90 q 118 226 112 199 l 200 590 l 116 590 l 145 726 l 229 726 l 258 875 l 452 945 l 401 726 l 600 726 l 570 590 m 746 622 l 703 680 q 758 729 748 713 q 768 763 768 745 q 745 804 768 781 q 722 855 722 827 q 801 935 722 935 q 884 841 884 935 q 746 622 884 708 z "},"Ů":{"ha":919,"x_min":83,"x_max":952,"o":"m 825 306 q 683 68 797 153 q 401 -17 569 -17 q 172 51 260 -17 q 83 237 83 118 q 91 313 83 273 l 216 994 l 397 994 l 271 317 q 267 278 267 298 q 309 174 267 211 q 421 138 350 138 q 572 187 512 138 q 649 326 633 237 l 773 994 l 952 994 l 825 306 m 621 1020 q 503 1061 553 1020 q 453 1162 453 1101 q 503 1264 453 1223 q 621 1304 553 1304 q 738 1264 688 1304 q 787 1162 787 1224 q 738 1060 787 1101 q 621 1020 688 1020 m 623 1222 q 562 1204 588 1222 q 536 1160 536 1187 q 562 1116 536 1133 q 623 1098 588 1098 q 683 1116 657 1098 q 709 1160 709 1133 q 683 1204 709 1187 q 623 1222 657 1222 z "},"ů":{"ha":774,"x_min":42,"x_max":765,"o":"m 629 -1 l 460 -1 l 470 52 q 242 -14 379 -14 q 95 40 149 -14 q 42 189 42 94 q 50 258 42 218 l 137 726 l 309 726 l 223 265 q 218 216 218 236 q 317 127 218 127 q 452 180 397 127 q 520 307 507 233 l 595 726 l 765 726 l 629 -1 m 467 871 q 350 912 400 871 q 300 1014 300 953 q 350 1115 300 1075 q 467 1156 400 1156 q 585 1116 535 1156 q 634 1014 634 1076 q 584 912 634 952 q 467 871 534 871 m 469 1074 q 409 1056 435 1074 q 383 1011 383 1038 q 409 967 383 985 q 469 949 435 949 q 530 967 504 949 q 555 1011 555 985 q 530 1056 555 1038 q 469 1074 504 1074 z "},"Ű":{"ha":919,"x_min":83,"x_max":964,"o":"m 825 306 q 683 68 797 153 q 401 -17 569 -17 q 172 51 260 -17 q 83 237 83 118 q 91 313 83 273 l 216 994 l 397 994 l 271 317 q 267 278 267 298 q 309 174 267 211 q 421 138 350 138 q 572 187 512 138 q 649 326 633 237 l 773 994 l 952 994 l 825 306 m 795 1075 l 650 1075 l 770 1267 l 964 1267 l 795 1075 m 545 1075 l 399 1075 l 519 1267 l 713 1267 l 545 1075 z "},"ű":{"ha":774,"x_min":42,"x_max":832,"o":"m 629 -1 l 460 -1 l 470 52 q 242 -14 379 -14 q 95 40 149 -14 q 42 189 42 94 q 50 258 42 218 l 137 726 l 309 726 l 223 265 q 218 216 218 236 q 317 127 218 127 q 452 180 397 127 q 520 307 507 233 l 595 726 l 765 726 l 629 -1 m 664 871 l 518 871 l 638 1063 l 832 1063 l 664 871 m 413 871 l 267 871 l 387 1063 l 581 1063 l 413 871 z "},"Ź":{"ha":849,"x_min":59,"x_max":846,"o":"m 327 155 l 732 155 l 703 0 l 59 0 l 59 56 l 597 839 l 189 839 l 217 994 l 846 994 l 846 937 l 327 155 m 593 1075 l 446 1075 l 585 1301 l 778 1301 l 593 1075 z "},"ź":{"ha":740,"x_min":19,"x_max":720,"o":"m 303 147 l 648 147 l 620 0 l 19 0 l 19 58 l 444 579 l 87 579 l 115 726 l 720 726 l 720 666 l 303 147 m 461 871 l 315 871 l 454 1097 l 646 1097 l 461 871 z "},"Ż":{"ha":849,"x_min":59,"x_max":846,"o":"m 327 155 l 732 155 l 703 0 l 59 0 l 59 56 l 597 839 l 189 839 l 217 994 l 846 994 l 846 937 l 327 155 m 449 1155 q 480 1212 449 1190 q 552 1234 511 1234 q 624 1212 591 1234 q 656 1155 656 1190 q 624 1097 656 1120 q 552 1075 593 1075 q 480 1097 512 1075 q 449 1155 449 1119 z "},"ż":{"ha":740,"x_min":19,"x_max":720,"o":"m 303 147 l 648 147 l 620 0 l 19 0 l 19 58 l 444 579 l 87 579 l 115 726 l 720 726 l 720 666 l 303 147 m 331 951 q 362 1009 331 987 q 434 1031 393 1031 q 506 1009 473 1031 q 538 951 538 987 q 506 894 538 916 q 434 871 475 871 q 362 893 394 871 q 331 951 331 916 z "},"¤":{"ha":814,"x_min":46,"x_max":755,"o":"m 669 138 l 570 238 q 401 187 490 187 q 231 238 312 187 l 132 138 l 46 227 l 146 325 q 96 492 96 408 q 146 659 96 576 l 46 757 l 132 846 l 232 746 q 401 797 312 797 q 570 747 490 797 l 669 846 l 755 757 l 656 659 q 706 492 706 576 q 656 325 706 408 l 755 227 l 669 138 m 218 492 q 271 362 218 416 q 400 309 323 309 q 529 363 475 309 q 583 492 583 416 q 529 622 583 568 q 400 675 476 675 q 271 622 323 675 q 218 492 218 568 z "},";":{"ha":510,"x_min":103,"x_max":412,"o":"m 304 726 q 380 694 349 726 q 412 618 412 663 q 382 544 412 576 q 304 511 352 511 q 228 543 258 511 q 197 618 197 574 q 229 696 197 665 q 304 726 261 726 m 103 -212 q 210 -33 210 -133 q 171 35 210 4 q 132 100 132 65 q 168 173 132 144 q 253 201 203 201 q 339 162 304 201 q 374 72 374 122 q 154 -281 374 -132 l 103 -212 z "},"΄":{"ha":814,"x_min":335,"x_max":667,"o":"m 482 871 l 335 871 l 473 1097 l 667 1097 l 482 871 z "},"΅":{"ha":814,"x_min":160,"x_max":793,"o":"m 494 823 l 411 823 l 440 1051 l 568 1051 l 494 823 m 696 1022 q 764 994 736 1022 q 793 926 793 966 q 764 858 793 887 q 696 829 734 829 q 628 858 656 829 q 600 926 600 886 q 628 995 600 967 q 696 1022 655 1022 m 257 1022 q 325 994 296 1022 q 353 926 353 966 q 325 858 353 887 q 257 829 296 829 q 188 858 216 829 q 160 926 160 886 q 188 995 160 968 q 257 1022 215 1022 z "},"Ά":{"ha":868,"x_min":-58,"x_max":812,"o":"m 628 0 l 597 203 l 241 203 l 125 0 l -58 0 l 545 1007 l 608 1007 l 812 0 l 628 0 m 521 705 l 317 335 l 578 335 l 521 705 m 306 993 l 183 745 l 52 745 l 134 993 l 306 993 z "},"·":{"ha":510,"x_min":164,"x_max":368,"o":"m 265 564 q 339 534 309 564 q 368 463 368 504 q 338 390 368 420 q 265 359 309 359 q 195 390 225 359 q 164 463 164 420 q 195 533 164 503 q 265 564 225 564 z "},"Έ":{"ha":897,"x_min":-72,"x_max":949,"o":"m 920 839 l 461 839 l 419 610 l 749 610 l 721 463 l 392 463 l 336 154 l 787 154 l 758 0 l 126 0 l 309 993 l 949 993 l 920 839 m 182 993 l 60 745 l -72 745 l 9 993 l 182 993 z "},"Ή":{"ha":1032,"x_min":-72,"x_max":1063,"o":"m 878 0 l 700 0 l 785 463 l 390 463 l 306 0 l 126 0 l 309 993 l 488 993 l 416 610 l 812 610 l 882 993 l 1063 993 l 878 0 m 182 993 l 60 745 l -72 745 l 9 993 l 182 993 z "},"Ί":{"ha":467,"x_min":-72,"x_max":486,"o":"m 304 0 l 126 0 l 310 993 l 486 993 l 304 0 m 182 993 l 60 745 l -72 745 l 9 993 l 182 993 z "},"Ό":{"ha":1025,"x_min":-72,"x_max":1010,"o":"m 117 370 q 261 822 117 632 q 639 1011 405 1011 q 912 918 814 1011 q 1010 643 1010 825 q 862 168 1010 353 q 457 -17 715 -17 q 208 90 298 -17 q 117 370 117 196 m 300 387 q 345 206 300 275 q 479 138 391 138 q 734 283 640 138 q 828 629 828 429 q 627 857 828 857 q 392 708 485 857 q 300 387 300 559 m 182 993 l 60 745 l -72 745 l 9 993 l 182 993 z "},"Ύ":{"ha":974,"x_min":-72,"x_max":1044,"o":"m 608 439 l 528 0 l 353 0 l 435 444 l 201 993 l 385 993 l 545 606 l 843 993 l 1044 993 l 608 439 m 182 993 l 60 745 l -72 745 l 9 993 l 182 993 z "},"Ώ":{"ha":1064,"x_min":-72,"x_max":1025,"o":"m 233 138 q 129 452 129 290 q 201 733 129 596 q 394 944 274 869 q 653 1018 513 1018 q 926 915 828 1018 q 1025 637 1025 811 q 960 354 1025 486 q 787 138 896 222 q 962 149 850 149 l 933 0 l 538 0 l 538 54 q 767 337 694 199 q 840 631 840 476 q 788 802 840 741 q 640 864 736 864 q 406 738 500 864 q 313 441 313 612 q 437 54 313 260 l 437 0 l 22 0 l 52 150 q 233 138 158 150 m 182 993 l 60 745 l -72 745 l 9 993 l 182 993 z "},"ΐ":{"ha":392,"x_min":-36,"x_max":597,"o":"m 340 726 l 256 283 q 237 142 237 187 q 261 80 237 103 q 323 57 286 57 q 201 -7 284 -7 q 101 36 138 -7 q 65 138 65 79 q 96 359 65 205 l 168 726 l 340 726 m 372 1051 l 298 823 l 215 823 l 244 1051 l 372 1051 m 500 1022 q 569 994 540 1022 q 597 926 597 966 q 568 858 597 887 q 500 829 539 829 q 432 858 460 829 q 404 926 404 886 q 432 995 404 967 q 500 1022 459 1022 m 61 1022 q 129 995 102 1022 q 157 926 157 967 q 129 858 157 887 q 61 829 100 829 q -8 858 20 829 q -36 926 -36 886 q -8 995 -36 968 q 61 1022 20 1022 z "},"Α":{"ha":868,"x_min":-58,"x_max":812,"o":"m 628 0 l 597 203 l 241 203 l 125 0 l -58 0 l 545 1007 l 608 1007 l 812 0 l 628 0 m 521 705 l 317 335 l 578 335 l 521 705 z "},"Β":{"ha":833,"x_min":36,"x_max":791,"o":"m 652 554 q 736 471 702 534 q 771 335 771 409 q 649 77 771 162 q 260 -8 527 -8 q 36 0 170 -8 l 218 991 q 421 1008 333 1008 q 791 764 791 1008 q 753 645 791 702 q 652 554 715 587 m 372 854 l 329 611 q 403 610 354 610 q 555 649 496 610 q 614 770 614 689 q 457 859 614 859 q 372 854 425 859 m 306 485 l 241 144 q 301 142 262 142 q 513 187 435 142 q 591 321 591 232 q 375 488 591 488 q 306 485 351 488 z "},"Γ":{"ha":764,"x_min":36,"x_max":836,"o":"m 808 839 l 370 839 l 215 0 l 36 0 l 218 993 l 836 993 l 808 839 z "},"Ε":{"ha":807,"x_min":36,"x_max":859,"o":"m 829 839 l 371 839 l 329 610 l 659 610 l 631 463 l 301 463 l 245 154 l 697 154 l 668 0 l 36 0 l 218 993 l 859 993 l 829 839 z "},"Ζ":{"ha":818,"x_min":41,"x_max":829,"o":"m 310 154 l 715 154 l 686 0 l 41 0 l 41 57 l 581 839 l 172 839 l 200 993 l 829 993 l 829 937 l 310 154 z "},"Η":{"ha":942,"x_min":36,"x_max":972,"o":"m 787 0 l 610 0 l 694 463 l 300 463 l 215 0 l 36 0 l 218 993 l 397 993 l 326 610 l 722 610 l 791 993 l 972 993 l 787 0 z "},"Θ":{"ha":997,"x_min":66,"x_max":982,"o":"m 66 370 q 145 701 66 545 q 346 934 224 857 q 619 1011 467 1011 q 888 914 794 1011 q 982 637 982 817 q 921 336 982 490 q 735 83 859 182 q 427 -17 611 -17 q 159 83 252 -17 q 66 370 66 184 m 244 368 q 449 135 244 135 q 637 205 556 135 q 761 399 718 275 q 804 639 804 522 q 596 860 804 860 q 344 714 444 860 q 244 368 244 568 m 729 583 l 697 432 l 322 432 l 354 583 l 729 583 z "},"Ι":{"ha":386,"x_min":46,"x_max":406,"o":"m 224 0 l 46 0 l 229 993 l 406 993 l 224 0 z "},"Κ":{"ha":865,"x_min":36,"x_max":935,"o":"m 542 557 l 789 0 l 590 0 l 404 425 l 262 269 l 212 0 l 36 0 l 220 993 l 395 993 l 313 542 l 725 993 l 935 993 l 542 557 z "},"Λ":{"ha":875,"x_min":-50,"x_max":812,"o":"m 549 1007 l 615 1007 l 812 0 l 616 0 l 519 660 l 151 0 l -50 0 l 549 1007 z "},"Μ":{"ha":1093,"x_min":-16,"x_max":1011,"o":"m 836 0 l 825 538 l 524 -14 l 461 -14 l 364 543 l 155 0 l -16 0 l 354 993 l 453 993 l 553 364 l 882 993 l 983 993 l 1011 0 l 836 0 z "},"Ν":{"ha":917,"x_min":39,"x_max":945,"o":"m 758 -14 l 690 -14 l 323 629 l 214 0 l 39 0 l 222 993 l 302 993 l 663 378 l 770 993 l 945 993 l 758 -14 z "},"Ξ":{"ha":905,"x_min":25,"x_max":936,"o":"m 936 993 l 909 847 l 636 847 l 591 606 l 798 606 l 772 467 l 567 467 l 509 147 l 790 147 l 762 0 l 25 0 l 53 147 l 335 147 l 393 467 l 187 467 l 212 606 l 418 606 l 463 847 l 189 847 l 215 993 l 936 993 z "},"Ο":{"ha":975,"x_min":66,"x_max":960,"o":"m 66 370 q 211 822 66 632 q 589 1011 355 1011 q 862 918 764 1011 q 960 643 960 825 q 887 288 960 438 q 694 60 814 138 q 407 -17 574 -17 q 157 90 248 -17 q 66 370 66 196 m 250 387 q 296 206 250 275 q 429 138 341 138 q 684 283 589 138 q 778 629 778 429 q 576 857 778 857 q 343 708 435 857 q 250 387 250 559 z "},"Π":{"ha":913,"x_min":37,"x_max":942,"o":"m 760 0 l 581 0 l 734 839 l 371 839 l 216 0 l 37 0 l 220 993 l 942 993 l 760 0 z "},"Ρ":{"ha":819,"x_min":36,"x_max":833,"o":"m 283 366 l 216 0 l 36 0 l 224 991 q 439 1007 354 1007 q 833 711 833 1007 q 714 449 833 545 q 404 353 595 353 q 283 366 342 353 m 371 843 l 311 515 q 400 505 353 505 q 582 555 514 505 q 650 697 650 606 q 472 854 650 854 q 371 843 429 854 z "},"Σ":{"ha":864,"x_min":17,"x_max":907,"o":"m 17 0 l 17 57 l 465 529 l 208 937 l 208 993 l 907 993 l 879 839 l 478 839 l 676 522 l 335 154 l 751 154 l 722 0 l 17 0 z "},"Τ":{"ha":905,"x_min":136,"x_max":972,"o":"m 943 839 l 631 839 l 476 0 l 298 0 l 452 839 l 136 839 l 164 993 l 972 993 l 943 839 z "},"Υ":{"ha":843,"x_min":119,"x_max":962,"o":"m 526 439 l 446 0 l 271 0 l 353 444 l 119 993 l 302 993 l 463 606 l 761 993 l 962 993 l 526 439 z "},"Φ":{"ha":1122,"x_min":81,"x_max":1109,"o":"m 762 930 q 1017 826 924 918 q 1109 589 1109 734 q 976 247 1109 392 q 606 83 842 101 l 586 -20 l 410 -20 l 429 83 q 175 187 269 94 q 81 425 81 280 q 217 761 81 608 q 586 930 354 913 l 606 1034 l 782 1034 l 762 930 m 628 218 q 863 355 794 247 q 932 579 932 463 q 881 726 932 669 q 734 794 830 783 l 628 218 m 564 796 q 341 669 424 773 q 258 435 258 565 q 310 288 258 345 q 457 220 361 231 l 564 796 z "},"Χ":{"ha":896,"x_min":-24,"x_max":970,"o":"m 567 503 l 802 0 l 606 0 l 449 350 l 182 0 l -24 0 l 375 524 l 186 994 l 368 993 l 496 663 l 764 993 l 970 993 l 567 503 z "},"Ψ":{"ha":1152,"x_min":135,"x_max":1181,"o":"m 1181 993 l 1113 608 q 1031 408 1092 489 q 873 279 971 326 q 646 221 776 232 l 606 -3 l 429 -3 l 469 220 q 135 524 135 255 q 144 612 135 566 l 215 993 l 390 993 q 318 601 321 627 q 315 551 315 574 q 497 366 315 382 l 614 993 l 785 993 l 669 366 q 847 444 777 377 q 938 625 917 511 l 1006 993 l 1181 993 z "},"Ϊ":{"ha":386,"x_min":46,"x_max":603,"o":"m 224 0 l 46 0 l 229 993 l 406 993 l 224 0 m 503 1278 q 572 1256 541 1278 q 603 1202 603 1235 q 572 1146 603 1166 q 503 1125 542 1125 q 433 1146 464 1125 q 403 1202 403 1166 q 433 1257 403 1236 q 503 1278 464 1278 m 182 1278 q 251 1257 220 1278 q 282 1202 282 1237 q 252 1146 282 1168 q 182 1125 222 1125 q 113 1146 143 1125 q 82 1202 82 1166 q 113 1256 82 1235 q 182 1278 144 1278 z "},"Ϋ":{"ha":843,"x_min":119,"x_max":962,"o":"m 526 439 l 446 0 l 271 0 l 353 444 l 119 993 l 302 993 l 463 606 l 761 993 l 962 993 l 526 439 m 755 1278 q 825 1256 793 1278 q 856 1202 856 1235 q 825 1146 856 1166 q 755 1125 795 1125 q 686 1146 717 1125 q 656 1202 656 1166 q 687 1257 656 1237 q 755 1278 718 1278 m 435 1278 q 504 1257 473 1278 q 534 1202 534 1237 q 505 1146 534 1168 q 435 1125 475 1125 q 366 1146 396 1125 q 335 1202 335 1166 q 366 1256 335 1235 q 435 1278 397 1278 z "},"ά":{"ha":807,"x_min":50,"x_max":757,"o":"m 657 161 q 708 3 657 73 q 676 -1 702 3 q 608 -8 629 -8 q 505 77 530 -8 q 297 -14 429 -14 q 115 52 180 -14 q 50 237 50 117 q 115 506 50 389 q 277 682 180 623 q 490 741 374 741 q 757 705 677 741 q 670 265 683 340 q 657 161 657 190 m 475 602 q 294 495 361 602 q 227 241 227 388 q 342 125 227 125 q 469 208 416 125 q 567 587 522 292 q 475 602 521 602 m 700 1092 l 576 868 l 446 868 l 524 1092 l 700 1092 z "},"έ":{"ha":705,"x_min":37,"x_max":685,"o":"m 628 558 q 418 606 537 606 q 325 577 361 606 q 288 507 288 549 q 406 436 288 436 q 528 440 468 436 l 504 310 q 380 314 436 314 q 261 278 305 314 q 216 196 216 243 q 332 121 216 121 q 561 195 452 121 l 616 65 q 294 -16 481 -16 q 109 32 181 -16 q 37 170 37 80 q 84 290 37 235 q 211 372 130 344 q 139 420 165 385 q 113 501 113 456 q 152 616 113 562 q 267 707 192 671 q 437 742 342 742 q 685 686 566 742 l 628 558 m 632 1092 l 509 868 l 378 868 l 456 1092 l 632 1092 z "},"ή":{"ha":815,"x_min":35,"x_max":750,"o":"m 625 -187 l 440 -231 l 564 424 q 572 509 572 464 q 465 599 572 599 q 302 522 373 599 l 205 0 l 35 0 l 138 545 q 140 583 140 564 q 121 713 140 642 l 286 743 l 302 663 q 526 741 393 741 q 750 530 750 741 q 741 441 750 495 l 625 -187 m 676 1092 l 553 868 l 422 868 l 500 1092 l 676 1092 z "},"ί":{"ha":392,"x_min":65,"x_max":435,"o":"m 340 726 l 256 283 q 237 142 237 187 q 261 80 237 103 q 323 57 286 57 q 201 -7 284 -7 q 101 36 138 -7 q 65 138 65 79 q 96 359 65 205 l 168 726 l 340 726 m 435 1092 l 311 868 l 180 868 l 258 1092 l 435 1092 z "},"ΰ":{"ha":818,"x_min":79,"x_max":793,"o":"m 766 726 q 772 635 772 677 q 727 323 772 473 q 579 80 681 173 q 338 -12 477 -12 q 147 54 215 -12 q 79 233 79 120 q 94 360 79 288 l 171 726 l 346 726 l 288 441 q 260 289 264 317 q 257 244 257 262 q 361 129 257 129 q 491 203 433 129 q 573 420 549 277 q 596 643 596 563 q 593 726 596 683 l 766 726 m 568 1051 l 494 823 l 411 823 l 440 1051 l 568 1051 m 696 1022 q 764 994 736 1022 q 793 926 793 966 q 764 858 793 887 q 696 829 734 829 q 628 858 656 829 q 600 926 600 886 q 628 995 600 967 q 696 1022 655 1022 m 257 1022 q 325 994 296 1022 q 353 926 353 966 q 325 858 353 887 q 257 829 296 829 q 188 858 216 829 q 160 926 160 886 q 188 995 160 968 q 257 1022 215 1022 z "},"α":{"ha":807,"x_min":50,"x_max":757,"o":"m 657 161 q 708 3 657 73 q 676 -1 702 3 q 608 -8 629 -8 q 505 77 530 -8 q 297 -14 429 -14 q 115 52 180 -14 q 50 237 50 117 q 115 506 50 389 q 277 682 180 623 q 490 741 374 741 q 757 705 677 741 q 670 265 683 340 q 657 161 657 190 m 475 602 q 294 495 361 602 q 227 241 227 388 q 342 125 227 125 q 469 208 416 125 q 567 587 522 292 q 475 602 521 602 z "},"β":{"ha":811,"x_min":43,"x_max":775,"o":"m 575 564 q 710 478 663 540 q 757 334 757 416 q 699 155 757 243 q 547 27 640 68 q 350 -14 454 -14 q 187 6 275 -14 q 71 41 99 26 q 43 72 43 56 q 45 87 43 80 l 154 689 q 281 937 182 845 q 522 1029 379 1029 q 704 972 633 1029 q 775 825 775 916 q 723 669 775 739 q 575 564 671 599 m 310 624 l 404 624 q 553 678 498 624 q 607 803 607 732 q 501 895 607 895 q 385 841 436 895 q 310 624 333 788 m 227 165 q 277 133 238 144 q 363 121 317 121 q 524 180 465 121 q 583 334 583 239 q 530 452 583 410 q 379 494 477 494 l 286 494 l 227 165 z "},"γ":{"ha":786,"x_min":57,"x_max":827,"o":"m 827 726 q 416 24 696 410 q 397 -120 410 -77 q 354 -201 384 -164 q 275 -259 323 -237 q 160 -289 227 -281 l 134 -144 q 217 -100 190 -139 q 244 47 244 -60 q 217 321 244 170 q 160 529 190 473 q 57 589 130 585 l 81 732 l 115 732 q 278 676 222 732 q 363 473 333 621 q 396 232 393 325 q 640 726 549 477 l 827 726 z "},"δ":{"ha":808,"x_min":50,"x_max":842,"o":"m 842 1023 l 817 888 q 562 893 581 888 l 559 889 q 657 754 578 880 q 750 562 736 629 q 765 449 765 494 q 714 228 765 340 q 567 51 664 115 q 342 -14 471 -14 q 126 64 201 -14 q 50 278 50 142 q 105 510 50 403 q 247 675 161 618 q 431 732 334 732 q 488 725 458 732 l 336 970 l 346 1023 l 842 1023 m 590 460 q 545 603 590 544 q 468 614 509 614 q 293 512 359 614 q 227 278 227 410 q 260 165 227 205 q 358 125 294 125 q 529 228 467 125 q 590 460 590 331 z "},"ε":{"ha":705,"x_min":37,"x_max":685,"o":"m 628 558 q 418 606 533 606 q 325 577 361 606 q 288 507 288 549 q 406 436 288 436 q 528 440 468 436 l 504 310 q 380 314 436 314 q 261 278 305 314 q 216 196 216 243 q 332 121 216 121 q 561 195 452 121 l 616 65 q 294 -16 481 -16 q 109 32 181 -16 q 37 170 37 80 q 84 290 37 235 q 211 372 130 344 q 139 420 165 385 q 113 501 113 456 q 204 669 113 597 q 437 742 296 742 q 685 686 566 742 l 628 558 z "},"ζ":{"ha":663,"x_min":35,"x_max":785,"o":"m 785 970 q 355 524 488 696 q 222 235 222 352 q 257 161 222 182 q 382 131 292 140 q 512 102 471 121 q 576 47 553 83 q 599 -35 599 12 q 521 -210 599 -135 q 318 -285 443 -285 q 216 -275 258 -285 l 249 -149 q 326 -161 286 -161 q 401 -135 373 -161 q 429 -68 429 -109 q 399 -20 429 -33 q 268 -3 370 -8 q 98 56 161 1 q 35 201 35 111 q 211 593 35 384 q 519 889 388 803 l 519 893 q 257 888 500 888 l 283 1023 l 785 1023 l 785 970 z "},"η":{"ha":815,"x_min":35,"x_max":750,"o":"m 625 -187 l 440 -231 l 564 424 q 572 509 572 464 q 465 599 572 599 q 302 522 373 599 l 205 0 l 35 0 l 138 545 q 140 583 140 564 q 121 713 140 642 l 286 743 l 302 663 q 526 741 393 741 q 750 530 750 741 q 741 441 750 495 l 625 -187 z "},"θ":{"ha":832,"x_min":83,"x_max":811,"o":"m 541 1028 q 811 690 811 1028 q 749 354 811 538 q 591 78 688 170 q 354 -14 494 -14 q 152 71 221 -14 q 83 319 83 155 q 145 660 83 472 q 307 938 206 847 q 541 1028 408 1028 m 628 591 q 640 699 640 675 q 519 890 640 890 q 297 591 371 890 l 628 591 m 606 457 l 269 457 q 254 319 254 355 q 283 171 254 218 q 374 123 313 123 q 518 219 461 123 q 606 457 574 314 z "},"ι":{"ha":392,"x_min":65,"x_max":340,"o":"m 340 726 l 256 283 q 237 142 237 187 q 261 80 237 103 q 323 57 286 57 q 201 -7 284 -7 q 101 36 138 -7 q 65 138 65 79 q 96 359 65 205 l 168 726 l 340 726 z "},"κ":{"ha":798,"x_min":33,"x_max":778,"o":"m 539 0 l 363 306 l 243 215 l 203 0 l 33 0 l 165 726 l 335 726 l 278 408 q 576 656 519 606 q 664 747 632 707 l 778 635 q 493 395 724 570 l 733 0 l 539 0 z "},"λ":{"ha":781,"x_min":-53,"x_max":696,"o":"m 696 0 l 517 0 l 449 538 l 143 0 l -53 0 l 410 745 q 384 856 401 828 q 321 884 366 884 q 231 859 288 884 l 180 997 q 349 1028 271 1028 q 497 976 441 1028 q 574 787 553 923 l 696 0 z "},"ν":{"ha":758,"x_min":68,"x_max":799,"o":"m 353 -14 l 292 -14 l 68 726 l 249 726 l 375 254 q 612 726 532 505 l 799 726 q 353 -14 659 389 z "},"ξ":{"ha":686,"x_min":37,"x_max":758,"o":"m 758 986 l 696 847 q 522 892 618 892 q 397 849 448 892 q 346 742 346 806 q 532 627 346 627 l 644 627 l 621 488 l 534 488 q 399 467 448 488 q 307 410 349 447 q 242 327 264 372 q 220 243 220 281 q 258 161 220 186 q 400 129 297 137 q 552 78 503 121 q 602 -35 602 34 q 523 -210 602 -135 q 321 -285 444 -285 q 220 -275 261 -285 l 252 -149 q 329 -161 289 -161 q 404 -135 376 -161 q 432 -68 432 -109 q 402 -20 432 -33 q 271 -3 372 -8 q 100 59 162 1 q 37 214 37 117 q 112 414 37 323 q 313 555 186 506 q 208 621 247 570 q 168 742 168 673 q 271 943 168 857 q 534 1029 374 1029 q 758 986 651 1029 z "},"ο":{"ha":806,"x_min":52,"x_max":768,"o":"m 52 272 q 172 604 52 468 q 475 741 292 741 q 691 668 614 741 q 768 460 768 595 q 711 214 768 321 q 561 46 654 106 q 343 -14 467 -14 q 127 61 202 -14 q 52 272 52 135 m 228 281 q 361 125 228 125 q 528 221 467 125 q 590 456 590 317 q 457 602 590 602 q 290 505 352 602 q 228 281 228 408 z "},"ρ":{"ha":825,"x_min":-21,"x_max":793,"o":"m -21 -285 l 97 364 q 231 635 127 530 q 503 741 334 741 q 714 668 635 741 q 793 453 793 595 q 677 127 793 268 q 363 -14 562 -14 q 207 25 277 -14 l 151 -285 l -21 -285 m 233 167 q 370 127 279 127 q 554 223 493 127 q 615 447 615 319 q 481 602 615 602 q 385 573 428 602 q 313 492 342 545 q 267 349 284 439 l 233 167 z "},"ς":{"ha":660,"x_min":60,"x_max":717,"o":"m 717 684 l 653 547 q 498 599 581 599 q 311 505 381 599 q 241 304 241 411 q 395 150 241 179 q 556 84 505 130 q 608 -36 608 39 q 531 -212 608 -138 q 329 -286 453 -286 q 228 -277 270 -286 l 260 -150 q 338 -163 297 -163 q 410 -139 382 -163 q 439 -72 439 -115 q 354 3 439 -11 q 172 58 227 23 q 89 153 117 92 q 60 289 60 214 q 119 515 60 405 q 277 683 178 625 q 507 741 377 741 q 717 684 623 741 z "},"σ":{"ha":848,"x_min":52,"x_max":872,"o":"m 52 275 q 179 594 52 463 q 518 726 307 726 l 872 726 l 847 586 l 669 589 q 758 374 758 503 q 643 106 758 226 q 350 -14 528 -14 q 131 65 211 -14 q 52 275 52 144 m 231 279 q 266 165 231 205 q 368 125 301 125 q 520 201 457 125 q 583 387 583 277 q 498 587 583 517 q 301 497 372 587 q 231 279 231 407 z "},"τ":{"ha":653,"x_min":61,"x_max":682,"o":"m 682 726 l 657 585 l 425 585 l 368 305 q 347 189 347 205 q 403 134 347 134 q 471 146 432 134 l 471 4 q 361 -11 412 -11 q 222 35 273 -11 q 172 164 172 81 q 184 257 172 202 l 256 585 l 61 585 l 86 726 l 682 726 z "},"υ":{"ha":818,"x_min":79,"x_max":772,"o":"m 766 726 q 772 635 772 677 q 727 323 772 473 q 579 80 681 173 q 338 -12 477 -12 q 147 54 215 -12 q 79 233 79 120 q 94 360 79 288 l 171 726 l 346 726 l 288 441 q 260 289 264 317 q 257 244 257 262 q 361 129 257 129 q 491 203 433 129 q 573 420 549 277 q 596 643 596 563 q 593 726 596 683 l 766 726 z "},"φ":{"ha":1053,"x_min":54,"x_max":1021,"o":"m 410 121 l 468 442 q 526 618 488 557 q 622 710 564 678 q 750 742 679 742 q 949 658 877 742 q 1021 450 1021 574 q 901 142 1021 277 q 549 -12 782 7 l 500 -285 l 335 -285 l 383 -12 q 138 80 221 2 q 54 286 54 157 q 139 563 54 443 q 350 745 224 682 l 418 637 q 274 486 321 575 q 227 307 227 396 q 273 177 227 225 q 410 121 320 129 m 572 119 q 772 217 696 132 q 848 437 848 303 q 817 565 848 521 q 739 610 785 610 q 679 584 704 610 q 644 509 653 557 l 572 119 z "},"χ":{"ha":798,"x_min":-28,"x_max":807,"o":"m 494 367 l 710 0 l 510 0 l 382 253 l 187 0 l -28 0 l 304 380 l 106 726 l 301 726 l 419 496 l 603 726 l 807 726 l 494 367 z "},"ψ":{"ha":1090,"x_min":89,"x_max":1065,"o":"m 1065 726 l 1006 385 q 928 174 984 258 q 781 42 872 89 q 566 -12 690 -5 l 517 -285 l 351 -285 l 400 -12 q 89 281 89 21 q 100 385 89 326 l 164 726 l 334 726 l 288 477 q 263 337 266 359 q 261 297 261 316 q 427 122 261 140 l 536 726 l 699 726 l 589 121 q 753 199 690 134 q 837 374 817 264 l 900 726 l 1065 726 z "},"ω":{"ha":1104,"x_min":56,"x_max":1055,"o":"m 871 747 q 1008 604 961 695 q 1055 414 1055 513 q 953 117 1055 247 q 700 -14 851 -14 q 517 87 564 -14 q 297 -14 435 -14 q 120 59 185 -14 q 56 252 56 131 q 130 521 56 392 q 343 747 204 650 l 446 635 q 288 464 345 564 q 232 257 232 363 q 258 161 232 194 q 332 127 285 127 q 358 130 346 127 q 383 139 371 133 q 407 154 395 144 q 431 176 419 163 q 454 208 442 190 q 478 318 457 212 q 500 435 493 391 q 513 525 510 495 l 684 525 q 667 454 676 498 q 645 349 657 411 l 619 221 q 641 162 619 197 q 711 127 663 127 q 833 208 785 127 q 882 410 882 289 q 778 637 882 558 l 871 747 z "},"ϊ":{"ha":392,"x_min":-3,"x_max":557,"o":"m 340 726 l 256 283 q 237 142 237 187 q 261 80 237 103 q 323 57 286 57 q 201 -7 284 -7 q 101 36 138 -7 q 65 138 65 79 q 96 359 65 205 l 168 726 l 340 726 m 460 1022 q 528 994 500 1022 q 557 926 557 966 q 528 858 557 887 q 460 829 499 829 q 392 858 420 829 q 364 926 364 886 q 392 995 364 967 q 460 1022 419 1022 m 94 1022 q 163 995 135 1022 q 191 926 191 967 q 162 858 191 887 q 94 829 134 829 q 26 858 54 829 q -3 926 -3 886 q 25 995 -3 967 q 94 1022 54 1022 z "},"ϋ":{"ha":818,"x_min":79,"x_max":772,"o":"m 766 726 q 772 635 772 677 q 727 323 772 473 q 579 80 681 173 q 338 -12 477 -12 q 147 54 215 -12 q 79 233 79 120 q 94 360 79 288 l 171 726 l 346 726 l 288 441 q 260 289 264 317 q 257 244 257 262 q 361 129 257 129 q 491 203 433 129 q 573 420 549 277 q 596 643 596 563 q 593 726 596 683 l 766 726 m 664 1022 q 732 994 704 1022 q 761 926 761 966 q 732 858 761 887 q 664 829 703 829 q 596 858 624 829 q 568 926 568 886 q 596 995 568 967 q 664 1022 623 1022 m 294 1022 q 362 995 335 1022 q 390 926 390 967 q 362 858 390 887 q 294 829 334 829 q 226 858 254 829 q 197 926 197 886 q 225 995 197 967 q 294 1022 254 1022 z "},"ό":{"ha":806,"x_min":52,"x_max":768,"o":"m 52 272 q 172 604 52 468 q 475 741 292 741 q 691 668 614 741 q 768 460 768 595 q 711 214 768 321 q 561 46 654 106 q 343 -14 467 -14 q 127 61 202 -14 q 52 272 52 135 m 228 281 q 361 125 228 125 q 528 221 467 125 q 590 456 590 317 q 457 602 590 602 q 290 505 352 602 q 228 281 228 408 m 668 1092 l 545 868 l 414 868 l 492 1092 l 668 1092 z "},"ύ":{"ha":818,"x_min":79,"x_max":772,"o":"m 766 726 q 772 635 772 677 q 727 323 772 473 q 579 80 681 173 q 338 -12 477 -12 q 147 54 215 -12 q 79 233 79 120 q 94 360 79 288 l 171 726 l 346 726 l 288 441 q 260 289 264 317 q 257 244 257 262 q 361 129 257 129 q 491 203 433 129 q 573 420 549 277 q 596 643 596 563 q 593 726 596 683 l 766 726 m 659 1092 l 534 868 l 404 868 l 482 1092 l 659 1092 z "},"ώ":{"ha":1104,"x_min":56,"x_max":1055,"o":"m 871 747 q 1008 604 961 695 q 1055 414 1055 513 q 953 117 1055 247 q 700 -14 851 -14 q 517 87 564 -14 q 297 -14 435 -14 q 120 59 185 -14 q 56 252 56 131 q 130 521 56 392 q 343 747 204 650 l 446 635 q 288 464 345 564 q 232 257 232 363 q 258 161 232 194 q 332 127 285 127 q 358 130 346 127 q 383 139 371 133 q 407 154 395 144 q 431 176 419 163 q 454 208 442 190 q 478 318 457 212 q 500 435 493 391 q 513 525 510 495 l 684 525 q 667 454 676 498 q 645 349 657 411 l 619 221 q 641 162 619 197 q 711 127 663 127 q 833 208 785 127 q 882 410 882 289 q 778 637 882 558 l 871 747 m 811 1092 l 688 868 l 557 868 l 635 1092 l 811 1092 z "},"Ё":{"ha":799,"x_min":36,"x_max":859,"o":"m 829 839 l 371 839 l 329 610 l 659 610 l 631 463 l 301 463 l 245 154 l 697 154 l 668 0 l 36 0 l 218 993 l 859 993 l 829 839 m 732 1296 q 801 1269 770 1296 q 831 1203 831 1242 q 801 1136 831 1162 q 732 1109 772 1109 q 664 1135 694 1109 q 633 1203 633 1160 q 662 1270 633 1243 q 732 1296 691 1296 m 416 1296 q 485 1271 454 1296 q 515 1203 515 1246 q 487 1137 515 1164 q 416 1109 458 1109 q 348 1135 378 1109 q 318 1203 318 1160 q 348 1269 318 1241 q 416 1296 377 1296 z "},"Ђ":{"ha":1065,"x_min":143,"x_max":1008,"o":"m 522 456 l 439 0 l 260 0 l 415 840 l 143 840 l 171 993 l 924 993 l 896 840 l 593 840 l 547 596 q 704 612 623 612 q 925 543 843 612 q 1008 354 1008 473 q 968 180 1008 270 q 850 42 929 90 q 669 -7 770 -7 q 587 -1 639 -7 l 615 144 q 673 139 650 139 q 761 169 724 139 q 812 250 798 199 q 827 336 827 301 q 784 436 827 401 q 663 471 741 471 q 522 456 597 471 z "},"Ѓ":{"ha":772,"x_min":36,"x_max":842,"o":"m 814 839 l 376 839 l 216 0 l 36 0 l 224 993 l 842 993 l 814 839 m 789 1303 l 607 1078 l 467 1078 l 606 1303 l 789 1303 z "},"Є":{"ha":818,"x_min":74,"x_max":839,"o":"m 839 972 l 786 811 q 615 861 708 861 q 422 789 511 861 q 289 591 334 716 l 654 591 l 628 446 l 253 446 q 248 386 248 412 q 311 194 248 252 q 469 135 375 135 q 715 222 593 135 l 711 61 q 439 -17 608 -17 q 171 88 268 -17 q 74 371 74 193 q 143 681 74 534 q 336 920 212 828 q 629 1011 460 1011 q 839 972 741 1011 z "},"Ѕ":{"ha":710,"x_min":28,"x_max":690,"o":"m 636 798 q 476 856 557 856 q 313 732 313 856 q 400 607 313 680 q 552 476 523 503 q 605 410 582 450 q 637 339 627 371 q 647 272 647 307 q 546 61 647 138 q 281 -17 445 -17 q 28 40 148 -17 l 85 215 q 296 146 177 146 q 415 177 367 146 q 464 265 464 208 q 444 322 464 292 q 382 384 423 351 l 271 473 q 186 553 212 521 q 145 627 160 585 q 131 714 131 669 q 222 931 131 852 q 460 1011 314 1011 q 581 999 498 1011 q 690 974 663 987 l 636 798 z "},"І":{"ha":386,"x_min":46,"x_max":406,"o":"m 224 0 l 46 0 l 229 993 l 406 993 l 224 0 z "},"Ї":{"ha":386,"x_min":46,"x_max":602,"o":"m 224 0 l 46 0 l 229 993 l 406 993 l 224 0 m 503 1296 q 571 1269 541 1296 q 602 1203 602 1242 q 572 1136 602 1162 q 503 1109 543 1109 q 434 1135 465 1109 q 404 1203 404 1160 q 433 1270 404 1243 q 503 1296 462 1296 m 187 1296 q 255 1271 224 1296 q 286 1203 286 1246 q 258 1137 286 1164 q 187 1109 229 1109 q 119 1135 149 1109 q 89 1203 89 1160 q 119 1269 89 1242 q 187 1296 149 1296 z "},"Ј":{"ha":689,"x_min":8,"x_max":720,"o":"m 12 228 l 167 228 q 240 142 167 142 q 347 166 309 142 q 398 232 384 191 q 431 374 412 272 l 545 993 l 720 993 l 606 372 q 469 59 560 131 q 220 -14 377 -14 q 67 36 127 -14 q 8 178 8 85 q 12 228 8 199 z "},"Љ":{"ha":1425,"x_min":-25,"x_max":1372,"o":"m 1193 351 q 1011 486 1193 486 q 913 479 977 486 l 851 147 q 937 143 923 143 q 1133 206 1074 143 q 1193 351 1193 269 m 937 619 q 1054 628 1016 628 q 1288 562 1204 628 q 1372 374 1372 495 q 1261 107 1372 214 q 947 0 1150 0 l 650 0 l 807 843 l 612 843 q 441 358 539 567 q 244 70 344 150 q -25 -9 144 -9 l 7 154 q 91 169 52 154 q 171 224 131 184 q 269 380 211 264 q 386 659 328 495 q 490 993 444 823 l 1007 993 l 937 619 z "},"Њ":{"ha":1320,"x_min":36,"x_max":1266,"o":"m 1088 351 q 905 486 1088 486 q 807 479 871 486 l 746 147 q 832 143 818 143 q 1028 206 968 143 q 1088 351 1088 269 m 833 619 q 949 628 911 628 q 1182 562 1099 628 q 1266 374 1266 495 q 1156 107 1266 214 q 842 0 1045 0 l 543 0 l 628 463 l 300 463 l 215 0 l 36 0 l 218 993 l 397 993 l 326 610 l 656 610 l 725 993 l 903 993 l 833 619 z "},"Ћ":{"ha":1090,"x_min":143,"x_max":1003,"o":"m 524 456 l 441 0 l 262 0 l 414 840 l 143 840 l 171 993 l 924 993 l 896 840 l 593 840 l 549 596 q 703 612 625 612 q 923 547 842 612 q 1003 365 1003 481 q 996 294 1003 331 l 940 0 l 758 0 l 802 233 q 817 340 817 319 q 661 471 817 471 q 524 456 597 471 z "},"Ќ":{"ha":886,"x_min":36,"x_max":933,"o":"m 933 997 l 905 840 q 876 842 899 842 q 832 826 848 842 q 796 758 816 810 q 687 604 760 667 q 517 521 614 540 q 703 239 699 455 q 716 166 704 181 q 762 151 728 151 q 790 154 778 151 l 761 -4 q 703 -8 741 -8 q 573 39 613 -8 q 533 189 533 85 q 479 389 533 328 q 302 450 425 450 l 294 450 l 212 0 l 36 0 l 218 993 l 395 993 l 321 600 l 328 600 q 643 817 566 600 q 725 956 677 912 q 871 1000 772 1000 q 933 997 908 1000 m 804 1303 l 623 1078 l 482 1078 l 621 1303 l 804 1303 z "},"Ў":{"ha":861,"x_min":50,"x_max":966,"o":"m 966 993 q 685 426 838 672 q 400 85 532 180 q 66 -9 269 -9 l 50 -9 l 83 153 q 115 151 92 151 q 386 278 279 151 l 132 993 l 322 993 l 503 411 q 781 993 669 686 l 966 993 m 835 1278 q 558 1074 779 1074 q 395 1127 455 1074 q 334 1275 334 1181 q 338 1317 334 1295 l 485 1301 q 482 1273 482 1286 q 572 1189 482 1189 q 699 1308 677 1189 l 835 1278 z "},"Џ":{"ha":911,"x_min":36,"x_max":940,"o":"m 317 0 l 36 0 l 218 993 l 396 993 l 241 154 l 608 154 l 762 993 l 940 993 l 758 0 l 478 0 l 427 -285 l 265 -285 l 317 0 z "},"А":{"ha":880,"x_min":-53,"x_max":818,"o":"m 633 0 l 603 203 l 248 203 l 131 0 l -53 0 l 550 1007 l 614 1007 l 818 0 l 633 0 m 526 705 l 322 335 l 583 335 l 526 705 z "},"Б":{"ha":823,"x_min":36,"x_max":819,"o":"m 585 345 q 401 469 585 469 q 297 464 351 469 l 239 147 q 332 143 294 143 q 527 203 469 143 q 585 345 585 264 m 322 604 q 444 611 394 611 q 683 545 597 611 q 770 359 770 479 q 657 102 770 205 q 342 0 545 0 l 36 0 l 218 993 l 819 993 l 793 840 l 370 840 l 322 604 z "},"В":{"ha":827,"x_min":36,"x_max":790,"o":"m 623 546 q 735 461 694 519 q 775 334 775 403 q 655 85 775 178 q 260 -8 536 -8 q 36 0 170 -8 l 218 991 q 444 1007 345 1007 q 702 944 614 1007 q 790 764 790 881 q 746 633 790 690 q 623 546 703 575 m 368 856 l 323 611 q 411 610 349 610 q 564 649 513 610 q 614 749 614 688 q 463 863 614 863 q 368 856 416 863 m 301 485 l 237 142 q 309 139 258 139 q 531 190 467 139 q 595 322 595 241 q 387 488 595 488 q 301 485 353 488 z "},"Г":{"ha":772,"x_min":36,"x_max":842,"o":"m 814 839 l 376 839 l 216 0 l 36 0 l 224 993 l 842 993 l 814 839 z "},"Д":{"ha":1029,"x_min":-83,"x_max":1010,"o":"m 851 146 l 962 146 l 885 -285 l 728 -285 l 779 0 l 127 0 l 74 -285 l -83 -285 l -3 146 l 65 146 q 295 456 174 262 q 545 993 416 650 l 1010 993 l 851 146 m 818 848 l 644 848 q 474 461 583 661 q 260 146 365 262 l 679 146 l 818 848 z "},"Е":{"ha":799,"x_min":36,"x_max":859,"o":"m 829 839 l 371 839 l 329 610 l 659 610 l 631 463 l 301 463 l 245 154 l 697 154 l 668 0 l 36 0 l 218 993 l 859 993 l 829 839 z "},"Ж":{"ha":1307,"x_min":3,"x_max":1353,"o":"m 1353 997 l 1324 842 q 1297 843 1318 843 q 1250 823 1265 843 q 1218 757 1234 802 q 957 521 1146 561 q 1125 239 1118 450 q 1139 165 1127 180 q 1183 150 1150 150 q 1207 153 1195 150 l 1179 -4 q 1124 -8 1161 -8 q 1003 37 1042 -8 q 965 178 965 82 q 762 452 965 452 l 681 0 l 511 0 l 593 452 q 285 184 375 452 q 199 38 251 83 q 60 -8 146 -8 q 3 -4 21 -8 l 32 153 q 56 150 41 150 q 101 166 85 150 q 140 244 117 182 q 422 526 218 463 q 248 757 254 572 q 237 823 245 803 q 199 843 229 843 q 168 842 174 843 l 196 997 q 258 1000 220 1000 q 372 957 338 1000 q 406 821 406 913 q 456 652 406 705 q 619 599 507 599 l 693 993 l 863 993 l 789 599 q 966 654 891 599 q 1076 815 1040 710 q 1155 956 1109 911 q 1289 1000 1202 1000 q 1353 997 1329 1000 z "},"З":{"ha":762,"x_min":8,"x_max":762,"o":"m 558 534 q 669 456 630 511 q 709 328 709 400 q 664 166 709 248 q 519 34 618 85 q 285 -17 419 -17 q 139 3 217 -17 q 8 54 61 23 l 68 211 q 179 156 115 177 q 301 135 243 135 q 464 187 400 135 q 527 326 527 239 q 475 434 527 398 q 335 469 423 469 q 228 465 271 469 l 253 610 q 353 604 307 604 q 520 649 461 604 q 580 765 580 694 q 446 861 580 861 q 222 810 337 861 l 175 962 q 475 1011 319 1011 q 684 952 606 1011 q 762 791 762 893 q 704 632 762 700 q 558 534 647 564 z "},"И":{"ha":968,"x_min":36,"x_max":997,"o":"m 812 0 l 633 0 l 754 661 l 113 -16 l 36 -16 l 221 993 l 400 993 l 278 332 l 921 1008 l 997 1008 l 812 0 z "},"Й":{"ha":968,"x_min":36,"x_max":997,"o":"m 812 0 l 633 0 l 754 661 l 113 -16 l 36 -16 l 221 993 l 400 993 l 278 332 l 921 1008 l 997 1008 l 812 0 m 913 1278 q 636 1074 857 1074 q 473 1127 533 1074 q 412 1275 412 1181 q 415 1317 412 1295 l 562 1301 q 560 1273 560 1286 q 650 1189 560 1189 q 778 1308 755 1189 l 913 1278 z "},"К":{"ha":886,"x_min":36,"x_max":933,"o":"m 933 997 l 905 840 q 876 842 899 842 q 832 826 848 842 q 796 758 816 810 q 687 604 760 667 q 517 521 614 540 q 703 239 699 455 q 716 166 704 181 q 762 151 728 151 q 790 154 778 151 l 761 -4 q 703 -8 741 -8 q 573 39 613 -8 q 533 189 533 85 q 479 389 533 328 q 302 450 425 450 l 294 450 l 212 0 l 36 0 l 218 993 l 395 993 l 321 600 l 328 600 q 643 817 566 600 q 725 956 677 912 q 871 1000 772 1000 q 933 997 908 1000 z "},"Л":{"ha":981,"x_min":-25,"x_max":1010,"o":"m 825 0 l 647 0 l 807 843 l 618 843 q 447 365 548 580 q 245 71 345 151 q -25 -9 145 -9 l 7 154 q 91 169 52 154 q 171 224 131 184 q 270 380 210 264 q 390 663 330 497 q 496 993 450 828 l 1010 993 l 825 0 z "},"М":{"ha":1101,"x_min":-17,"x_max":1010,"o":"m 835 0 l 823 550 l 522 -14 l 460 -14 l 361 547 l 155 0 l -17 0 l 353 993 l 454 993 l 558 350 l 889 993 l 982 993 l 1010 0 l 835 0 z "},"Н":{"ha":943,"x_min":36,"x_max":972,"o":"m 787 0 l 610 0 l 694 463 l 300 463 l 215 0 l 36 0 l 218 993 l 397 993 l 326 610 l 722 610 l 791 993 l 972 993 l 787 0 z "},"О":{"ha":977,"x_min":75,"x_max":968,"o":"m 75 370 q 219 822 75 632 q 597 1011 363 1011 q 870 918 773 1011 q 968 643 968 825 q 895 288 968 438 q 703 60 823 138 q 415 -17 583 -17 q 166 90 257 -17 q 75 370 75 196 m 258 387 q 304 206 258 275 q 437 138 349 138 q 692 283 597 138 q 786 629 786 429 q 585 857 786 857 q 351 708 444 857 q 258 387 258 559 z "},"П":{"ha":911,"x_min":36,"x_max":940,"o":"m 758 0 l 579 0 l 733 839 l 370 839 l 215 0 l 36 0 l 218 993 l 940 993 l 758 0 z "},"Р":{"ha":817,"x_min":36,"x_max":833,"o":"m 283 366 l 216 0 l 36 0 l 224 991 q 439 1007 354 1007 q 833 711 833 1007 q 714 449 833 545 q 404 353 595 353 q 283 366 342 353 m 371 843 l 311 515 q 400 505 353 505 q 582 555 514 505 q 650 697 650 606 q 472 854 650 854 q 371 843 429 854 z "},"С":{"ha":814,"x_min":74,"x_max":836,"o":"m 787 803 q 615 857 711 857 q 361 713 465 857 q 257 389 257 570 q 314 204 257 271 q 469 138 371 138 q 714 222 625 138 l 711 66 q 433 -17 614 -17 q 172 90 270 -17 q 74 366 74 196 q 147 702 74 555 q 341 930 220 849 q 624 1011 461 1011 q 836 971 743 1011 l 787 803 z "},"Т":{"ha":913,"x_min":143,"x_max":979,"o":"m 950 839 l 637 839 l 484 0 l 306 0 l 458 839 l 143 839 l 171 993 l 979 993 l 950 839 z "},"У":{"ha":861,"x_min":50,"x_max":966,"o":"m 966 993 q 685 426 838 672 q 400 85 532 180 q 66 -9 269 -9 l 50 -9 l 83 153 q 115 151 92 151 q 386 278 279 151 l 132 993 l 322 993 l 503 411 q 781 993 669 686 l 966 993 z "},"Ф":{"ha":1099,"x_min":83,"x_max":1091,"o":"m 750 918 q 1001 820 910 908 q 1091 587 1091 731 q 962 251 1091 398 q 597 85 833 103 l 579 -22 l 407 -22 l 425 86 q 174 185 264 96 q 83 418 83 275 q 217 756 83 611 q 578 920 351 902 l 597 1026 l 769 1026 l 750 918 m 618 216 q 848 344 772 235 q 924 586 924 452 q 725 789 924 771 l 618 216 m 558 787 q 329 663 408 772 q 251 421 251 555 q 451 215 251 234 l 558 787 z "},"Х":{"ha":879,"x_min":-35,"x_max":960,"o":"m 568 504 l 791 0 l 596 0 l 447 359 l 174 0 l -35 0 l 379 521 l 172 993 l 361 993 l 498 663 l 754 993 l 960 993 l 568 504 z "},"Ц":{"ha":937,"x_min":36,"x_max":918,"o":"m 689 0 l 36 0 l 218 993 l 396 993 l 241 154 l 587 154 l 742 993 l 918 993 l 764 154 l 878 154 l 799 -285 l 637 -285 l 689 0 z "},"Ч":{"ha":873,"x_min":149,"x_max":910,"o":"m 910 993 l 727 0 l 548 0 l 621 395 q 448 375 532 375 q 227 438 306 375 q 149 618 149 502 q 156 692 149 653 l 213 993 l 401 993 l 358 770 q 340 670 341 683 q 338 646 338 658 q 488 519 338 519 q 646 541 559 519 l 731 993 l 910 993 z "},"Ш":{"ha":1279,"x_min":36,"x_max":1308,"o":"m 1308 993 l 1126 0 l 36 0 l 218 993 l 389 993 l 233 147 l 524 147 l 679 993 l 850 993 l 694 147 l 985 147 l 1140 993 l 1308 993 z "},"Щ":{"ha":1328,"x_min":36,"x_max":1308,"o":"m 1026 -285 l 1078 0 l 36 0 l 218 993 l 389 993 l 233 147 l 524 147 l 679 993 l 850 993 l 694 147 l 985 147 l 1140 993 l 1308 993 l 1153 151 l 1264 151 l 1186 -285 l 1026 -285 z "},"Ъ":{"ha":1092,"x_min":142,"x_max":1038,"o":"m 857 350 q 813 451 857 416 q 668 486 768 486 q 568 479 635 486 l 507 147 q 596 143 581 143 q 795 204 732 143 q 857 350 857 264 m 593 619 q 721 628 659 628 q 955 562 871 628 q 1038 374 1038 495 q 922 105 1038 211 q 604 0 806 0 l 306 0 l 460 839 l 142 839 l 168 993 l 663 993 l 593 619 z "},"Ы":{"ha":1150,"x_min":36,"x_max":1179,"o":"m 582 351 q 399 486 582 486 q 297 479 362 486 l 236 147 q 322 143 308 143 q 520 205 459 143 q 582 351 582 268 m 322 619 q 441 628 401 628 q 676 561 592 628 q 761 373 761 494 q 648 106 761 212 q 332 0 535 0 l 36 0 l 216 993 l 392 993 l 322 619 m 1179 993 l 999 0 l 822 0 l 1003 993 l 1179 993 z "},"Ь":{"ha":839,"x_min":36,"x_max":785,"o":"m 601 352 q 419 486 601 486 q 301 479 380 486 l 240 147 q 343 143 296 143 q 540 205 479 143 q 601 352 601 268 m 326 621 q 463 629 411 629 q 700 561 614 629 q 785 371 785 493 q 668 104 785 209 q 347 0 550 0 l 36 0 l 216 993 l 396 993 l 326 621 z "},"Э":{"ha":829,"x_min":3,"x_max":812,"o":"m 174 958 q 460 1011 307 1011 q 721 912 630 1011 q 812 633 812 813 q 754 327 812 486 q 572 76 696 168 q 273 -17 449 -17 q 3 61 109 -17 l 64 224 q 166 161 106 184 q 288 138 227 138 q 490 220 401 138 q 611 446 579 302 l 237 446 l 264 591 l 632 591 q 634 637 634 616 q 440 860 634 860 q 222 807 327 860 l 174 958 z "},"Ю":{"ha":1307,"x_min":36,"x_max":1289,"o":"m 484 603 q 670 903 545 798 q 951 1008 795 1008 q 1205 907 1120 1008 q 1289 637 1289 806 q 1229 335 1289 491 q 1051 79 1169 178 q 764 -20 933 -20 q 524 77 604 -20 q 444 345 444 174 q 452 449 444 395 l 292 449 l 210 0 l 36 0 l 216 993 l 389 993 l 319 603 l 484 603 m 787 134 q 1029 299 947 134 q 1112 640 1112 465 q 929 856 1112 856 q 699 693 783 856 q 614 353 614 530 q 663 184 614 235 q 787 134 711 134 z "},"Я":{"ha":873,"x_min":-21,"x_max":903,"o":"m 903 987 l 721 0 l 546 0 l 624 412 l 596 412 q 381 355 459 412 q 267 178 302 298 q 185 36 237 81 q 45 -8 133 -8 q -21 -4 -2 -8 l 7 153 q 36 150 22 150 q 80 168 64 150 q 117 244 96 186 q 212 392 146 332 q 364 475 277 453 q 212 567 248 510 q 176 686 176 625 q 292 911 176 818 q 615 1004 408 1004 q 903 987 722 1004 m 707 856 q 586 863 656 863 q 414 812 475 863 q 353 686 353 762 q 375 615 353 644 q 441 571 397 586 q 550 554 486 555 l 650 553 l 707 856 z "},"а":{"ha":774,"x_min":54,"x_max":760,"o":"m 671 204 q 694 0 671 58 l 587 0 q 518 72 541 0 q 301 -14 430 -14 q 119 52 184 -14 q 54 237 54 117 q 180 594 54 447 q 494 741 305 741 q 760 705 680 741 l 704 412 q 672 241 674 257 q 671 204 671 226 m 479 602 q 298 495 366 602 q 231 241 231 388 q 346 125 231 125 q 472 213 418 125 q 571 587 526 300 q 479 602 525 602 z "},"б":{"ha":814,"x_min":74,"x_max":863,"o":"m 863 903 q 611 859 802 867 q 447 832 501 853 q 350 760 392 810 q 279 625 307 709 q 521 697 399 697 q 720 626 648 697 q 793 432 793 554 q 737 209 793 319 q 584 43 681 99 q 371 -14 488 -14 q 151 70 228 -14 q 74 304 74 153 q 136 627 74 444 q 307 903 198 810 q 631 1011 415 996 q 825 1047 760 1019 l 863 903 m 275 496 q 244 304 244 411 q 282 169 244 216 q 392 122 321 122 q 557 211 494 122 q 621 414 621 299 q 583 526 621 487 q 478 566 546 566 q 275 496 371 566 z "},"в":{"ha":782,"x_min":47,"x_max":736,"o":"m 574 372 q 713 215 713 338 q 621 47 713 111 q 361 -16 528 -16 q 231 -5 303 -16 q 115 19 158 6 q 59 42 71 33 q 47 64 47 51 q 84 258 47 72 q 132 491 120 445 q 178 592 143 538 q 260 681 213 647 q 365 729 308 714 q 486 745 421 745 q 669 690 602 745 q 736 550 736 635 q 692 437 736 487 q 574 372 648 387 m 278 432 l 397 432 q 574 538 574 432 q 546 594 574 572 q 468 616 518 616 q 278 432 315 616 m 225 151 q 279 128 235 138 q 371 118 323 118 q 543 228 543 118 q 508 287 543 263 q 412 311 473 311 l 256 311 l 225 151 z "},"г":{"ha":677,"x_min":39,"x_max":667,"o":"m 138 688 q 412 741 272 741 q 601 692 536 741 q 667 559 667 644 q 625 435 667 481 q 490 353 583 389 q 325 293 396 317 q 243 248 267 271 q 218 192 218 225 q 315 127 218 127 q 583 211 436 127 l 561 32 q 279 -14 421 -14 q 102 38 166 -14 q 39 179 39 90 q 243 407 39 336 q 434 477 411 467 q 474 502 457 487 q 490 546 490 517 q 392 600 490 600 q 204 546 294 600 l 138 688 z "},"д":{"ha":839,"x_min":54,"x_max":842,"o":"m 254 1023 q 481 1039 356 1039 q 842 713 842 1039 q 779 357 842 549 q 610 76 715 165 q 357 -14 504 -14 q 134 62 214 -14 q 54 268 54 138 q 169 569 54 439 q 471 700 284 700 q 672 647 581 700 q 673 697 673 665 q 624 851 673 802 q 456 900 574 900 q 277 869 368 900 l 254 1023 m 652 517 q 467 568 565 568 q 296 483 365 568 q 228 279 228 397 q 368 122 228 122 q 652 517 570 122 z "},"е":{"ha":755,"x_min":61,"x_max":754,"o":"m 232 318 l 232 285 q 278 168 232 210 q 406 126 324 126 q 504 147 450 126 q 593 200 558 168 l 571 25 q 366 -14 481 -14 q 142 71 224 -14 q 61 298 61 155 q 114 518 61 416 q 267 681 167 621 q 498 741 367 741 q 683 692 612 741 q 754 550 754 643 q 647 359 754 429 q 385 290 540 290 q 232 318 308 290 m 257 441 q 370 425 305 425 q 586 534 586 425 q 473 602 586 602 q 338 555 397 602 q 257 441 279 509 z "},"ж":{"ha":1088,"x_min":3,"x_max":1103,"o":"m 1103 730 l 1078 593 q 1048 596 1063 596 q 1004 549 1021 596 q 793 378 951 410 q 942 182 928 322 q 951 143 944 155 q 974 132 958 132 q 1006 135 998 132 l 981 -4 q 914 -8 947 -8 q 826 24 857 -8 q 794 117 794 56 q 631 315 794 313 l 574 0 l 418 0 l 475 315 q 322 268 380 315 q 233 119 263 220 q 66 -8 197 -8 q 3 -4 36 -8 l 28 135 q 56 132 35 132 q 102 180 82 132 q 329 386 161 336 q 228 444 265 401 q 184 545 190 486 q 175 584 182 571 q 150 596 168 596 q 121 593 138 596 l 146 730 q 214 734 195 734 q 326 616 326 734 q 500 450 326 454 l 549 726 l 704 726 l 656 450 q 875 612 825 450 q 1031 734 912 734 q 1103 730 1051 734 z "},"з":{"ha":671,"x_min":3,"x_max":653,"o":"m 500 375 q 610 235 610 336 q 520 57 610 129 q 267 -16 431 -16 q 3 37 117 -16 l 81 182 q 283 122 172 122 q 394 152 350 122 q 437 233 437 182 q 314 313 437 313 q 214 309 257 313 l 237 440 q 342 439 263 439 q 446 466 407 439 q 485 536 485 492 q 460 587 485 567 q 385 607 435 607 q 174 559 286 607 l 136 707 q 406 742 271 742 q 588 692 522 742 q 653 561 653 643 q 612 448 653 498 q 500 375 572 398 z "},"и":{"ha":806,"x_min":78,"x_max":802,"o":"m 665 0 l 496 0 l 505 53 q 278 -14 416 -14 q 131 41 184 -14 q 78 189 78 96 q 104 355 78 218 l 174 726 l 346 726 q 259 264 264 290 q 254 215 254 239 q 353 127 254 127 q 490 182 434 127 q 556 302 545 237 l 631 726 l 802 726 l 665 0 z "},"й":{"ha":806,"x_min":78,"x_max":802,"o":"m 665 0 l 496 0 l 505 53 q 278 -14 416 -14 q 131 41 184 -14 q 78 189 78 96 q 104 355 78 218 l 174 726 l 346 726 q 259 264 264 290 q 254 215 254 239 q 353 127 254 127 q 490 182 434 127 q 556 302 545 237 l 631 726 l 802 726 l 665 0 m 778 1035 q 501 831 722 831 q 338 884 398 831 q 277 1032 277 938 q 281 1074 277 1052 l 428 1059 q 425 1030 425 1043 q 515 946 425 946 q 643 1065 621 946 l 778 1035 z "},"к":{"ha":761,"x_min":40,"x_max":777,"o":"m 777 730 l 751 593 q 720 596 734 596 q 675 551 692 596 q 458 378 617 404 q 618 170 611 326 q 652 132 620 132 q 682 135 662 132 l 657 -4 q 579 -8 621 -8 q 489 25 522 -8 q 457 119 457 58 q 273 313 457 313 l 267 313 l 211 0 l 40 0 l 171 726 l 342 726 l 293 453 l 301 453 q 532 615 477 453 q 588 705 552 675 q 696 734 623 734 q 777 730 720 734 z "},"л":{"ha":846,"x_min":-7,"x_max":842,"o":"m 711 0 l 539 0 l 647 593 l 469 593 q 388 301 441 439 q 272 98 335 163 q 144 13 208 34 q -7 -8 80 -8 l 22 142 q 160 208 106 142 q 259 408 214 275 q 342 726 304 541 l 842 726 l 711 0 z "},"м":{"ha":1053,"x_min":-7,"x_max":964,"o":"m 793 0 l 800 385 l 514 -12 l 453 -12 l 317 389 l 163 0 l -7 0 l 306 741 l 367 741 l 534 245 l 889 741 l 951 741 l 964 0 l 793 0 z "},"н":{"ha":817,"x_min":40,"x_max":812,"o":"m 682 0 l 510 0 l 566 311 l 268 311 l 212 0 l 40 0 l 171 726 l 343 726 l 293 452 l 590 452 l 640 726 l 812 726 l 682 0 z "},"о":{"ha":790,"x_min":54,"x_max":771,"o":"m 54 272 q 175 604 54 468 q 478 741 295 741 q 694 668 616 741 q 771 460 771 595 q 652 123 771 260 q 346 -14 534 -14 q 130 61 205 -14 q 54 272 54 135 m 231 281 q 364 125 231 125 q 531 221 469 125 q 593 456 593 317 q 460 602 593 602 q 293 505 355 602 q 231 281 231 408 z "},"п":{"ha":804,"x_min":41,"x_max":757,"o":"m 665 0 l 490 0 l 571 430 q 579 509 579 474 q 472 599 579 599 q 310 522 380 599 l 212 0 l 41 0 l 144 545 q 147 583 147 564 q 127 713 147 642 l 293 743 l 310 663 q 533 741 400 741 q 757 530 757 741 q 751 465 757 492 l 665 0 z "},"р":{"ha":810,"x_min":-11,"x_max":790,"o":"m 212 20 l 158 -285 l -11 -285 l 135 501 q 143 589 143 545 q 131 710 143 649 l 296 739 q 313 669 306 714 q 498 741 406 741 q 790 458 790 741 q 671 119 790 252 q 355 -14 552 -14 q 212 20 277 -14 m 239 164 q 338 129 274 129 q 541 210 469 129 q 612 440 612 292 q 570 551 612 510 q 453 593 527 593 q 404 584 429 593 q 360 564 379 574 q 330 544 342 553 q 309 524 318 535 q 286 412 307 522 l 239 164 z "},"с":{"ha":681,"x_min":61,"x_max":673,"o":"m 639 547 q 494 599 567 599 q 307 512 378 599 q 236 293 236 425 q 276 178 236 228 q 379 129 315 129 q 593 207 469 129 l 572 29 q 358 -14 465 -14 q 141 62 221 -14 q 61 272 61 138 q 117 519 61 414 q 266 682 173 624 q 485 741 359 741 q 673 694 593 741 l 639 547 z "},"т":{"ha":1196,"x_min":41,"x_max":1149,"o":"m 1145 494 l 1053 0 l 879 0 l 939 318 q 968 478 967 467 q 970 504 970 490 q 869 599 970 599 q 779 566 825 599 q 730 521 732 532 l 633 0 l 460 0 l 557 513 l 558 528 q 450 599 558 599 q 360 564 408 599 q 311 519 313 530 l 214 0 l 41 0 l 139 525 q 143 582 143 544 q 123 713 143 648 l 290 742 q 306 676 301 698 q 510 741 389 741 q 714 663 653 741 q 930 741 800 741 q 1149 542 1149 741 q 1145 494 1149 513 z "},"у":{"ha":742,"x_min":29,"x_max":803,"o":"m 421 -72 q 29 -285 321 -283 l 29 -121 q 142 -107 93 -121 q 224 -65 191 -93 q 275 3 258 -38 l 310 85 q 232 146 264 96 q 182 292 200 196 l 98 726 l 277 726 q 378 228 355 254 l 611 726 l 803 726 l 421 -72 z "},"ф":{"ha":1103,"x_min":71,"x_max":1090,"o":"m 718 707 q 850 741 789 741 q 1022 674 955 741 q 1090 475 1090 608 q 1045 236 1090 355 q 914 52 1000 117 q 718 -14 828 -14 q 607 8 659 -14 q 584 -116 594 -82 q 550 -183 573 -151 q 490 -241 526 -216 q 405 -281 454 -265 q 292 -306 356 -297 l 277 -200 q 352 -175 322 -191 q 400 -134 382 -159 q 425 -84 418 -110 q 443 18 431 -58 q 300 -14 372 -14 q 134 54 198 -14 q 71 258 71 122 q 174 596 71 452 q 455 741 277 741 q 554 717 500 741 q 587 871 570 827 q 639 954 603 916 q 731 1014 675 991 q 865 1043 787 1037 l 878 937 q 786 905 817 927 q 744 847 755 884 q 718 707 732 811 m 625 134 q 701 119 661 119 q 821 168 768 119 q 900 304 874 217 q 926 463 926 392 q 805 610 926 610 q 697 589 752 610 l 625 134 m 536 597 q 452 610 492 610 q 291 499 347 610 q 235 271 235 388 q 263 159 235 199 q 365 119 291 119 q 465 146 403 119 l 536 597 z "},"х":{"ha":793,"x_min":-21,"x_max":829,"o":"m 507 368 l 715 0 l 515 0 l 393 254 l 189 0 l -21 0 l 321 379 l 126 726 l 321 726 l 435 493 l 628 726 l 829 726 l 507 368 z "},"ц":{"ha":825,"x_min":77,"x_max":790,"o":"m 790 90 l 721 -253 l 566 -253 l 619 -5 q 562 20 589 -5 q 526 82 534 45 q 273 -14 418 -14 q 131 38 185 -14 q 77 191 77 89 q 84 262 77 220 l 171 726 l 342 726 l 277 372 q 253 221 253 242 q 276 152 253 177 q 342 127 299 127 q 462 170 404 127 q 522 225 520 212 l 612 726 l 782 726 l 689 222 q 684 177 684 197 q 790 90 684 90 z "},"ч":{"ha":787,"x_min":121,"x_max":786,"o":"m 786 726 l 655 0 l 486 0 l 536 281 q 345 249 448 249 q 178 301 236 249 q 121 450 121 353 q 127 520 121 483 l 165 726 l 337 726 q 298 514 300 526 q 296 484 296 502 q 407 390 296 390 q 561 415 486 390 l 616 726 l 786 726 z "},"ш":{"ha":1178,"x_min":77,"x_max":1174,"o":"m 1174 726 l 1068 139 q 1050 0 1054 55 l 885 0 l 892 62 q 700 -14 803 -14 q 524 85 565 -14 q 288 -14 428 -14 q 131 37 185 -14 q 77 183 77 88 q 83 254 77 218 l 172 726 l 342 726 l 256 266 q 252 220 252 238 q 349 126 252 126 q 448 164 401 126 q 497 218 494 203 l 589 726 l 758 726 l 673 258 q 668 211 668 229 q 761 126 668 126 q 860 168 808 126 q 916 224 913 210 l 1006 726 l 1174 726 z "},"щ":{"ha":1206,"x_min":77,"x_max":1171,"o":"m 1101 -253 l 946 -253 l 1000 -5 q 941 20 969 -5 q 907 83 913 46 q 690 -14 819 -14 q 518 85 559 -14 q 285 -14 422 -14 q 130 37 183 -14 q 77 183 77 87 q 83 254 77 218 l 172 726 l 342 726 l 256 266 q 252 220 252 238 q 346 126 252 126 q 444 165 398 126 q 492 218 489 203 l 583 726 l 751 726 l 667 258 q 661 211 661 229 q 750 126 661 126 q 849 168 798 126 q 903 224 900 210 l 993 726 l 1161 726 l 1069 222 q 1065 177 1065 197 q 1171 90 1065 90 l 1101 -253 z "},"ъ":{"ha":892,"x_min":89,"x_max":840,"o":"m 672 241 q 639 318 672 290 q 546 346 606 346 q 424 334 492 346 l 386 140 q 513 114 424 114 q 629 150 587 114 q 672 241 672 186 m 447 457 q 597 475 523 475 q 774 413 708 475 q 840 250 840 351 q 757 65 840 144 q 496 -14 674 -14 q 341 2 426 -14 q 201 41 256 18 l 307 586 l 89 586 l 117 726 l 500 726 l 447 457 z "},"ы":{"ha":1047,"x_min":40,"x_max":1043,"o":"m 503 241 q 470 318 503 290 q 380 346 438 346 q 262 334 328 346 l 225 140 q 347 114 262 114 q 459 148 416 114 q 503 241 503 182 m 286 457 q 433 475 359 475 q 606 413 542 475 q 669 250 669 351 q 584 62 669 138 q 330 -14 499 -14 q 178 2 262 -14 q 40 41 94 18 l 171 726 l 339 726 l 286 457 m 1043 726 l 911 0 l 745 0 l 876 726 l 1043 726 z "},"ь":{"ha":747,"x_min":40,"x_max":696,"o":"m 524 241 q 491 317 524 290 q 401 345 459 345 q 264 326 341 345 l 231 146 q 280 125 241 134 q 359 117 319 117 q 475 149 427 117 q 524 241 524 182 m 289 454 q 454 475 378 475 q 630 413 565 475 q 696 250 696 351 q 609 62 696 137 q 349 -14 522 -14 q 185 2 274 -14 q 40 41 96 18 l 171 726 l 343 726 l 289 454 z "},"э":{"ha":679,"x_min":9,"x_max":653,"o":"m 149 714 q 359 742 245 742 q 576 665 500 742 q 653 447 653 587 q 606 225 653 338 q 461 48 558 112 q 225 -16 363 -16 q 9 32 112 -16 l 69 178 q 237 122 151 122 q 377 171 317 122 q 463 310 437 220 l 178 310 l 203 440 l 482 440 q 471 530 482 497 q 429 585 460 563 q 349 607 398 607 q 189 571 272 607 l 149 714 z "},"ю":{"ha":1060,"x_min":40,"x_max":1038,"o":"m 412 450 q 546 660 454 579 q 770 741 637 741 q 968 668 899 741 q 1038 469 1038 595 q 997 251 1038 366 q 865 61 956 136 q 652 -14 775 -14 q 450 58 520 -14 q 380 260 380 130 q 383 313 380 286 l 261 313 l 204 0 l 40 0 l 172 726 l 338 726 l 286 450 l 412 450 m 661 125 q 816 231 759 125 q 873 459 873 337 q 757 602 873 602 q 607 498 667 602 q 546 269 546 395 q 661 125 546 125 z "},"я":{"ha":777,"x_min":0,"x_max":762,"o":"m 286 335 q 176 391 214 350 q 137 490 137 431 q 224 661 137 586 q 481 736 311 736 q 639 725 558 736 q 741 705 720 714 q 762 682 762 696 q 760 661 762 676 l 639 0 l 471 0 l 524 275 l 472 275 q 232 107 290 275 q 71 -8 193 -8 q 0 -4 34 -8 l 25 135 q 54 132 43 132 q 97 171 82 132 q 286 335 147 298 m 582 591 q 460 608 542 608 q 348 576 387 608 q 309 496 309 543 q 322 450 309 471 q 370 416 335 429 q 458 403 404 404 l 546 401 l 582 591 z "},"ё":{"ha":755,"x_min":61,"x_max":781,"o":"m 232 318 l 232 285 q 278 168 232 210 q 406 126 324 126 q 504 147 450 126 q 593 200 558 168 l 571 25 q 366 -14 481 -14 q 142 71 224 -14 q 61 298 61 155 q 114 518 61 416 q 267 681 167 621 q 498 741 367 741 q 683 692 612 741 q 754 550 754 643 q 647 359 754 429 q 385 290 540 290 q 232 318 308 290 m 257 441 q 370 425 305 425 q 586 534 586 425 q 473 602 586 602 q 338 555 397 602 q 257 441 279 509 m 682 1053 q 751 1026 721 1053 q 781 960 781 999 q 750 892 781 917 q 682 867 720 867 q 613 892 644 867 q 583 960 583 917 q 612 1026 583 1000 q 682 1053 641 1053 m 367 1053 q 434 1028 404 1053 q 465 960 465 1004 q 437 893 465 920 q 367 867 408 867 q 298 892 328 867 q 268 960 268 917 q 297 1025 268 998 q 367 1053 327 1053 z "},"ђ":{"ha":808,"x_min":43,"x_max":761,"o":"m 329 643 q 522 703 410 703 q 696 644 631 703 q 761 474 761 585 q 739 317 761 439 l 696 85 q 648 -86 677 -24 q 572 -193 620 -149 q 447 -261 524 -237 q 278 -286 370 -285 l 304 -140 q 411 -117 367 -140 q 482 -51 456 -95 q 525 81 509 -7 l 568 313 q 590 449 590 429 q 557 533 590 503 q 468 564 525 564 q 380 543 427 564 q 301 488 334 523 l 214 0 l 43 0 l 187 803 l 85 803 l 104 911 l 207 911 l 231 1039 l 401 1039 l 378 911 l 643 911 l 624 803 l 358 803 l 329 643 z "},"ѓ":{"ha":677,"x_min":39,"x_max":682,"o":"m 138 688 q 412 741 272 741 q 601 692 536 741 q 667 559 667 644 q 625 435 667 481 q 490 353 583 389 q 325 293 396 317 q 243 249 268 272 q 218 192 218 225 q 315 127 218 127 q 583 211 436 127 l 561 32 q 279 -14 421 -14 q 102 38 166 -14 q 39 179 39 90 q 243 407 39 336 q 434 477 411 467 q 474 502 457 487 q 490 546 490 517 q 392 600 490 600 q 204 546 294 600 l 138 688 m 682 1068 l 500 843 l 359 843 l 498 1068 l 682 1068 z "},"є":{"ha":685,"x_min":61,"x_max":679,"o":"m 679 704 l 644 558 q 496 606 568 606 q 258 440 325 606 l 536 440 l 511 310 l 233 310 q 231 276 231 292 q 269 163 231 203 q 376 122 306 122 q 590 191 475 122 l 571 25 q 357 -16 463 -16 q 137 61 212 -16 q 61 282 61 137 q 115 508 61 396 q 264 681 170 621 q 488 742 358 742 q 679 704 594 742 z "},"ѕ":{"ha":633,"x_min":8,"x_max":616,"o":"m 538 528 q 389 599 456 599 q 315 579 345 599 q 285 528 285 559 q 358 450 285 488 q 471 390 427 414 q 538 329 515 366 q 561 244 561 292 q 471 56 561 125 q 241 -14 381 -14 q 8 54 122 -14 l 97 207 q 264 127 182 127 q 349 153 317 127 q 382 224 382 179 q 319 293 382 260 q 184 368 218 346 q 129 426 151 389 q 107 509 107 463 q 186 675 107 609 q 399 741 264 741 q 616 684 479 741 l 538 528 z "},"і":{"ha":435,"x_min":97,"x_max":436,"o":"m 235 956 q 264 1028 235 998 q 336 1059 294 1059 q 406 1030 376 1059 q 436 956 436 1002 q 405 882 436 909 q 336 854 374 854 q 265 884 295 854 q 235 956 235 913 m 269 0 l 97 0 l 207 590 l 114 590 l 143 726 l 406 726 l 269 0 z "},"ї":{"ha":435,"x_min":57,"x_max":570,"o":"m 372 960 q 401 1026 372 1000 q 471 1053 430 1053 q 539 1026 509 1053 q 570 960 570 999 q 540 893 570 919 q 471 867 511 867 q 402 892 433 867 q 372 960 372 917 m 269 0 l 97 0 l 207 590 l 114 590 l 143 726 l 406 726 l 269 0 m 155 1053 q 223 1028 193 1053 q 254 960 254 1004 q 226 893 254 920 q 155 867 197 867 q 87 892 117 867 q 57 960 57 917 q 87 1026 57 999 q 155 1053 117 1053 z "},"ј":{"ha":460,"x_min":-150,"x_max":461,"o":"m 260 956 q 289 1028 260 998 q 361 1059 319 1059 q 431 1030 401 1059 q 461 956 461 1002 q 431 883 461 911 q 361 854 401 854 q 289 885 318 854 q 260 956 260 915 m 296 9 q 168 -212 269 -138 q -150 -285 67 -285 l -142 -135 q 57 -100 1 -135 q 127 14 114 -65 l 231 590 l 134 590 l 165 726 l 429 726 l 296 9 z "},"љ":{"ha":1213,"x_min":-7,"x_max":1161,"o":"m 996 241 q 964 318 996 290 q 875 346 933 346 q 760 334 825 346 l 724 140 q 844 114 761 114 q 952 145 909 114 q 996 241 996 176 m 783 457 q 926 475 858 475 q 1098 413 1035 475 q 1161 250 1161 351 q 1122 113 1161 175 q 1010 19 1084 52 q 828 -14 936 -14 q 678 2 760 -14 q 543 41 597 18 l 646 593 l 464 593 q 385 306 435 439 q 270 103 334 172 q 143 13 205 35 q -7 -8 80 -8 l 22 142 q 160 208 106 142 q 259 408 214 275 q 342 726 304 541 l 835 726 l 783 457 z "},"њ":{"ha":1158,"x_min":40,"x_max":1107,"o":"m 940 241 q 908 318 940 290 q 819 346 877 346 q 704 334 770 346 l 668 140 q 789 114 705 114 q 897 145 854 114 q 940 241 940 176 m 728 457 q 872 475 801 475 q 1044 413 981 475 q 1107 250 1107 351 q 1022 61 1107 135 q 774 -14 937 -14 q 622 2 705 -14 q 486 41 540 18 l 534 311 l 264 311 l 208 0 l 40 0 l 171 726 l 339 726 l 289 452 l 561 452 l 612 726 l 779 726 l 728 457 z "},"ћ":{"ha":808,"x_min":43,"x_max":761,"o":"m 329 643 q 522 703 410 703 q 696 644 631 703 q 761 474 761 585 q 758 422 761 439 l 682 0 l 510 0 l 562 283 q 589 427 587 416 q 590 449 590 437 q 557 533 590 503 q 468 564 525 564 q 380 543 427 564 q 301 488 334 523 l 214 0 l 43 0 l 187 803 l 85 803 l 104 911 l 207 911 l 231 1039 l 401 1039 l 378 911 l 643 911 l 624 803 l 358 803 l 329 643 z "},"ќ":{"ha":761,"x_min":40,"x_max":777,"o":"m 777 730 l 751 593 q 720 596 734 596 q 675 551 692 596 q 458 378 617 404 q 618 170 611 326 q 652 132 620 132 q 682 135 662 132 l 657 -4 q 579 -8 621 -8 q 489 25 522 -8 q 457 119 457 58 q 273 313 457 313 l 267 313 l 211 0 l 40 0 l 171 726 l 342 726 l 293 453 l 301 453 q 532 615 477 453 q 588 705 552 675 q 696 734 623 734 q 777 730 720 734 m 713 1068 l 530 843 l 390 843 l 529 1068 l 713 1068 z "},"ў":{"ha":742,"x_min":29,"x_max":803,"o":"m 421 -72 q 29 -285 321 -283 l 29 -121 q 142 -107 93 -121 q 224 -65 191 -93 q 275 3 258 -38 l 310 85 q 232 146 264 96 q 182 292 200 196 l 98 726 l 277 726 q 378 228 355 254 l 611 726 l 803 726 l 421 -72 m 753 1035 q 476 831 697 831 q 313 884 373 831 q 253 1032 253 938 q 256 1074 253 1052 l 403 1059 q 400 1030 400 1043 q 490 946 400 946 q 618 1065 596 946 l 753 1035 z "},"џ":{"ha":802,"x_min":77,"x_max":798,"o":"m 510 60 q 406 7 458 26 l 355 -253 l 199 -253 l 260 -14 q 127 42 178 -9 q 77 189 77 94 q 83 263 77 225 l 170 726 l 343 726 l 256 256 q 253 215 253 236 q 350 127 253 127 q 473 170 413 127 q 534 227 532 213 l 627 726 l 798 726 l 689 139 q 671 0 676 73 l 504 0 l 510 60 z "},"Ґ":{"ha":772,"x_min":36,"x_max":880,"o":"m 814 839 l 376 839 l 216 0 l 36 0 l 224 993 l 692 993 l 730 1211 l 880 1211 l 814 839 z "},"ґ":{"ha":646,"x_min":40,"x_max":710,"o":"m 652 585 l 319 585 l 214 0 l 40 0 l 171 726 l 539 726 l 572 909 l 710 909 l 652 585 z "},"Ā":{"ha":852,"x_min":-64,"x_max":881,"o":"m 623 0 l 591 202 l 236 202 l 119 0 l -64 0 l 539 1007 l 602 1007 l 806 0 l 623 0 m 515 705 l 311 334 l 572 334 l 515 705 m 855 1063 l 307 1063 l 332 1159 l 881 1159 l 855 1063 z "},"ā":{"ha":823,"x_min":48,"x_max":806,"o":"m 670 260 q 665 205 665 235 q 688 0 665 56 l 583 0 q 512 73 535 0 q 296 -14 425 -14 q 113 53 178 -14 q 48 238 48 119 q 173 592 48 445 q 489 740 298 740 q 754 706 673 740 l 670 260 m 474 602 q 292 493 360 602 q 224 242 224 384 q 340 125 224 125 q 468 215 413 125 q 565 588 522 305 q 474 602 517 602 m 781 871 l 232 871 l 258 967 l 806 967 l 781 871 z "},"Ĉ":{"ha":851,"x_min":77,"x_max":884,"o":"m 790 802 q 618 857 713 857 q 362 712 466 857 q 259 389 259 566 q 315 206 259 275 q 472 138 372 138 q 717 222 628 138 l 713 67 q 436 -17 617 -17 q 176 89 275 -17 q 77 365 77 195 q 229 825 77 639 q 627 1010 381 1010 q 840 971 747 1010 l 790 802 m 694 1063 l 614 1160 l 484 1061 l 300 1061 l 593 1304 l 688 1304 l 884 1063 l 694 1063 z "},"ĉ":{"ha":684,"x_min":51,"x_max":746,"o":"m 629 547 q 485 599 557 599 q 297 512 368 599 q 227 294 227 425 q 267 178 227 226 q 370 130 307 130 q 583 207 460 130 l 563 30 q 349 -14 459 -14 q 131 63 212 -14 q 51 273 51 139 q 168 608 51 475 q 475 740 286 740 q 663 695 584 740 l 629 547 m 555 871 l 475 968 l 346 869 l 162 869 l 455 1112 l 549 1112 l 746 871 l 555 871 z "},"Ċ":{"ha":851,"x_min":77,"x_max":840,"o":"m 790 802 q 618 857 713 857 q 362 712 466 857 q 259 389 259 566 q 315 206 259 275 q 472 138 372 138 q 717 222 628 138 l 713 67 q 436 -17 617 -17 q 176 89 275 -17 q 77 365 77 195 q 229 825 77 639 q 627 1010 381 1010 q 840 971 747 1010 l 790 802 m 500 1155 q 532 1212 500 1190 q 604 1234 563 1234 q 675 1212 643 1234 q 707 1155 707 1190 q 676 1097 707 1120 q 604 1075 644 1075 q 532 1097 564 1075 q 500 1155 500 1119 z "},"ċ":{"ha":684,"x_min":51,"x_max":663,"o":"m 629 547 q 485 599 557 599 q 297 512 368 599 q 227 294 227 425 q 267 178 227 226 q 370 130 307 130 q 583 207 460 130 l 563 30 q 349 -14 459 -14 q 131 63 212 -14 q 51 273 51 139 q 168 608 51 475 q 475 740 286 740 q 663 695 584 740 l 629 547 m 372 951 q 404 1009 372 987 q 475 1031 435 1031 q 547 1009 515 1031 q 579 951 579 987 q 548 894 579 916 q 475 871 516 871 q 404 893 435 871 q 372 951 372 916 z "},"Ē":{"ha":824,"x_min":28,"x_max":851,"o":"m 822 839 l 364 839 l 323 610 l 651 610 l 623 463 l 295 463 l 239 155 l 690 155 l 661 0 l 28 0 l 212 994 l 851 994 l 822 839 m 814 1063 l 266 1063 l 292 1159 l 840 1159 l 814 1063 z "},"ē":{"ha":766,"x_min":56,"x_max":806,"o":"m 233 315 q 231 285 231 298 q 276 168 231 209 q 401 127 321 127 q 500 151 444 127 q 587 203 555 174 l 568 25 q 357 -14 481 -14 q 140 71 223 -14 q 56 304 56 156 q 177 615 56 491 q 492 740 297 740 q 677 691 606 740 q 749 553 749 643 q 643 360 749 430 q 381 290 536 290 q 233 315 305 290 m 265 444 q 361 431 309 431 q 517 459 453 431 q 581 540 581 487 q 452 599 581 599 q 348 554 401 599 q 265 444 295 510 m 781 871 l 232 871 l 258 967 l 806 967 l 781 871 z "},"Ĕ":{"ha":824,"x_min":28,"x_max":851,"o":"m 822 839 l 364 839 l 323 610 l 651 610 l 623 463 l 295 463 l 239 155 l 690 155 l 661 0 l 28 0 l 212 994 l 851 994 l 822 839 m 338 1295 l 483 1295 q 472 1246 472 1258 q 560 1200 472 1200 q 690 1295 670 1200 l 836 1295 q 541 1075 788 1075 q 329 1235 329 1075 q 338 1295 329 1257 z "},"ĕ":{"ha":766,"x_min":56,"x_max":802,"o":"m 233 315 q 231 285 231 298 q 276 168 231 209 q 401 127 321 127 q 500 151 444 127 q 587 203 555 174 l 568 25 q 357 -14 481 -14 q 140 71 223 -14 q 56 304 56 156 q 177 615 56 491 q 492 740 297 740 q 677 691 606 740 q 749 553 749 643 q 643 360 749 430 q 381 290 536 290 q 233 315 305 290 m 265 444 q 361 431 309 431 q 517 459 453 431 q 581 540 581 487 q 452 599 581 599 q 348 554 401 599 q 265 444 295 510 m 304 1092 l 449 1092 q 438 1042 438 1055 q 526 996 438 996 q 656 1092 636 996 l 802 1092 q 507 871 754 871 q 295 1031 295 871 q 304 1092 295 1053 z "},"Ė":{"ha":824,"x_min":28,"x_max":851,"o":"m 822 839 l 364 839 l 323 610 l 651 610 l 623 463 l 295 463 l 239 155 l 690 155 l 661 0 l 28 0 l 212 994 l 851 994 l 822 839 m 439 1155 q 471 1212 439 1190 q 543 1234 502 1234 q 614 1212 582 1234 q 646 1155 646 1190 q 615 1097 646 1120 q 543 1075 583 1075 q 471 1097 503 1075 q 439 1155 439 1119 z "},"ė":{"ha":766,"x_min":56,"x_max":749,"o":"m 233 315 q 231 285 231 298 q 276 168 231 209 q 401 127 321 127 q 500 151 444 127 q 587 203 555 174 l 568 25 q 357 -14 481 -14 q 140 71 223 -14 q 56 304 56 156 q 177 615 56 491 q 492 740 297 740 q 677 691 606 740 q 749 553 749 643 q 643 360 749 430 q 381 290 536 290 q 233 315 305 290 m 265 444 q 361 431 309 431 q 517 459 453 431 q 581 540 581 487 q 452 599 581 599 q 348 554 401 599 q 265 444 295 510 m 404 951 q 435 1009 404 987 q 507 1031 467 1031 q 579 1009 547 1031 q 611 951 611 987 q 579 894 611 916 q 507 871 548 871 q 436 893 467 871 q 404 951 404 916 z "},"Ĝ":{"ha":939,"x_min":57,"x_max":899,"o":"m 817 90 q 441 -17 663 -17 q 164 93 271 -17 q 57 370 57 202 q 219 838 57 665 q 662 1010 382 1010 q 888 943 814 1010 l 835 795 q 636 856 735 856 q 349 725 457 856 q 240 396 240 593 q 307 206 240 274 q 491 138 374 138 q 661 191 588 138 l 696 388 l 559 388 l 586 536 l 899 536 l 817 90 m 692 1063 l 612 1160 l 482 1061 l 298 1061 l 591 1304 l 686 1304 l 882 1063 l 692 1063 z "},"ĝ":{"ha":743,"x_min":0,"x_max":745,"o":"m 675 600 q 690 519 690 566 q 644 336 690 413 q 493 210 598 258 q 378 145 388 162 q 450 154 424 154 q 579 107 526 154 q 633 -11 633 61 q 540 -214 633 -142 q 272 -285 448 -285 q 128 -259 206 -285 q 0 -195 50 -233 l 74 -67 q 275 -136 171 -136 q 464 -35 464 -136 q 445 1 464 -13 q 386 23 425 16 l 256 46 q 184 130 184 68 q 243 203 184 166 q 124 282 170 224 q 77 411 77 340 q 174 649 77 557 q 423 740 271 740 q 581 700 517 740 l 645 769 l 745 670 l 675 600 m 250 426 q 274 337 250 372 q 341 302 298 302 q 465 362 416 302 q 513 506 513 421 q 414 602 513 602 q 294 552 338 602 q 250 426 250 503 m 531 871 l 451 968 l 321 869 l 138 869 l 431 1112 l 525 1112 l 722 871 l 531 871 z "},"Ġ":{"ha":939,"x_min":57,"x_max":899,"o":"m 817 90 q 441 -17 663 -17 q 164 93 271 -17 q 57 370 57 202 q 219 838 57 665 q 662 1010 382 1010 q 888 943 814 1010 l 835 795 q 636 856 735 856 q 349 725 457 856 q 240 396 240 593 q 307 206 240 274 q 491 138 374 138 q 661 191 588 138 l 696 388 l 559 388 l 586 536 l 899 536 l 817 90 m 507 1155 q 538 1212 507 1190 q 610 1234 570 1234 q 682 1212 650 1234 q 714 1155 714 1190 q 683 1097 714 1120 q 610 1075 651 1075 q 539 1097 570 1075 q 507 1155 507 1119 z "},"ġ":{"ha":743,"x_min":0,"x_max":745,"o":"m 675 600 q 690 519 690 566 q 644 336 690 413 q 493 210 598 258 q 378 145 388 162 q 450 154 424 154 q 579 107 526 154 q 633 -11 633 61 q 540 -214 633 -142 q 272 -285 448 -285 q 128 -259 206 -285 q 0 -195 50 -233 l 74 -67 q 275 -136 171 -136 q 464 -35 464 -136 q 445 1 464 -13 q 386 23 425 16 l 256 46 q 184 130 184 68 q 243 203 184 166 q 124 282 170 224 q 77 411 77 340 q 174 649 77 557 q 423 740 271 740 q 581 700 517 740 l 645 769 l 745 670 l 675 600 m 250 426 q 274 337 250 372 q 341 302 298 302 q 465 362 416 302 q 513 506 513 421 q 414 602 513 602 q 294 552 338 602 q 250 426 250 503 m 358 951 q 389 1009 358 987 q 461 1031 420 1031 q 533 1009 500 1031 q 565 951 565 987 q 533 894 565 916 q 461 871 502 871 q 390 893 421 871 q 358 951 358 916 z "},"Ģ":{"ha":939,"x_min":57,"x_max":899,"o":"m 817 90 q 441 -17 663 -17 q 164 93 271 -17 q 57 370 57 202 q 219 838 57 665 q 662 1010 382 1010 q 888 943 814 1010 l 835 795 q 636 856 735 856 q 349 725 457 856 q 240 396 240 593 q 307 206 240 274 q 491 138 374 138 q 661 191 588 138 l 696 388 l 559 388 l 586 536 l 899 536 l 817 90 m 270 -305 l 270 -222 q 296 -225 282 -225 q 370 -208 336 -225 q 412 -152 412 -187 q 393 -108 412 -128 q 349 -87 373 -88 l 391 -29 q 547 -155 547 -39 q 473 -275 547 -233 q 329 -309 413 -309 q 270 -305 319 -309 z "},"ģ":{"ha":743,"x_min":0,"x_max":745,"o":"m 675 600 q 690 519 690 566 q 644 336 690 413 q 493 210 598 258 q 378 145 388 162 q 450 154 424 154 q 579 107 526 154 q 633 -11 633 61 q 540 -214 633 -142 q 272 -285 448 -285 q 128 -259 206 -285 q 0 -195 50 -233 l 74 -67 q 275 -136 171 -136 q 464 -35 464 -136 q 445 1 464 -13 q 386 23 425 16 l 256 46 q 184 130 184 68 q 243 203 184 166 q 124 282 170 224 q 77 411 77 340 q 174 649 77 557 q 423 740 271 740 q 581 700 517 740 l 645 769 l 745 670 l 675 600 m 250 426 q 274 337 250 372 q 341 302 298 302 q 465 362 416 302 q 513 506 513 421 q 414 602 513 602 q 294 552 338 602 q 250 426 250 503 m 479 1163 l 532 1095 q 467 1015 467 1034 q 493 969 467 996 q 518 906 518 942 q 491 847 518 870 q 428 824 465 824 q 341 935 341 824 q 479 1163 341 1067 z "},"Ĥ":{"ha":942,"x_min":36,"x_max":972,"o":"m 788 0 l 610 0 l 694 463 l 300 463 l 215 0 l 36 0 l 218 994 l 397 994 l 327 610 l 722 610 l 792 994 l 972 994 l 788 0 m 707 1063 l 627 1160 l 498 1061 l 314 1061 l 607 1304 l 701 1304 l 898 1063 l 707 1063 z "},"ĥ":{"ha":781,"x_min":28,"x_max":789,"o":"m 732 444 l 649 0 l 475 0 l 560 451 q 564 495 564 473 q 463 597 564 597 q 298 519 371 597 l 201 0 l 28 0 l 213 1024 l 382 1024 l 326 682 q 517 740 416 740 q 681 682 621 740 q 740 519 740 623 q 732 444 740 484 m 599 1077 l 519 1174 l 389 1075 l 205 1075 l 498 1318 l 593 1318 l 789 1077 l 599 1077 z "},"Ħ":{"ha":971,"x_min":49,"x_max":1063,"o":"m 1063 852 l 1042 747 l 940 747 l 802 0 l 624 0 l 708 463 l 313 463 l 228 0 l 49 0 l 186 747 l 83 747 l 104 852 l 204 852 l 231 993 l 410 993 l 383 852 l 781 852 l 806 993 l 985 993 l 960 852 l 1063 852 m 761 747 l 364 747 l 339 610 l 736 610 l 761 747 z "},"ħ":{"ha":781,"x_min":28,"x_max":724,"o":"m 718 401 l 649 0 l 475 0 l 547 410 q 551 448 551 430 q 527 525 551 496 q 429 564 494 564 q 287 488 355 564 l 201 0 l 28 0 l 170 803 l 67 803 l 87 911 l 189 911 l 213 1039 l 386 1039 l 363 911 l 627 911 l 608 803 l 344 803 l 315 643 q 486 703 393 703 q 679 624 612 703 q 724 473 724 569 q 718 401 724 439 z "},"Ĩ":{"ha":387,"x_min":46,"x_max":606,"o":"m 223 0 l 46 0 l 229 994 l 406 994 l 223 0 m 189 1122 l 80 1122 q 141 1244 96 1194 q 245 1294 186 1294 q 347 1265 278 1294 q 431 1236 416 1236 q 473 1253 454 1236 q 496 1294 493 1271 l 606 1294 q 545 1179 593 1235 q 444 1122 497 1122 q 346 1154 422 1122 q 245 1185 270 1185 q 189 1122 207 1185 z "},"ĩ":{"ha":454,"x_min":68,"x_max":595,"o":"m 269 0 l 97 0 l 207 590 l 114 590 l 142 726 l 405 726 l 269 0 m 177 871 l 68 871 q 130 993 84 943 q 233 1043 175 1043 q 335 1014 267 1043 q 420 985 404 985 q 462 1002 442 985 q 485 1043 481 1020 l 595 1043 q 534 928 582 984 q 432 871 486 871 q 334 903 410 871 q 233 935 258 935 q 177 871 195 935 z "},"Ī":{"ha":387,"x_min":43,"x_max":617,"o":"m 223 0 l 46 0 l 229 994 l 406 994 l 223 0 m 591 1063 l 43 1063 l 68 1159 l 617 1159 l 591 1063 z "},"ī":{"ha":454,"x_min":35,"x_max":610,"o":"m 269 0 l 97 0 l 207 590 l 114 590 l 142 726 l 405 726 l 269 0 m 584 871 l 35 871 l 61 967 l 610 967 l 584 871 z "},"Ĭ":{"ha":387,"x_min":46,"x_max":625,"o":"m 223 0 l 46 0 l 229 994 l 406 994 l 223 0 m 127 1295 l 273 1295 q 262 1246 262 1258 q 350 1200 262 1200 q 480 1295 460 1200 l 625 1295 q 331 1075 578 1075 q 119 1235 119 1075 q 127 1295 119 1257 z "},"ĭ":{"ha":454,"x_min":97,"x_max":605,"o":"m 269 0 l 97 0 l 207 590 l 114 590 l 142 726 l 405 726 l 269 0 m 107 1092 l 252 1092 q 241 1042 241 1055 q 330 996 241 996 q 460 1092 439 996 l 605 1092 q 311 871 557 871 q 98 1031 98 871 q 107 1092 98 1053 z "},"Į":{"ha":387,"x_min":-24,"x_max":406,"o":"m 406 994 l 223 0 q 164 -36 189 -9 q 137 -98 137 -64 q 184 -128 137 -128 q 296 -87 242 -128 l 296 -226 q 158 -253 207 -253 q 35 -219 85 -253 q -24 -111 -24 -180 q 53 40 -24 -26 l 229 994 l 406 994 z "},"į":{"ha":454,"x_min":19,"x_max":440,"o":"m 440 960 q 407 885 440 916 q 329 854 374 854 q 251 884 282 854 q 220 960 220 913 q 252 1035 220 1005 q 329 1065 283 1065 q 407 1035 374 1065 q 440 960 440 1004 m 405 726 l 269 0 l 266 0 q 207 -36 231 -9 q 180 -98 180 -64 q 227 -128 180 -128 q 339 -87 285 -128 l 339 -226 q 201 -253 250 -253 q 77 -219 127 -253 q 19 -111 19 -180 q 106 49 19 -20 l 207 590 l 114 590 l 142 726 l 405 726 z "},"Ĳ":{"ha":1051,"x_min":46,"x_max":1064,"o":"m 223 0 l 46 0 l 229 994 l 406 994 l 223 0 m 357 228 l 512 228 q 585 141 511 141 q 680 160 642 141 q 736 217 718 179 q 776 373 755 256 l 889 994 l 1064 994 l 950 372 q 818 63 907 139 q 564 -14 729 -14 q 410 38 468 -14 q 353 178 353 89 q 357 228 353 198 z "},"ĳ":{"ha":875,"x_min":97,"x_max":859,"o":"m 219 960 q 251 1035 219 1005 q 330 1065 283 1065 q 408 1035 375 1065 q 440 960 440 1005 q 408 884 440 915 q 330 854 375 854 q 252 884 284 854 q 219 960 219 914 m 269 0 l 97 0 l 207 590 l 114 590 l 142 726 l 405 726 l 269 0 m 637 958 q 670 1035 637 1004 q 748 1065 702 1065 q 826 1035 794 1065 q 859 958 859 1004 q 826 882 859 913 q 748 852 793 852 q 670 882 703 852 q 637 958 637 913 m 684 10 q 554 -213 656 -140 q 238 -285 452 -285 l 245 -135 q 392 -122 340 -135 q 474 -75 444 -109 q 515 14 505 -41 l 618 590 l 521 590 l 553 726 l 817 726 l 684 10 z "},"Ĵ":{"ha":692,"x_min":-6,"x_max":871,"o":"m -2 228 l 153 228 q 226 141 152 141 q 321 160 283 141 q 377 217 359 179 q 417 373 396 256 l 530 994 l 705 994 l 591 372 q 459 63 549 139 q 205 -14 370 -14 q 52 38 109 -14 q -6 178 -6 89 q -2 228 -6 198 m 680 1063 l 600 1160 l 471 1061 l 287 1061 l 580 1304 l 674 1304 l 871 1063 l 680 1063 z "},"ĵ":{"ha":538,"x_min":-98,"x_max":640,"o":"m 347 10 q 218 -213 319 -140 q -98 -285 116 -285 l -91 -135 q 56 -122 4 -135 q 138 -75 107 -109 q 179 14 169 -41 l 282 590 l 184 590 l 216 726 l 480 726 l 347 10 m 450 871 l 370 968 l 240 869 l 56 869 l 349 1112 l 444 1112 l 640 871 l 450 871 z "},"Ķ":{"ha":903,"x_min":47,"x_max":945,"o":"m 553 557 l 800 0 l 601 0 l 415 425 l 274 269 l 224 0 l 47 0 l 230 994 l 406 994 l 324 542 l 736 994 l 945 994 l 553 557 m 220 -305 l 220 -222 q 246 -225 232 -225 q 319 -208 286 -225 q 362 -152 362 -187 q 342 -108 362 -128 q 299 -87 323 -88 l 341 -29 q 497 -155 497 -39 q 423 -275 497 -233 q 279 -309 363 -309 q 220 -305 269 -309 z "},"ķ":{"ha":749,"x_min":41,"x_max":718,"o":"m 517 0 l 288 299 l 259 275 l 211 0 l 41 0 l 218 1024 l 385 1024 l 298 485 l 426 596 q 600 770 557 710 l 718 667 q 418 393 688 631 l 718 0 l 517 0 m 179 -305 l 179 -222 q 205 -225 191 -225 q 279 -208 245 -225 q 321 -152 321 -187 q 302 -108 321 -128 q 258 -87 282 -88 l 300 -29 q 456 -155 456 -39 q 382 -275 456 -233 q 238 -309 322 -309 q 179 -305 228 -309 z "},"ĸ":{"ha":798,"x_min":33,"x_max":778,"o":"m 539 0 l 363 306 l 243 215 l 203 0 l 33 0 l 165 726 l 335 726 l 278 408 q 576 656 519 606 q 664 747 632 707 l 778 635 q 493 395 724 570 l 733 0 l 539 0 z "},"Ļ":{"ha":734,"x_min":34,"x_max":689,"o":"m 661 0 l 34 0 l 216 994 l 394 994 l 240 155 l 689 155 l 661 0 m 161 -305 l 161 -222 q 188 -225 174 -225 q 261 -208 227 -225 q 304 -152 304 -187 q 284 -108 304 -128 q 241 -87 264 -88 l 283 -29 q 439 -155 439 -39 q 365 -275 439 -233 q 220 -309 304 -309 q 161 -305 210 -309 z "},"ļ":{"ha":444,"x_min":19,"x_max":408,"o":"m 323 57 q 202 -7 283 -7 q 106 33 141 -7 q 71 137 71 73 q 103 375 71 220 l 239 1024 l 408 1024 l 268 348 q 238 142 238 203 q 262 80 238 102 q 323 57 287 57 m 19 -305 l 19 -222 q 45 -225 31 -225 q 119 -208 85 -225 q 161 -152 161 -187 q 142 -108 161 -128 q 98 -87 122 -88 l 140 -29 q 296 -155 296 -39 q 222 -275 296 -233 q 78 -309 162 -309 q 19 -305 68 -309 z "},"Ņ":{"ha":917,"x_min":35,"x_max":940,"o":"m 755 -14 l 686 -14 l 320 629 l 210 0 l 35 0 l 218 994 l 299 994 l 658 378 l 766 994 l 940 994 l 755 -14 m 243 -305 l 243 -222 q 269 -225 255 -225 q 342 -208 309 -225 q 385 -152 385 -187 q 366 -108 385 -128 q 322 -87 346 -88 l 364 -29 q 520 -155 520 -39 q 446 -275 520 -233 q 302 -309 386 -309 q 243 -305 292 -309 z "},"ņ":{"ha":781,"x_min":18,"x_max":734,"o":"m 642 0 l 467 0 l 546 423 q 555 509 555 474 q 449 599 555 599 q 286 522 358 599 l 189 0 l 18 0 l 121 545 q 123 584 123 559 q 104 713 123 644 l 270 743 l 286 662 q 510 740 375 740 q 734 530 734 740 q 724 442 734 493 l 642 0 m 148 -305 l 148 -222 q 174 -225 160 -225 q 248 -208 214 -225 q 290 -152 290 -187 q 271 -108 290 -128 q 227 -87 251 -88 l 269 -29 q 425 -155 425 -39 q 351 -275 425 -233 q 207 -309 291 -309 q 148 -305 197 -309 z "},"ŉ":{"ha":909,"x_min":0,"x_max":863,"o":"m 43 711 l 0 768 q 55 818 45 802 q 65 852 65 834 q 42 893 65 869 q 18 944 18 916 q 98 1024 18 1024 q 181 930 181 1024 q 43 711 181 797 m 771 0 l 595 0 l 675 423 q 684 509 684 474 q 578 599 684 599 q 414 522 487 599 l 317 0 l 147 0 l 250 545 q 252 584 252 559 q 233 713 252 644 l 399 743 l 414 662 q 639 740 504 740 q 863 530 863 740 q 853 442 863 493 l 771 0 z "},"Ŋ":{"ha":935,"x_min":36,"x_max":909,"o":"m 909 736 q 901 647 909 694 l 832 260 q 541 -21 782 -21 q 386 41 446 -21 l 468 163 q 543 131 505 131 q 653 254 631 131 l 717 618 q 728 714 728 682 q 705 798 728 765 q 562 854 666 854 q 447 826 508 854 q 349 755 387 798 l 214 0 l 36 0 l 212 993 l 330 993 l 350 908 q 619 1011 467 1011 q 856 913 778 1011 q 909 736 909 844 z "},"ŋ":{"ha":781,"x_min":18,"x_max":734,"o":"m 546 424 q 555 509 555 477 q 449 599 555 599 q 286 522 356 599 l 189 0 l 18 0 l 121 545 q 123 583 123 559 q 104 713 123 641 l 269 743 l 286 663 q 510 741 376 741 q 734 530 734 741 q 724 441 734 494 l 652 49 q 531 -204 619 -127 q 277 -285 438 -285 l 307 -139 q 478 52 443 -139 l 546 424 z "},"Ō":{"ha":975,"x_min":67,"x_max":960,"o":"m 67 370 q 212 823 67 635 q 589 1011 357 1011 q 863 917 767 1011 q 960 643 960 822 q 812 166 960 349 q 407 -17 664 -17 q 158 89 250 -17 q 67 370 67 195 m 250 388 q 296 205 250 273 q 429 138 341 138 q 684 283 590 138 q 777 629 777 428 q 576 857 777 857 q 343 708 435 857 q 250 388 250 559 m 876 1063 l 327 1063 l 353 1159 l 901 1159 l 876 1063 z "},"ō":{"ha":791,"x_min":49,"x_max":791,"o":"m 49 272 q 169 604 49 469 q 473 740 289 740 q 689 667 613 740 q 765 460 765 594 q 646 123 765 259 q 340 -14 528 -14 q 125 60 202 -14 q 49 272 49 134 m 225 280 q 359 125 225 125 q 526 223 465 125 q 588 455 588 321 q 454 602 588 602 q 288 505 351 602 q 225 280 225 408 m 766 871 l 217 871 l 243 967 l 791 967 l 766 871 z "},"Ŏ":{"ha":975,"x_min":67,"x_max":960,"o":"m 67 370 q 212 823 67 635 q 589 1011 357 1011 q 863 917 767 1011 q 960 643 960 822 q 812 166 960 349 q 407 -17 664 -17 q 158 89 250 -17 q 67 370 67 195 m 250 388 q 296 205 250 273 q 429 138 341 138 q 684 283 590 138 q 777 629 777 428 q 576 857 777 857 q 343 708 435 857 q 250 388 250 559 m 399 1295 l 544 1295 q 533 1246 533 1258 q 621 1200 533 1200 q 751 1295 731 1200 l 897 1295 q 602 1075 849 1075 q 390 1235 390 1075 q 399 1295 390 1257 z "},"ŏ":{"ha":791,"x_min":49,"x_max":781,"o":"m 49 272 q 169 604 49 469 q 473 740 289 740 q 689 667 613 740 q 765 460 765 594 q 646 123 765 259 q 340 -14 528 -14 q 125 60 202 -14 q 49 272 49 134 m 225 280 q 359 125 225 125 q 526 223 465 125 q 588 455 588 321 q 454 602 588 602 q 288 505 351 602 q 225 280 225 408 m 283 1092 l 429 1092 q 418 1042 418 1055 q 506 996 418 996 q 636 1092 616 996 l 781 1092 q 487 871 734 871 q 275 1031 275 871 q 283 1092 275 1053 z "},"Ŗ":{"ha":866,"x_min":35,"x_max":823,"o":"m 573 440 l 795 0 l 596 0 l 406 411 q 293 416 360 412 l 216 0 l 35 0 l 216 994 q 476 1004 414 1004 q 730 942 637 1004 q 823 762 823 880 q 755 555 823 643 q 573 440 687 467 m 370 841 l 319 563 q 391 559 359 559 q 647 722 647 559 q 598 819 647 790 q 435 848 549 848 q 370 841 425 848 m 209 -305 l 209 -222 q 235 -225 221 -225 q 309 -208 275 -225 q 351 -152 351 -187 q 332 -108 351 -128 q 288 -87 312 -88 l 330 -29 q 486 -155 486 -39 q 412 -275 486 -233 q 268 -309 352 -309 q 209 -305 258 -309 z "},"ŗ":{"ha":621,"x_min":-22,"x_max":640,"o":"m 589 554 q 483 599 529 599 q 362 542 417 599 q 294 410 308 484 l 217 0 l 47 0 l 182 726 l 353 726 l 341 663 q 541 740 431 740 q 640 727 568 740 l 589 554 m -22 -305 l -22 -222 q 5 -225 -9 -225 q 78 -208 44 -225 q 121 -152 121 -187 q 101 -108 121 -128 q 58 -87 81 -88 l 100 -29 q 256 -155 256 -39 q 182 -275 256 -233 q 37 -309 121 -309 q -22 -305 27 -309 z "},"Ŝ":{"ha":696,"x_min":29,"x_max":735,"o":"m 637 798 q 477 855 559 855 q 314 732 314 855 q 401 607 314 680 l 503 520 q 569 461 551 479 q 608 409 587 442 q 638 342 628 376 q 648 273 648 308 q 546 60 648 136 q 281 -17 444 -17 q 29 41 148 -17 l 86 215 q 297 146 177 146 q 417 177 370 146 q 465 265 465 208 q 378 389 465 321 l 272 474 q 206 531 223 513 q 170 580 189 549 q 141 645 151 612 q 132 713 132 678 q 222 930 132 850 q 460 1010 313 1010 q 585 999 509 1010 q 692 974 661 988 l 637 798 m 545 1063 l 465 1160 l 335 1061 l 151 1061 l 444 1304 l 538 1304 l 735 1063 l 545 1063 z "},"ŝ":{"ha":637,"x_min":7,"x_max":667,"o":"m 536 528 q 387 599 455 599 q 314 579 345 599 q 283 528 283 560 q 357 450 283 488 q 470 391 431 413 q 534 331 509 369 q 559 245 559 294 q 470 56 559 125 q 240 -14 380 -14 q 7 54 121 -14 l 96 208 q 262 127 181 127 q 348 153 314 127 q 381 223 381 179 q 317 293 381 260 q 205 354 254 326 q 131 421 156 381 q 105 509 105 460 q 190 677 105 614 q 397 740 274 740 q 615 683 481 740 l 536 528 m 477 871 l 397 968 l 267 869 l 83 869 l 376 1112 l 471 1112 l 667 871 l 477 871 z "},"Ŧ":{"ha":951,"x_min":136,"x_max":972,"o":"m 972 994 l 943 839 l 630 839 l 573 529 l 789 529 l 768 418 l 553 418 l 477 0 l 298 0 l 375 418 l 161 418 l 182 529 l 395 529 l 452 839 l 136 839 l 164 994 l 972 994 z "},"ŧ":{"ha":608,"x_min":60,"x_max":600,"o":"m 503 443 l 479 338 l 313 338 l 297 268 q 289 203 289 230 q 372 129 289 129 q 494 164 411 129 l 494 11 q 294 -14 422 -14 q 163 38 213 -14 q 113 172 113 89 q 118 227 113 201 l 143 338 l 60 338 l 82 443 l 167 443 l 200 590 l 115 590 l 144 726 l 229 726 l 258 875 l 452 946 l 401 726 l 600 726 l 571 590 l 371 590 l 338 443 l 503 443 z "},"Ũ":{"ha":919,"x_min":83,"x_max":952,"o":"m 825 306 q 683 68 797 153 q 401 -17 569 -17 q 172 51 260 -17 q 83 237 83 118 q 91 313 83 273 l 216 994 l 397 994 l 271 317 q 267 278 267 298 q 309 174 267 211 q 421 138 350 138 q 572 187 512 138 q 649 326 633 237 l 773 994 l 952 994 l 825 306 m 454 1122 l 345 1122 q 406 1244 361 1194 q 510 1294 452 1294 q 612 1265 543 1294 q 696 1236 681 1236 q 739 1253 719 1236 q 762 1294 758 1271 l 871 1294 q 810 1179 859 1235 q 709 1122 762 1122 q 611 1154 687 1122 q 510 1185 535 1185 q 454 1122 472 1185 z "},"ũ":{"ha":774,"x_min":42,"x_max":765,"o":"m 629 -1 l 460 -1 l 470 52 q 242 -14 379 -14 q 95 40 149 -14 q 42 189 42 94 q 50 258 42 218 l 137 726 l 309 726 l 223 265 q 218 216 218 236 q 317 127 218 127 q 452 180 397 127 q 520 307 507 233 l 595 726 l 765 726 l 629 -1 m 345 871 l 237 871 q 298 993 252 943 q 401 1043 343 1043 q 504 1014 435 1043 q 588 985 572 985 q 630 1002 610 985 q 653 1043 650 1020 l 763 1043 q 702 928 750 984 q 600 871 654 871 q 503 903 578 871 q 401 935 427 935 q 345 871 363 935 z "},"Ū":{"ha":919,"x_min":83,"x_max":952,"o":"m 825 306 q 683 68 797 153 q 401 -17 569 -17 q 172 51 260 -17 q 83 237 83 118 q 91 313 83 273 l 216 994 l 397 994 l 271 317 q 267 278 267 298 q 309 174 267 211 q 421 138 350 138 q 572 187 512 138 q 649 326 633 237 l 773 994 l 952 994 l 825 306 m 869 1063 l 320 1063 l 346 1159 l 895 1159 l 869 1063 z "},"ū":{"ha":774,"x_min":42,"x_max":772,"o":"m 629 -1 l 460 -1 l 470 52 q 242 -14 379 -14 q 95 40 149 -14 q 42 189 42 94 q 50 258 42 218 l 137 726 l 309 726 l 223 265 q 218 216 218 236 q 317 127 218 127 q 452 180 397 127 q 520 307 507 233 l 595 726 l 765 726 l 629 -1 m 747 871 l 198 871 l 224 967 l 772 967 l 747 871 z "},"Ŭ":{"ha":919,"x_min":83,"x_max":952,"o":"m 825 306 q 683 68 797 153 q 401 -17 569 -17 q 172 51 260 -17 q 83 237 83 118 q 91 313 83 273 l 216 994 l 397 994 l 271 317 q 267 278 267 298 q 309 174 267 211 q 421 138 350 138 q 572 187 512 138 q 649 326 633 237 l 773 994 l 952 994 l 825 306 m 385 1295 l 530 1295 q 519 1246 519 1258 q 608 1200 519 1200 q 738 1295 718 1200 l 883 1295 q 589 1075 836 1075 q 376 1235 376 1075 q 385 1295 376 1257 z "},"ŭ":{"ha":774,"x_min":42,"x_max":765,"o":"m 629 -1 l 460 -1 l 470 52 q 242 -14 379 -14 q 95 40 149 -14 q 42 189 42 94 q 50 258 42 218 l 137 726 l 309 726 l 223 265 q 218 216 218 236 q 317 127 218 127 q 452 180 397 127 q 520 307 507 233 l 595 726 l 765 726 l 629 -1 m 263 1092 l 408 1092 q 397 1042 397 1055 q 486 996 397 996 q 616 1092 595 996 l 761 1092 q 467 871 713 871 q 254 1031 254 871 q 263 1092 254 1053 z "},"Ų":{"ha":919,"x_min":83,"x_max":952,"o":"m 952 994 l 825 306 q 684 68 797 153 q 490 -11 602 6 q 431 -98 431 -42 q 477 -128 431 -128 q 590 -87 536 -128 l 590 -226 q 452 -253 500 -253 q 328 -219 378 -253 q 270 -111 270 -180 q 303 -7 270 -55 q 172 50 227 8 q 83 236 83 118 q 90 314 83 277 l 215 994 l 397 994 l 271 317 q 267 278 267 295 q 310 172 267 209 q 421 138 351 138 q 572 187 513 138 q 648 326 631 236 l 773 994 l 952 994 z "},"ų":{"ha":774,"x_min":42,"x_max":765,"o":"m 765 726 l 629 0 q 570 -36 595 -9 q 543 -98 543 -64 q 590 -128 543 -128 q 703 -87 648 -128 l 703 -226 q 564 -253 613 -253 q 441 -219 491 -253 q 382 -111 382 -180 q 460 3 382 -53 l 469 53 q 242 -14 380 -14 q 96 40 149 -14 q 42 189 42 96 q 50 258 42 211 l 137 726 l 309 726 l 223 265 q 218 215 218 236 q 317 127 218 127 q 452 181 397 127 q 521 307 508 235 l 595 726 l 765 726 z "},"Ŵ":{"ha":1286,"x_min":150,"x_max":1369,"o":"m 863 -14 l 791 -14 l 684 593 l 361 -14 l 290 -14 l 150 994 l 330 994 l 405 391 l 718 994 l 795 994 l 887 395 l 1177 994 l 1369 994 l 863 -14 m 863 1063 l 783 1160 l 654 1061 l 470 1061 l 763 1304 l 857 1304 l 1054 1063 l 863 1063 z "},"ŵ":{"ha":1074,"x_min":56,"x_max":1120,"o":"m 722 -14 l 661 -14 l 534 406 l 262 -14 l 199 -14 l 56 726 l 229 726 l 301 326 l 550 726 l 611 726 l 731 321 l 941 726 l 1120 726 l 722 -14 m 701 871 l 621 968 l 491 869 l 307 869 l 600 1112 l 694 1112 l 891 871 l 701 871 z "},"Ŷ":{"ha":949,"x_min":168,"x_max":1010,"o":"m 575 439 l 494 0 l 319 0 l 401 445 l 168 994 l 351 994 l 511 605 l 809 994 l 1010 994 l 575 439 m 687 1063 l 607 1160 l 477 1061 l 294 1061 l 587 1304 l 681 1304 l 878 1063 l 687 1063 z "},"ŷ":{"ha":783,"x_min":28,"x_max":803,"o":"m 420 -73 q 28 -285 319 -283 l 28 -121 q 275 3 220 -121 l 310 84 q 184 279 217 111 l 98 726 l 277 726 q 378 228 356 249 l 611 726 l 803 726 l 420 -73 m 549 871 l 469 968 l 339 869 l 155 869 l 448 1112 l 543 1112 l 739 871 l 549 871 z "},"ſ":{"ha":488,"x_min":41,"x_max":607,"o":"m 41 0 l 168 713 q 485 1023 223 1023 q 607 996 553 1023 l 574 864 q 478 886 519 886 q 342 707 372 886 l 222 0 l 41 0 z "},"Ǻ":{"ha":852,"x_min":-64,"x_max":828,"o":"m 828 1274 l 682 1120 q 741 1011 741 1080 q 703 920 741 958 q 616 873 669 886 l 806 0 l 623 0 l 590 202 l 237 202 l 119 0 l -64 0 l 503 882 q 406 1011 406 920 q 454 1112 406 1072 q 561 1152 499 1148 l 635 1274 l 828 1274 m 662 1008 q 633 1056 662 1038 q 576 1071 608 1071 q 519 1056 544 1071 q 490 1008 490 1038 q 519 962 490 979 q 576 947 545 947 q 632 962 607 947 q 662 1008 662 979 m 568 334 l 515 671 l 315 334 l 568 334 z "},"ǻ":{"ha":823,"x_min":48,"x_max":768,"o":"m 670 260 q 665 205 665 235 q 688 0 665 56 l 583 0 q 512 73 535 0 q 296 -14 425 -14 q 113 53 178 -14 q 48 238 48 119 q 173 592 48 445 q 489 740 298 740 q 754 706 673 740 l 670 260 m 474 602 q 292 493 360 602 q 224 242 224 384 q 340 125 224 125 q 468 215 413 125 q 565 588 522 305 q 474 602 517 602 m 523 791 q 406 831 456 791 q 355 933 355 872 q 406 1035 355 994 q 523 1075 456 1075 q 640 1035 591 1075 q 690 933 690 995 q 640 831 690 871 q 523 791 590 791 m 525 993 q 465 975 490 993 q 439 930 439 958 q 465 886 439 904 q 525 869 490 869 q 585 886 559 869 q 611 930 611 904 q 585 975 611 958 q 525 993 559 993 m 583 1115 l 437 1115 l 576 1341 l 768 1341 l 583 1115 z "},"Ǽ":{"ha":1333,"x_min":-23,"x_max":1360,"o":"m 1331 839 l 873 839 l 831 610 l 1160 610 l 1132 463 l 804 463 l 748 155 l 1198 155 l 1169 0 l 537 0 l 574 202 l 309 202 l 185 0 l -23 0 l 634 994 l 1360 994 l 1331 839 m 376 334 l 599 334 l 694 843 l 376 334 m 936 1075 l 789 1075 l 928 1301 l 1121 1301 l 936 1075 z "},"ǽ":{"ha":1241,"x_min":45,"x_max":1227,"o":"m 692 699 l 676 625 q 966 740 787 740 q 1141 699 1073 740 q 1227 551 1227 650 q 1101 347 1227 418 q 856 288 999 288 q 711 311 779 288 q 709 286 709 298 q 748 170 709 206 q 876 133 787 133 q 981 159 922 133 q 1067 214 1037 184 l 1046 26 q 832 -14 959 -14 q 683 12 736 -14 q 591 100 629 37 q 603 0 590 85 l 540 0 q 471 102 494 0 q 282 -14 398 -14 q 106 60 170 -14 q 45 239 45 129 q 170 587 45 439 q 489 740 300 740 q 692 699 595 740 m 1052 532 q 954 593 1052 593 q 833 552 892 593 q 745 445 775 511 q 836 433 785 433 q 1052 532 1052 433 m 561 568 q 494 596 538 596 q 302 494 379 596 q 229 261 229 396 q 310 130 229 130 q 501 330 408 130 q 542 467 528 403 l 561 568 m 746 871 l 600 871 l 739 1097 l 931 1097 l 746 871 z "},"Ǿ":{"ha":975,"x_min":33,"x_max":996,"o":"m 996 1011 l 895 880 q 960 643 960 789 q 812 166 960 349 q 407 -17 664 -17 q 237 24 311 -17 l 201 -24 l 33 -24 l 138 115 q 67 370 67 217 q 212 823 67 635 q 589 1011 357 1011 q 789 969 707 1011 l 822 1011 l 996 1011 m 686 833 q 576 857 642 857 q 343 708 435 857 q 250 388 250 559 q 263 279 250 328 l 686 833 m 342 160 q 429 138 378 138 q 684 283 590 138 q 777 629 777 428 q 768 715 777 677 l 342 160 m 634 1075 l 488 1075 l 627 1301 l 819 1301 l 634 1075 z "},"ǿ":{"ha":791,"x_min":-1,"x_max":804,"o":"m 804 740 l 715 637 q 765 460 765 568 q 646 123 765 259 q 340 -14 528 -14 q 179 22 245 -14 l 140 -24 l -1 -24 l 99 92 q 49 272 49 162 q 169 604 49 469 q 473 740 289 740 q 634 706 568 740 l 664 740 l 804 740 m 529 585 q 454 602 499 602 q 288 505 351 602 q 225 280 225 408 q 228 239 225 258 l 529 585 m 284 142 q 359 125 314 125 q 526 223 465 125 q 588 455 588 321 q 586 490 588 473 l 284 142 m 492 871 l 345 871 l 484 1097 l 677 1097 l 492 871 z "},"Ẁ":{"ha":1286,"x_min":150,"x_max":1369,"o":"m 863 -14 l 791 -14 l 684 593 l 361 -14 l 290 -14 l 150 994 l 330 994 l 405 391 l 718 994 l 795 994 l 887 395 l 1177 994 l 1369 994 l 863 -14 m 754 1075 l 650 1301 l 840 1301 l 864 1075 l 754 1075 z "},"ẁ":{"ha":1074,"x_min":56,"x_max":1120,"o":"m 722 -14 l 661 -14 l 534 406 l 262 -14 l 199 -14 l 56 726 l 229 726 l 301 326 l 550 726 l 611 726 l 731 321 l 941 726 l 1120 726 l 722 -14 m 581 871 l 477 1097 l 667 1097 l 691 871 l 581 871 z "},"Ẃ":{"ha":1286,"x_min":150,"x_max":1369,"o":"m 863 -14 l 791 -14 l 684 593 l 361 -14 l 290 -14 l 150 994 l 330 994 l 405 391 l 718 994 l 795 994 l 887 395 l 1177 994 l 1369 994 l 863 -14 m 800 1075 l 654 1075 l 793 1301 l 985 1301 l 800 1075 z "},"ẃ":{"ha":1074,"x_min":56,"x_max":1120,"o":"m 722 -14 l 661 -14 l 534 406 l 262 -14 l 199 -14 l 56 726 l 229 726 l 301 326 l 550 726 l 611 726 l 731 321 l 941 726 l 1120 726 l 722 -14 m 652 871 l 506 871 l 645 1097 l 838 1097 l 652 871 z "},"Ẅ":{"ha":1286,"x_min":150,"x_max":1369,"o":"m 863 -14 l 791 -14 l 684 593 l 361 -14 l 290 -14 l 150 994 l 330 994 l 405 391 l 718 994 l 795 994 l 887 395 l 1177 994 l 1369 994 l 863 -14 m 844 1201 q 875 1256 844 1236 q 944 1277 905 1277 q 1014 1256 983 1277 q 1044 1201 1044 1234 q 1014 1145 1044 1166 q 944 1124 984 1124 q 874 1145 905 1124 q 844 1201 844 1166 m 524 1201 q 554 1256 524 1234 q 624 1277 585 1277 q 693 1256 663 1277 q 724 1201 724 1236 q 693 1146 724 1167 q 624 1124 663 1124 q 554 1145 584 1124 q 524 1201 524 1166 z "},"ẅ":{"ha":1074,"x_min":56,"x_max":1120,"o":"m 722 -14 l 661 -14 l 534 406 l 262 -14 l 199 -14 l 56 726 l 229 726 l 301 326 l 550 726 l 611 726 l 731 321 l 941 726 l 1120 726 l 722 -14 m 661 950 q 692 1005 661 985 q 761 1026 722 1026 q 831 1005 800 1026 q 861 950 861 983 q 831 895 861 916 q 761 873 801 873 q 691 895 722 873 q 661 950 661 916 m 340 950 q 371 1005 340 983 q 441 1026 401 1026 q 510 1005 479 1026 q 541 950 541 985 q 510 895 541 916 q 441 873 479 873 q 371 895 401 873 q 340 950 340 916 z "},"Ỳ":{"ha":949,"x_min":168,"x_max":1010,"o":"m 575 439 l 494 0 l 319 0 l 401 445 l 168 994 l 351 994 l 511 605 l 809 994 l 1010 994 l 575 439 m 547 1075 l 444 1301 l 633 1301 l 657 1075 l 547 1075 z "},"ỳ":{"ha":783,"x_min":28,"x_max":803,"o":"m 420 -73 q 28 -285 319 -283 l 28 -121 q 275 3 220 -121 l 310 84 q 184 279 217 111 l 98 726 l 277 726 q 378 228 356 249 l 611 726 l 803 726 l 420 -73 m 425 871 l 321 1097 l 511 1097 l 535 871 l 425 871 z "},"―":{"ha":1020,"x_min":43,"x_max":971,"o":"m 43 340 l 43 477 l 971 477 l 971 340 l 43 340 z "},"‗":{"ha":814,"x_min":-5,"x_max":818,"o":"m -5 -172 l -5 -85 l 818 -85 l 818 -172 l -5 -172 m -5 -342 l -5 -254 l 818 -254 l 818 -342 l -5 -342 z "},"′":{"ha":275,"x_min":105,"x_max":383,"o":"m 236 716 l 105 716 l 218 995 l 383 995 l 236 716 z "},"″":{"ha":519,"x_min":105,"x_max":627,"o":"m 236 716 l 105 716 l 218 995 l 383 995 l 236 716 m 480 716 l 349 716 l 462 995 l 627 995 l 480 716 z "},"‼":{"ha":849,"x_min":111,"x_max":835,"o":"m 300 288 l 210 288 l 217 477 q 226 614 220 551 q 241 726 233 677 l 294 1011 l 496 1011 l 457 787 q 387 551 448 735 l 300 288 m 111 96 q 144 173 111 142 q 224 205 178 205 q 303 173 270 205 q 337 96 337 142 q 304 18 337 50 q 224 -14 271 -14 q 144 18 177 -14 q 111 96 111 50 m 639 288 l 549 288 l 556 477 q 565 614 559 551 q 581 726 572 677 l 633 1011 l 835 1011 l 796 787 q 726 551 787 735 l 639 288 m 450 96 q 483 173 450 142 q 563 205 517 205 q 643 173 609 205 q 676 96 676 142 q 643 18 676 50 q 563 -14 610 -14 q 483 18 516 -14 q 450 96 450 50 z "},"‾":{"ha":728,"x_min":-4,"x_max":532,"o":"m 532 998 l 532 879 l -4 879 l -4 998 l 532 998 z "},"ⁿ":{"ha":594,"x_min":121,"x_max":594,"o":"m 594 863 q 589 800 594 830 l 532 494 l 422 494 l 477 787 q 483 847 483 817 q 411 911 483 911 q 298 857 347 911 l 231 494 l 121 494 l 194 872 q 195 900 195 880 q 181 991 195 941 l 287 1013 l 298 956 q 440 1011 361 1011 q 594 863 594 1011 z "},"₤":{"ha":814,"x_min":-3,"x_max":787,"o":"m 585 446 l 567 349 l 401 349 q 321 134 385 207 q 483 104 414 104 q 650 207 581 104 l 760 92 q 643 -19 726 22 q 475 -57 566 -57 q 322 -38 410 -57 q 179 -19 235 -19 q 31 -33 98 -19 l -3 104 q 124 159 92 130 q 216 349 193 219 l 83 349 l 100 446 l 227 446 l 227 547 l 117 547 l 135 644 l 228 644 q 610 1003 254 1003 q 787 946 711 1003 l 694 807 q 574 848 632 848 q 412 644 428 848 l 618 644 l 602 547 l 410 547 l 408 446 l 585 446 z "},"₧":{"ha":1628,"x_min":26,"x_max":1605,"o":"m 1605 689 l 1537 562 q 1406 603 1474 603 q 1328 583 1358 603 q 1295 526 1295 562 q 1339 465 1295 494 q 1443 406 1350 458 q 1554 237 1554 342 q 1464 52 1554 121 q 1258 -16 1378 -16 q 1074 45 1145 -16 q 903 -14 999 -14 q 778 35 821 -14 q 734 164 734 83 q 739 227 734 207 l 817 590 l 734 590 q 647 449 709 505 q 379 353 544 353 q 273 366 324 353 l 207 0 l 26 0 l 214 991 q 407 1007 329 1007 q 753 726 744 1007 l 844 726 l 872 875 l 1060 946 l 1013 726 l 1126 726 l 1099 590 l 983 590 l 914 265 q 907 197 907 233 q 977 126 907 126 q 1111 200 1026 126 q 1268 123 1179 123 q 1350 148 1318 123 q 1382 214 1382 173 q 1325 293 1382 260 q 1221 351 1289 313 q 1131 507 1131 408 q 1210 677 1131 615 q 1409 739 1287 739 q 1605 689 1518 739 m 578 697 q 440 854 578 854 q 361 843 406 854 l 301 515 q 374 505 335 505 q 523 555 467 505 q 578 697 578 606 z "},"℅":{"ha":1002,"x_min":105,"x_max":955,"o":"m 955 1011 l 234 -24 l 105 -24 l 826 1011 l 955 1011 m 955 256 q 888 54 955 135 q 708 -33 817 -33 q 579 18 630 -33 q 528 157 528 68 q 595 357 528 275 q 777 444 667 444 q 904 394 854 444 q 955 256 955 344 m 845 254 q 768 344 845 344 q 669 288 703 344 q 638 157 638 237 q 718 67 638 67 q 816 124 782 67 q 845 254 845 174 m 488 887 q 388 924 433 924 q 275 870 319 924 q 234 745 234 817 q 256 672 234 697 q 315 648 278 648 q 462 702 376 648 l 445 575 q 302 547 372 547 q 177 595 230 547 q 124 732 124 644 q 200 940 124 855 q 384 1025 277 1025 q 515 993 455 1025 l 488 887 z "},"ℓ":{"ha":814,"x_min":121,"x_max":747,"o":"m 742 814 q 408 429 711 654 l 383 302 q 374 218 374 254 q 443 123 374 123 q 554 166 505 123 l 603 56 q 511 7 572 28 q 407 -14 452 -14 q 217 81 258 -14 q 201 179 201 119 q 216 316 201 237 l 151 281 l 121 408 l 247 475 l 262 551 q 349 848 301 754 q 583 1011 431 1011 q 716 957 673 1011 q 747 862 747 918 q 742 814 747 840 m 589 806 q 593 836 593 823 q 562 874 593 874 q 465 722 494 874 l 446 625 q 589 806 575 732 z "},"№":{"ha":1332,"x_min":36,"x_max":1305,"o":"m 1305 508 q 1282 380 1305 444 q 1214 272 1257 313 q 1047 210 1148 210 q 918 264 964 210 q 873 399 873 315 q 966 624 873 537 q 1133 688 1035 688 q 1261 637 1215 688 q 1305 508 1305 589 m 1206 111 l 1183 -4 l 828 -4 l 850 111 l 1206 111 m 888 994 l 700 -12 l 623 -12 l 314 612 l 201 0 l 36 0 l 222 1006 l 300 1006 l 608 383 l 722 994 l 888 994 m 1187 500 q 1116 583 1187 583 q 1021 519 1055 583 q 991 400 991 466 q 1063 314 991 314 q 1159 380 1125 314 q 1187 500 1187 434 z "},"℮":{"ha":763,"x_min":41,"x_max":721,"o":"m 721 364 l 169 364 l 169 113 q 378 29 271 29 q 528 60 442 29 q 640 123 613 90 l 672 87 q 380 -14 562 -14 q 137 87 233 -14 q 41 355 41 189 q 141 633 41 527 q 382 740 241 740 q 630 627 538 740 q 721 364 721 514 m 170 601 l 170 410 l 597 410 l 597 601 q 384 697 515 697 q 170 601 258 697 z "},"⅛":{"ha":1218,"x_min":157,"x_max":1125,"o":"m 1125 478 q 1098 387 1125 430 q 1021 317 1070 344 q 1095 189 1095 261 q 1034 35 1095 92 q 857 -24 970 -24 q 729 18 781 -24 q 677 129 677 60 q 715 249 677 196 q 818 332 751 299 q 757 444 757 374 q 818 567 757 519 q 961 612 877 612 q 1078 574 1028 612 q 1125 478 1125 536 m 945 1011 l 346 -24 l 218 -24 l 818 1011 l 945 1011 m 407 1002 l 307 383 l 195 383 l 262 799 l 157 741 l 174 867 q 351 1002 304 932 l 407 1002 m 1011 463 q 992 498 1011 483 q 949 513 974 513 q 871 444 871 513 q 942 364 871 399 q 1011 463 1011 414 m 981 182 q 908 277 981 239 q 823 224 861 264 q 791 142 791 189 q 816 93 791 111 q 869 75 838 75 q 950 105 920 75 q 981 182 981 134 z "},"⅜":{"ha":1218,"x_min":89,"x_max":1131,"o":"m 1131 478 q 1103 387 1131 430 q 1026 317 1076 344 q 1100 189 1100 261 q 1039 35 1100 92 q 863 -24 976 -24 q 735 18 787 -24 q 684 129 684 60 q 721 249 684 196 q 823 332 757 299 q 762 444 762 374 q 823 567 762 519 q 966 612 882 612 q 1083 574 1034 612 q 1131 478 1131 536 m 977 1011 l 378 -24 l 250 -24 l 850 1011 l 977 1011 m 504 861 q 404 705 504 760 q 476 591 476 671 q 414 435 476 492 q 237 376 355 376 q 89 437 142 376 l 144 547 q 252 484 184 484 q 362 578 362 484 q 237 656 362 656 l 256 753 q 351 778 313 753 q 390 848 390 802 q 323 903 390 903 q 235 866 279 903 l 179 947 q 349 1011 241 1011 q 462 970 420 1011 q 504 861 504 928 m 1017 463 q 998 498 1017 483 q 954 513 979 513 q 876 444 876 513 q 947 364 876 399 q 1017 463 1017 414 m 986 182 q 914 277 986 239 q 829 224 867 264 q 798 142 798 189 q 821 93 798 111 q 875 75 844 75 q 956 105 926 75 q 986 182 986 134 z "},"⅝":{"ha":1218,"x_min":85,"x_max":1131,"o":"m 1131 478 q 1103 387 1131 430 q 1026 317 1076 344 q 1100 189 1100 261 q 1039 35 1100 92 q 863 -24 976 -24 q 735 18 787 -24 q 684 129 684 60 q 721 249 684 196 q 823 332 757 299 q 762 444 762 374 q 823 567 762 519 q 966 612 882 612 q 1083 574 1034 612 q 1131 478 1131 536 m 977 1011 l 378 -24 l 250 -24 l 850 1011 l 977 1011 m 542 1002 l 524 903 l 300 903 l 277 798 q 346 807 304 807 q 457 765 413 807 q 501 657 501 723 q 433 456 501 532 q 232 375 361 375 q 85 431 145 375 l 136 530 q 241 474 181 474 q 345 517 307 474 q 385 635 385 564 q 297 713 385 713 q 196 669 239 713 l 146 692 l 207 1002 l 542 1002 m 1017 463 q 998 498 1017 483 q 954 513 979 513 q 876 444 876 513 q 947 364 876 399 q 1017 463 1017 414 m 986 182 q 914 277 986 239 q 829 224 867 264 q 798 142 798 189 q 821 93 798 111 q 875 75 844 75 q 956 105 926 75 q 986 182 986 134 z "},"⅞":{"ha":1218,"x_min":142,"x_max":1126,"o":"m 1126 478 q 1099 387 1126 430 q 1022 317 1072 344 q 1096 189 1096 261 q 1035 35 1096 92 q 859 -24 971 -24 q 730 18 782 -24 q 679 129 679 60 q 717 249 679 196 q 819 332 753 299 q 758 444 758 374 q 819 567 758 519 q 962 612 878 612 q 1079 574 1029 612 q 1126 478 1126 536 m 960 1011 l 361 -24 l 233 -24 l 833 1011 l 960 1011 m 619 951 q 275 383 424 681 l 142 383 q 444 897 288 663 l 186 897 l 207 1002 l 619 1002 l 619 951 m 1013 463 q 994 498 1013 483 q 950 513 975 513 q 872 444 872 513 q 943 364 872 399 q 1013 463 1013 414 m 982 182 q 909 277 982 239 q 825 224 863 264 q 793 142 793 189 q 817 93 793 111 q 871 75 840 75 q 952 105 922 75 q 982 182 982 134 z "},"□":{"ha":839,"x_min":99,"x_max":739,"o":"m 99 640 l 739 640 l 739 0 l 99 0 l 99 640 m 151 589 l 151 52 l 688 52 l 688 589 l 151 589 z "},"▪":{"ha":492,"x_min":89,"x_max":403,"o":"m 403 616 l 403 302 l 89 302 l 89 616 l 403 616 z "},"▫":{"ha":492,"x_min":89,"x_max":403,"o":"m 403 616 l 403 302 l 89 302 l 89 616 l 403 616 m 351 564 l 140 564 l 140 353 l 351 353 l 351 564 z "},"●":{"ha":839,"x_min":120,"x_max":718,"o":"m 120 391 q 208 602 120 515 q 419 690 295 690 q 630 602 543 690 q 718 391 718 515 q 630 180 718 267 q 419 92 543 92 q 208 180 295 92 q 120 391 120 267 z "},"◦":{"ha":492,"x_min":76,"x_max":416,"o":"m 246 629 q 367 579 317 629 q 416 459 416 530 q 367 339 416 389 q 246 289 317 289 q 126 339 176 289 q 76 459 76 389 q 125 579 76 530 q 246 629 175 629 m 246 578 q 162 543 197 578 q 127 459 127 508 q 162 375 127 410 q 246 340 197 340 q 330 375 295 340 q 365 459 365 410 q 330 543 365 508 q 246 578 296 578 z "},"‛":{"ha":510,"x_min":203,"x_max":456,"o":"m 389 828 q 337 779 345 802 q 343 707 325 747 q 384 644 352 689 l 304 587 q 203 818 203 700 q 223 925 203 871 q 338 1024 260 1024 q 386 1018 364 1024 q 456 935 456 998 q 389 828 456 867 z "},"Ș":{"ha":696,"x_min":29,"x_max":692,"o":"m 637 798 q 477 855 559 855 q 314 732 314 855 q 401 607 314 680 l 503 520 q 569 461 551 479 q 608 409 587 442 q 638 342 628 376 q 648 273 648 308 q 546 60 648 136 q 281 -17 444 -17 q 29 41 148 -17 l 86 215 q 297 146 177 146 q 417 177 370 146 q 465 265 465 208 q 378 389 465 321 l 272 474 q 206 531 223 513 q 170 580 189 549 q 141 645 151 612 q 132 713 132 678 q 222 930 132 850 q 460 1010 313 1010 q 585 999 509 1010 q 692 974 661 988 l 637 798 m 243 -387 l 200 -330 q 255 -280 245 -296 q 265 -246 265 -264 q 242 -205 265 -229 q 218 -154 218 -182 q 298 -74 218 -74 q 381 -168 381 -74 q 243 -387 381 -301 z "},"ș":{"ha":637,"x_min":7,"x_max":615,"o":"m 536 528 q 387 599 455 599 q 314 579 345 599 q 283 528 283 560 q 357 450 283 488 q 470 391 431 413 q 534 331 509 369 q 559 245 559 294 q 470 56 559 125 q 240 -14 380 -14 q 7 54 121 -14 l 96 208 q 262 127 181 127 q 348 153 314 127 q 381 223 381 179 q 317 293 381 260 q 205 354 254 326 q 131 421 156 381 q 105 509 105 460 q 190 677 105 614 q 397 740 274 740 q 615 683 481 740 l 536 528 m 192 -387 l 149 -330 q 204 -280 194 -296 q 214 -246 214 -264 q 191 -205 214 -229 q 168 -154 168 -182 q 247 -74 168 -74 q 330 -168 330 -74 q 192 -387 330 -301 z "},"Ţ":{"ha":951,"x_min":136,"x_max":972,"o":"m 943 839 l 630 839 l 477 0 l 298 0 l 452 839 l 136 839 l 164 994 l 972 994 l 943 839 m 210 -305 l 210 -222 q 236 -225 222 -225 q 309 -208 275 -225 q 352 -152 352 -187 q 332 -108 352 -128 q 289 -87 313 -88 l 331 -29 q 487 -155 487 -39 q 413 -275 487 -233 q 269 -309 353 -309 q 210 -305 258 -309 z "},"ţ":{"ha":608,"x_min":77,"x_max":600,"o":"m 570 590 l 370 590 l 297 268 q 288 203 288 229 q 372 129 288 129 q 494 164 410 129 l 494 12 q 295 -14 421 -14 q 162 38 212 -14 q 112 172 112 90 q 118 226 112 199 l 200 590 l 116 590 l 145 726 l 229 726 l 258 875 l 452 945 l 401 726 l 600 726 l 570 590 m 77 -305 l 77 -222 q 104 -225 90 -225 q 177 -208 143 -225 q 220 -152 220 -187 q 200 -108 220 -128 q 157 -87 180 -88 l 199 -29 q 355 -155 355 -39 q 281 -275 355 -233 q 136 -309 220 -309 q 77 -305 126 -309 z "},"ﬆ":{"ha":1114,"x_min":-12,"x_max":1139,"o":"m 758 599 l 673 599 l 699 726 l 785 726 l 798 787 q 802 833 802 806 q 772 903 802 878 q 694 929 743 929 q 587 893 627 929 q 547 802 547 857 q 581 692 547 732 l 533 557 q 353 604 431 604 q 283 585 307 604 q 260 536 260 565 q 288 483 260 505 q 389 422 316 461 q 497 335 471 378 q 524 225 524 292 q 444 55 524 123 q 239 -14 365 -14 q -12 49 84 -14 l 46 180 q 240 122 151 122 q 318 147 289 122 q 347 211 347 172 q 321 270 347 245 q 220 335 296 294 q 116 417 149 374 q 83 529 83 460 q 157 682 83 623 q 359 741 231 741 q 427 734 378 741 q 397 831 397 768 q 489 996 397 933 q 720 1059 580 1059 q 912 1007 843 1059 q 982 860 982 956 q 972 794 982 828 q 956 726 963 760 l 1139 726 l 1114 599 l 929 599 l 859 292 q 846 196 846 235 q 913 122 846 122 q 1034 149 964 122 l 1063 26 q 846 -14 963 -14 q 719 30 766 -14 q 672 144 672 73 q 688 269 672 194 l 758 599 z "},"ﬀ":{"ha":939,"x_min":-78,"x_max":1104,"o":"m 1068 867 q 966 886 1017 886 q 883 847 911 886 q 842 725 855 808 l 1014 725 l 991 599 l 821 599 l 730 56 q 629 -183 704 -106 q 410 -277 554 -260 l 392 -160 q 545 14 519 -129 l 646 599 l 351 599 l 261 56 q 160 -183 235 -106 q -60 -277 85 -260 l -78 -160 q 75 14 50 -129 l 176 599 l 71 599 l 96 725 l 196 725 q 290 939 224 868 q 478 1010 355 1010 q 631 985 555 1010 l 595 852 q 493 872 541 872 q 407 832 430 872 q 372 725 383 793 l 665 725 q 951 1023 724 1023 q 1104 999 1031 1023 l 1068 867 z "},"ﬃ":{"ha":1361,"x_min":-78,"x_max":1362,"o":"m 665 725 q 951 1023 724 1023 q 1104 999 1031 1023 l 1068 867 q 966 886 1017 886 q 883 847 911 886 q 842 725 855 808 l 1310 725 l 1182 0 l 1011 0 l 1116 599 l 821 599 l 730 56 q 629 -183 704 -106 q 410 -277 554 -260 l 392 -160 q 545 14 519 -129 l 646 599 l 351 599 l 261 56 q 160 -183 235 -106 q -60 -277 85 -260 l -78 -160 q 75 14 50 -129 l 176 599 l 71 599 l 96 725 l 196 725 q 290 939 224 868 q 478 1010 355 1010 q 631 985 555 1010 l 595 852 q 493 872 541 872 q 407 832 430 872 q 372 725 383 793 l 665 725 m 1362 920 q 1333 846 1362 877 q 1260 815 1303 815 q 1186 846 1217 815 q 1156 920 1156 876 q 1186 992 1156 962 q 1260 1023 1217 1023 q 1333 992 1303 1023 q 1362 920 1362 961 z "}}}
